<?xml version="1.0" encoding="utf-8" standalone="no"?>
<!DOCTYPE svg PUBLIC "-//W3C//DTD SVG 1.1//EN"
  "http://www.w3.org/Graphics/SVG/1.1/DTD/svg11.dtd">
<!-- Created with matplotlib (https://matplotlib.org/) -->
<svg height="870.81859pt" version="1.1" viewBox="0 0 1206.797499 870.81859" width="1206.797499pt" xmlns="http://www.w3.org/2000/svg" xmlns:xlink="http://www.w3.org/1999/xlink">
 <metadata>
  <rdf:RDF xmlns:cc="http://creativecommons.org/ns#" xmlns:dc="http://purl.org/dc/elements/1.1/" xmlns:rdf="http://www.w3.org/1999/02/22-rdf-syntax-ns#">
   <cc:Work>
    <dc:type rdf:resource="http://purl.org/dc/dcmitype/StillImage"/>
    <dc:date>2022-02-16T15:22:53.072449</dc:date>
    <dc:format>image/svg+xml</dc:format>
    <dc:creator>
     <cc:Agent>
      <dc:title>Matplotlib v3.3.4, https://matplotlib.org/</dc:title>
     </cc:Agent>
    </dc:creator>
   </cc:Work>
  </rdf:RDF>
 </metadata>
 <defs>
  <style type="text/css">*{stroke-linecap:butt;stroke-linejoin:round;}</style>
 </defs>
 <g id="figure_1">
  <g id="patch_1">
   <path d="M 0 870.81859 
L 1206.797499 870.81859 
L 1206.797499 0 
L 0 0 
z
" style="fill:none;"/>
  </g>
  <g id="axes_1">
   <g id="patch_2">
    <path d="M 68.070313 565.918125 
L 1184.070312 565.918125 
L 1184.070312 22.318125 
L 68.070313 22.318125 
z
" style="fill:#ffffff;"/>
   </g>
   <g id="patch_3">
    <path clip-path="url(#pdf1c19fe60)" d="M 95.970313 318.292887 
L 102.945312 318.292887 
L 102.945312 308.973425 
L 95.970313 308.973425 
z
" style="fill:#1f77b4;"/>
   </g>
   <g id="patch_4">
    <path clip-path="url(#pdf1c19fe60)" d="M 207.570312 318.292887 
L 214.545312 318.292887 
L 214.545312 541.209034 
L 207.570312 541.209034 
z
" style="fill:#1f77b4;"/>
   </g>
   <g id="patch_5">
    <path clip-path="url(#pdf1c19fe60)" d="M 319.170313 318.292887 
L 326.145313 318.292887 
L 326.145313 391.134883 
L 319.170313 391.134883 
z
" style="fill:#1f77b4;"/>
   </g>
   <g id="patch_6">
    <path clip-path="url(#pdf1c19fe60)" d="M 430.770313 318.292887 
L 437.745313 318.292887 
L 437.745313 298.864504 
L 430.770313 298.864504 
z
" style="fill:#1f77b4;"/>
   </g>
   <g id="patch_7">
    <path clip-path="url(#pdf1c19fe60)" d="M 542.370313 318.292887 
L 549.345313 318.292887 
L 549.345313 324.550791 
L 542.370313 324.550791 
z
" style="fill:#1f77b4;"/>
   </g>
   <g id="patch_8">
    <path clip-path="url(#pdf1c19fe60)" d="M 653.970313 318.292887 
L 660.945313 318.292887 
L 660.945313 321.10413 
L 653.970313 321.10413 
z
" style="fill:#1f77b4;"/>
   </g>
   <g id="patch_9">
    <path clip-path="url(#pdf1c19fe60)" d="M 765.570312 318.292887 
L 772.545313 318.292887 
L 772.545313 327.72788 
L 765.570312 327.72788 
z
" style="fill:#1f77b4;"/>
   </g>
   <g id="patch_10">
    <path clip-path="url(#pdf1c19fe60)" d="M 877.170313 318.292887 
L 884.145313 318.292887 
L 884.145313 330.231041 
L 877.170313 330.231041 
z
" style="fill:#1f77b4;"/>
   </g>
   <g id="patch_11">
    <path clip-path="url(#pdf1c19fe60)" d="M 988.770313 318.292887 
L 995.745313 318.292887 
L 995.745313 319.717764 
L 988.770313 319.717764 
z
" style="fill:#1f77b4;"/>
   </g>
   <g id="patch_12">
    <path clip-path="url(#pdf1c19fe60)" d="M 1100.370313 318.292887 
L 1107.345313 318.292887 
L 1107.345313 348.908476 
L 1100.370313 348.908476 
z
" style="fill:#1f77b4;"/>
   </g>
   <g id="patch_13">
    <path clip-path="url(#pdf1c19fe60)" d="M 102.945313 318.292887 
L 109.920313 318.292887 
L 109.920313 347.464345 
L 102.945313 347.464345 
z
" style="fill:#ff7f0e;"/>
   </g>
   <g id="patch_14">
    <path clip-path="url(#pdf1c19fe60)" d="M 214.545313 318.292887 
L 221.520313 318.292887 
L 221.520313 47.027216 
L 214.545313 47.027216 
z
" style="fill:#ff7f0e;"/>
   </g>
   <g id="patch_15">
    <path clip-path="url(#pdf1c19fe60)" d="M 326.145313 318.292887 
L 333.120313 318.292887 
L 333.120313 330.808694 
L 326.145313 330.808694 
z
" style="fill:#ff7f0e;"/>
   </g>
   <g id="patch_16">
    <path clip-path="url(#pdf1c19fe60)" d="M 437.745313 318.292887 
L 444.720313 318.292887 
L 444.720313 344.036939 
L 437.745313 344.036939 
z
" style="fill:#ff7f0e;"/>
   </g>
   <g id="patch_17">
    <path clip-path="url(#pdf1c19fe60)" d="M 549.345313 318.292887 
L 556.320313 318.292887 
L 556.320313 321.989864 
L 549.345313 321.989864 
z
" style="fill:#ff7f0e;"/>
   </g>
   <g id="patch_18">
    <path clip-path="url(#pdf1c19fe60)" d="M 660.945312 318.292887 
L 667.920313 318.292887 
L 667.920313 319.467448 
L 660.945312 319.467448 
z
" style="fill:#ff7f0e;"/>
   </g>
   <g id="patch_19">
    <path clip-path="url(#pdf1c19fe60)" d="M 772.545313 318.292887 
L 779.520313 318.292887 
L 779.520313 315.65494 
L 772.545313 315.65494 
z
" style="fill:#ff7f0e;"/>
   </g>
   <g id="patch_20">
    <path clip-path="url(#pdf1c19fe60)" d="M 884.145313 318.292887 
L 891.120313 318.292887 
L 891.120313 296.611659 
L 884.145313 296.611659 
z
" style="fill:#ff7f0e;"/>
   </g>
   <g id="patch_21">
    <path clip-path="url(#pdf1c19fe60)" d="M 995.745313 318.292887 
L 1002.720313 318.292887 
L 1002.720313 320.102865 
L 995.745313 320.102865 
z
" style="fill:#ff7f0e;"/>
   </g>
   <g id="patch_22">
    <path clip-path="url(#pdf1c19fe60)" d="M 1107.345313 318.292887 
L 1114.320312 318.292887 
L 1114.320312 356.572001 
L 1107.345313 356.572001 
z
" style="fill:#ff7f0e;"/>
   </g>
   <g id="patch_23">
    <path clip-path="url(#pdf1c19fe60)" d="M 109.920313 318.292887 
L 116.895313 318.292887 
L 116.895313 339.589014 
L 109.920313 339.589014 
z
" style="fill:#2ca02c;"/>
   </g>
   <g id="patch_24">
    <path clip-path="url(#pdf1c19fe60)" d="M 221.520313 318.292887 
L 228.495313 318.292887 
L 228.495313 234.725808 
L 221.520313 234.725808 
z
" style="fill:#2ca02c;"/>
   </g>
   <g id="patch_25">
    <path clip-path="url(#pdf1c19fe60)" d="M 333.120313 318.292887 
L 340.095313 318.292887 
L 340.095313 203.821393 
L 333.120313 203.821393 
z
" style="fill:#2ca02c;"/>
   </g>
   <g id="patch_26">
    <path clip-path="url(#pdf1c19fe60)" d="M 444.720313 318.292887 
L 451.695313 318.292887 
L 451.695313 356.687532 
L 444.720313 356.687532 
z
" style="fill:#2ca02c;"/>
   </g>
   <g id="patch_27">
    <path clip-path="url(#pdf1c19fe60)" d="M 556.320312 318.292887 
L 563.295313 318.292887 
L 563.295313 309.088955 
L 556.320312 309.088955 
z
" style="fill:#2ca02c;"/>
   </g>
   <g id="patch_28">
    <path clip-path="url(#pdf1c19fe60)" d="M 667.920313 318.292887 
L 674.895313 318.292887 
L 674.895313 318.83203 
L 667.920313 318.83203 
z
" style="fill:#2ca02c;"/>
   </g>
   <g id="patch_29">
    <path clip-path="url(#pdf1c19fe60)" d="M 779.520313 318.292887 
L 786.495313 318.292887 
L 786.495313 316.040042 
L 779.520313 316.040042 
z
" style="fill:#2ca02c;"/>
   </g>
   <g id="patch_30">
    <path clip-path="url(#pdf1c19fe60)" d="M 891.120313 318.292887 
L 898.095313 318.292887 
L 898.095313 318.90905 
L 891.120313 318.90905 
z
" style="fill:#2ca02c;"/>
   </g>
   <g id="patch_31">
    <path clip-path="url(#pdf1c19fe60)" d="M 1002.720313 318.292887 
L 1009.695313 318.292887 
L 1009.695313 322.683047 
L 1002.720313 322.683047 
z
" style="fill:#2ca02c;"/>
   </g>
   <g id="patch_32">
    <path clip-path="url(#pdf1c19fe60)" d="M 1114.320312 318.292887 
L 1121.295312 318.292887 
L 1121.295312 317.195347 
L 1114.320312 317.195347 
z
" style="fill:#2ca02c;"/>
   </g>
   <g id="patch_33">
    <path clip-path="url(#pdf1c19fe60)" d="M 116.895313 318.292887 
L 123.870313 318.292887 
L 123.870313 328.960206 
L 116.895313 328.960206 
z
" style="fill:#d62728;"/>
   </g>
   <g id="patch_34">
    <path clip-path="url(#pdf1c19fe60)" d="M 228.495313 318.292887 
L 235.470313 318.292887 
L 235.470313 202.897148 
L 228.495313 202.897148 
z
" style="fill:#d62728;"/>
   </g>
   <g id="patch_35">
    <path clip-path="url(#pdf1c19fe60)" d="M 340.095313 318.292887 
L 347.070313 318.292887 
L 347.070313 264.956295 
L 340.095313 264.956295 
z
" style="fill:#d62728;"/>
   </g>
   <g id="patch_36">
    <path clip-path="url(#pdf1c19fe60)" d="M 451.695313 318.292887 
L 458.670313 318.292887 
L 458.670313 311.977219 
L 451.695313 311.977219 
z
" style="fill:#d62728;"/>
   </g>
   <g id="patch_37">
    <path clip-path="url(#pdf1c19fe60)" d="M 563.295313 318.292887 
L 570.270313 318.292887 
L 570.270313 326.091198 
L 563.295313 326.091198 
z
" style="fill:#d62728;"/>
   </g>
   <g id="patch_38">
    <path clip-path="url(#pdf1c19fe60)" d="M 674.895313 318.292887 
L 681.870313 318.292887 
L 681.870313 330.231041 
L 674.895313 330.231041 
z
" style="fill:#d62728;"/>
   </g>
   <g id="patch_39">
    <path clip-path="url(#pdf1c19fe60)" d="M 786.495312 318.292887 
L 793.470312 318.292887 
L 793.470312 328.055217 
L 786.495312 328.055217 
z
" style="fill:#d62728;"/>
   </g>
   <g id="patch_40">
    <path clip-path="url(#pdf1c19fe60)" d="M 898.095313 318.292887 
L 905.070313 318.292887 
L 905.070313 346.405315 
L 898.095313 346.405315 
z
" style="fill:#d62728;"/>
   </g>
   <g id="patch_41">
    <path clip-path="url(#pdf1c19fe60)" d="M 1009.695312 318.292887 
L 1016.670313 318.292887 
L 1016.670313 320.622753 
L 1009.695312 320.622753 
z
" style="fill:#d62728;"/>
   </g>
   <g id="patch_42">
    <path clip-path="url(#pdf1c19fe60)" d="M 1121.295313 318.292887 
L 1128.270313 318.292887 
L 1128.270313 304.236673 
L 1121.295313 304.236673 
z
" style="fill:#d62728;"/>
   </g>
   <g id="patch_43">
    <path clip-path="url(#pdf1c19fe60)" d="M 123.870313 318.292887 
L 130.845313 318.292887 
L 130.845313 280.495151 
L 123.870313 280.495151 
z
" style="fill:#9467bd;"/>
   </g>
   <g id="patch_44">
    <path clip-path="url(#pdf1c19fe60)" d="M 235.470313 318.292887 
L 242.445313 318.292887 
L 242.445313 312.420086 
L 235.470313 312.420086 
z
" style="fill:#9467bd;"/>
   </g>
   <g id="patch_45">
    <path clip-path="url(#pdf1c19fe60)" d="M 347.070312 318.292887 
L 354.045313 318.292887 
L 354.045313 366.546136 
L 347.070312 366.546136 
z
" style="fill:#9467bd;"/>
   </g>
   <g id="patch_46">
    <path clip-path="url(#pdf1c19fe60)" d="M 458.670313 318.292887 
L 465.645313 318.292887 
L 465.645313 299.576942 
L 458.670313 299.576942 
z
" style="fill:#9467bd;"/>
   </g>
   <g id="patch_47">
    <path clip-path="url(#pdf1c19fe60)" d="M 570.270313 318.292887 
L 577.245313 318.292887 
L 577.245313 322.856343 
L 570.270313 322.856343 
z
" style="fill:#9467bd;"/>
   </g>
   <g id="patch_48">
    <path clip-path="url(#pdf1c19fe60)" d="M 681.870312 318.292887 
L 688.845312 318.292887 
L 688.845312 321.392956 
L 681.870312 321.392956 
z
" style="fill:#9467bd;"/>
   </g>
   <g id="patch_49">
    <path clip-path="url(#pdf1c19fe60)" d="M 793.470313 318.292887 
L 800.445313 318.292887 
L 800.445313 333.273345 
L 793.470313 333.273345 
z
" style="fill:#9467bd;"/>
   </g>
   <g id="patch_50">
    <path clip-path="url(#pdf1c19fe60)" d="M 905.070312 318.292887 
L 912.045313 318.292887 
L 912.045313 311.438076 
L 905.070312 311.438076 
z
" style="fill:#9467bd;"/>
   </g>
   <g id="patch_51">
    <path clip-path="url(#pdf1c19fe60)" d="M 1016.670313 318.292887 
L 1023.645313 318.292887 
L 1023.645313 320.199141 
L 1016.670313 320.199141 
z
" style="fill:#9467bd;"/>
   </g>
   <g id="patch_52">
    <path clip-path="url(#pdf1c19fe60)" d="M 1128.270313 318.292887 
L 1135.245312 318.292887 
L 1135.245312 313.999003 
L 1128.270313 313.999003 
z
" style="fill:#9467bd;"/>
   </g>
   <g id="patch_53">
    <path clip-path="url(#pdf1c19fe60)" d="M 130.845313 318.292887 
L 137.820312 318.292887 
L 137.820312 261.124533 
L 130.845313 261.124533 
z
" style="fill:#8c564b;"/>
   </g>
   <g id="patch_54">
    <path clip-path="url(#pdf1c19fe60)" d="M 242.445312 318.292887 
L 249.420312 318.292887 
L 249.420312 332.541652 
L 242.445312 332.541652 
z
" style="fill:#8c564b;"/>
   </g>
   <g id="patch_55">
    <path clip-path="url(#pdf1c19fe60)" d="M 354.045313 318.292887 
L 361.020313 318.292887 
L 361.020313 305.160918 
L 354.045313 305.160918 
z
" style="fill:#8c564b;"/>
   </g>
   <g id="patch_56">
    <path clip-path="url(#pdf1c19fe60)" d="M 465.645313 318.292887 
L 472.620313 318.292887 
L 472.620313 323.472506 
L 465.645313 323.472506 
z
" style="fill:#8c564b;"/>
   </g>
   <g id="patch_57">
    <path clip-path="url(#pdf1c19fe60)" d="M 577.245313 318.292887 
L 584.220313 318.292887 
L 584.220313 319.602233 
L 577.245313 319.602233 
z
" style="fill:#8c564b;"/>
   </g>
   <g id="patch_58">
    <path clip-path="url(#pdf1c19fe60)" d="M 688.845313 318.292887 
L 695.820313 318.292887 
L 695.820313 345.692877 
L 688.845313 345.692877 
z
" style="fill:#8c564b;"/>
   </g>
   <g id="patch_59">
    <path clip-path="url(#pdf1c19fe60)" d="M 800.445312 318.292887 
L 807.420313 318.292887 
L 807.420313 318.755009 
L 800.445312 318.755009 
z
" style="fill:#8c564b;"/>
   </g>
   <g id="patch_60">
    <path clip-path="url(#pdf1c19fe60)" d="M 912.045313 318.292887 
L 919.020313 318.292887 
L 919.020313 353.471932 
L 912.045313 353.471932 
z
" style="fill:#8c564b;"/>
   </g>
   <g id="patch_61">
    <path clip-path="url(#pdf1c19fe60)" d="M 1023.645313 318.292887 
L 1030.620312 318.292887 
L 1030.620312 317.099072 
L 1023.645313 317.099072 
z
" style="fill:#8c564b;"/>
   </g>
   <g id="patch_62">
    <path clip-path="url(#pdf1c19fe60)" d="M 1135.245313 318.292887 
L 1142.220313 318.292887 
L 1142.220313 312.092749 
L 1135.245313 312.092749 
z
" style="fill:#8c564b;"/>
   </g>
   <g id="patch_63">
    <path clip-path="url(#pdf1c19fe60)" d="M 137.820312 318.292887 
L 144.795312 318.292887 
L 144.795312 352.258861 
L 137.820312 352.258861 
z
" style="fill:#e377c2;"/>
   </g>
   <g id="patch_64">
    <path clip-path="url(#pdf1c19fe60)" d="M 249.420313 318.292887 
L 256.395313 318.292887 
L 256.395313 301.849043 
L 249.420313 301.849043 
z
" style="fill:#e377c2;"/>
   </g>
   <g id="patch_65">
    <path clip-path="url(#pdf1c19fe60)" d="M 361.020313 318.292887 
L 367.995313 318.292887 
L 367.995313 310.263516 
L 361.020313 310.263516 
z
" style="fill:#e377c2;"/>
   </g>
   <g id="patch_66">
    <path clip-path="url(#pdf1c19fe60)" d="M 472.620313 318.292887 
L 479.595313 318.292887 
L 479.595313 311.784668 
L 472.620313 311.784668 
z
" style="fill:#e377c2;"/>
   </g>
   <g id="patch_67">
    <path clip-path="url(#pdf1c19fe60)" d="M 584.220313 318.292887 
L 591.195313 318.292887 
L 591.195313 316.617695 
L 584.220313 316.617695 
z
" style="fill:#e377c2;"/>
   </g>
   <g id="patch_68">
    <path clip-path="url(#pdf1c19fe60)" d="M 695.820312 318.292887 
L 702.795313 318.292887 
L 702.795313 283.498944 
L 695.820312 283.498944 
z
" style="fill:#e377c2;"/>
   </g>
   <g id="patch_69">
    <path clip-path="url(#pdf1c19fe60)" d="M 807.420313 318.292887 
L 814.395313 318.292887 
L 814.395313 323.395485 
L 807.420313 323.395485 
z
" style="fill:#e377c2;"/>
   </g>
   <g id="patch_70">
    <path clip-path="url(#pdf1c19fe60)" d="M 919.020313 318.292887 
L 925.995313 318.292887 
L 925.995313 375.596027 
L 919.020313 375.596027 
z
" style="fill:#e377c2;"/>
   </g>
   <g id="patch_71">
    <path clip-path="url(#pdf1c19fe60)" d="M 1030.620313 318.292887 
L 1037.595313 318.292887 
L 1037.595313 322.837088 
L 1030.620313 322.837088 
z
" style="fill:#e377c2;"/>
   </g>
   <g id="patch_72">
    <path clip-path="url(#pdf1c19fe60)" d="M 1142.220313 318.292887 
L 1149.195312 318.292887 
L 1149.195312 309.608843 
L 1142.220313 309.608843 
z
" style="fill:#e377c2;"/>
   </g>
   <g id="patch_73">
    <path clip-path="url(#pdf1c19fe60)" d="M 144.795313 318.292887 
L 151.770313 318.292887 
L 151.770313 487.391065 
L 144.795313 487.391065 
z
" style="fill:#7f7f7f;"/>
   </g>
   <g id="patch_74">
    <path clip-path="url(#pdf1c19fe60)" d="M 256.395313 318.292887 
L 263.370313 318.292887 
L 263.370313 416.705639 
L 256.395313 416.705639 
z
" style="fill:#7f7f7f;"/>
   </g>
   <g id="patch_75">
    <path clip-path="url(#pdf1c19fe60)" d="M 367.995313 318.292887 
L 374.970313 318.292887 
L 374.970313 462.436472 
L 367.995313 462.436472 
z
" style="fill:#7f7f7f;"/>
   </g>
   <g id="patch_76">
    <path clip-path="url(#pdf1c19fe60)" d="M 479.595313 318.292887 
L 486.570313 318.292887 
L 486.570313 351.91227 
L 479.595313 351.91227 
z
" style="fill:#7f7f7f;"/>
   </g>
   <g id="patch_77">
    <path clip-path="url(#pdf1c19fe60)" d="M 591.195312 318.292887 
L 598.170313 318.292887 
L 598.170313 310.590852 
L 591.195312 310.590852 
z
" style="fill:#7f7f7f;"/>
   </g>
   <g id="patch_78">
    <path clip-path="url(#pdf1c19fe60)" d="M 702.795313 318.292887 
L 709.770313 318.292887 
L 709.770313 301.637237 
L 702.795313 301.637237 
z
" style="fill:#7f7f7f;"/>
   </g>
   <g id="patch_79">
    <path clip-path="url(#pdf1c19fe60)" d="M 814.395313 318.292887 
L 821.370313 318.292887 
L 821.370313 299.981299 
L 814.395313 299.981299 
z
" style="fill:#7f7f7f;"/>
   </g>
   <g id="patch_80">
    <path clip-path="url(#pdf1c19fe60)" d="M 925.995313 318.292887 
L 932.970313 318.292887 
L 932.970313 201.703333 
L 925.995313 201.703333 
z
" style="fill:#7f7f7f;"/>
   </g>
   <g id="patch_81">
    <path clip-path="url(#pdf1c19fe60)" d="M 1037.595313 318.292887 
L 1044.570312 318.292887 
L 1044.570312 305.757825 
L 1037.595313 305.757825 
z
" style="fill:#7f7f7f;"/>
   </g>
   <g id="patch_82">
    <path clip-path="url(#pdf1c19fe60)" d="M 1149.195312 318.292887 
L 1156.170312 318.292887 
L 1156.170312 227.755466 
L 1149.195312 227.755466 
z
" style="fill:#7f7f7f;"/>
   </g>
   <g id="matplotlib.axis_1">
    <g id="xtick_1">
     <g id="line2d_1">
      <defs>
       <path d="M 0 0 
L 0 3.5 
" id="m3f9368686c" style="stroke:#000000;stroke-width:0.8;"/>
      </defs>
      <g>
       <use style="stroke:#000000;stroke-width:0.8;" x="123.870313" xlink:href="#m3f9368686c" y="565.918125"/>
      </g>
     </g>
     <g id="text_1">
      <!-- First: Priority workers -->
      <g transform="translate(88.461388 653.011226)rotate(-45)scale(0.1 -0.1)">
       <defs>
        <path d="M 9.8125 72.90625 
L 51.703125 72.90625 
L 51.703125 64.59375 
L 19.671875 64.59375 
L 19.671875 43.109375 
L 48.578125 43.109375 
L 48.578125 34.8125 
L 19.671875 34.8125 
L 19.671875 0 
L 9.8125 0 
z
" id="DejaVuSans-70"/>
        <path d="M 9.421875 54.6875 
L 18.40625 54.6875 
L 18.40625 0 
L 9.421875 0 
z
M 9.421875 75.984375 
L 18.40625 75.984375 
L 18.40625 64.59375 
L 9.421875 64.59375 
z
" id="DejaVuSans-105"/>
        <path d="M 41.109375 46.296875 
Q 39.59375 47.171875 37.8125 47.578125 
Q 36.03125 48 33.890625 48 
Q 26.265625 48 22.1875 43.046875 
Q 18.109375 38.09375 18.109375 28.8125 
L 18.109375 0 
L 9.078125 0 
L 9.078125 54.6875 
L 18.109375 54.6875 
L 18.109375 46.1875 
Q 20.953125 51.171875 25.484375 53.578125 
Q 30.03125 56 36.53125 56 
Q 37.453125 56 38.578125 55.875 
Q 39.703125 55.765625 41.0625 55.515625 
z
" id="DejaVuSans-114"/>
        <path d="M 44.28125 53.078125 
L 44.28125 44.578125 
Q 40.484375 46.53125 36.375 47.5 
Q 32.28125 48.484375 27.875 48.484375 
Q 21.1875 48.484375 17.84375 46.4375 
Q 14.5 44.390625 14.5 40.28125 
Q 14.5 37.15625 16.890625 35.375 
Q 19.28125 33.59375 26.515625 31.984375 
L 29.59375 31.296875 
Q 39.15625 29.25 43.1875 25.515625 
Q 47.21875 21.78125 47.21875 15.09375 
Q 47.21875 7.46875 41.1875 3.015625 
Q 35.15625 -1.421875 24.609375 -1.421875 
Q 20.21875 -1.421875 15.453125 -0.5625 
Q 10.6875 0.296875 5.421875 2 
L 5.421875 11.28125 
Q 10.40625 8.6875 15.234375 7.390625 
Q 20.0625 6.109375 24.8125 6.109375 
Q 31.15625 6.109375 34.5625 8.28125 
Q 37.984375 10.453125 37.984375 14.40625 
Q 37.984375 18.0625 35.515625 20.015625 
Q 33.0625 21.96875 24.703125 23.78125 
L 21.578125 24.515625 
Q 13.234375 26.265625 9.515625 29.90625 
Q 5.8125 33.546875 5.8125 39.890625 
Q 5.8125 47.609375 11.28125 51.796875 
Q 16.75 56 26.8125 56 
Q 31.78125 56 36.171875 55.265625 
Q 40.578125 54.546875 44.28125 53.078125 
z
" id="DejaVuSans-115"/>
        <path d="M 18.3125 70.21875 
L 18.3125 54.6875 
L 36.8125 54.6875 
L 36.8125 47.703125 
L 18.3125 47.703125 
L 18.3125 18.015625 
Q 18.3125 11.328125 20.140625 9.421875 
Q 21.96875 7.515625 27.59375 7.515625 
L 36.8125 7.515625 
L 36.8125 0 
L 27.59375 0 
Q 17.1875 0 13.234375 3.875 
Q 9.28125 7.765625 9.28125 18.015625 
L 9.28125 47.703125 
L 2.6875 47.703125 
L 2.6875 54.6875 
L 9.28125 54.6875 
L 9.28125 70.21875 
z
" id="DejaVuSans-116"/>
        <path d="M 11.71875 12.40625 
L 22.015625 12.40625 
L 22.015625 0 
L 11.71875 0 
z
M 11.71875 51.703125 
L 22.015625 51.703125 
L 22.015625 39.3125 
L 11.71875 39.3125 
z
" id="DejaVuSans-58"/>
        <path id="DejaVuSans-32"/>
        <path d="M 19.671875 64.796875 
L 19.671875 37.40625 
L 32.078125 37.40625 
Q 38.96875 37.40625 42.71875 40.96875 
Q 46.484375 44.53125 46.484375 51.125 
Q 46.484375 57.671875 42.71875 61.234375 
Q 38.96875 64.796875 32.078125 64.796875 
z
M 9.8125 72.90625 
L 32.078125 72.90625 
Q 44.34375 72.90625 50.609375 67.359375 
Q 56.890625 61.8125 56.890625 51.125 
Q 56.890625 40.328125 50.609375 34.8125 
Q 44.34375 29.296875 32.078125 29.296875 
L 19.671875 29.296875 
L 19.671875 0 
L 9.8125 0 
z
" id="DejaVuSans-80"/>
        <path d="M 30.609375 48.390625 
Q 23.390625 48.390625 19.1875 42.75 
Q 14.984375 37.109375 14.984375 27.296875 
Q 14.984375 17.484375 19.15625 11.84375 
Q 23.34375 6.203125 30.609375 6.203125 
Q 37.796875 6.203125 41.984375 11.859375 
Q 46.1875 17.53125 46.1875 27.296875 
Q 46.1875 37.015625 41.984375 42.703125 
Q 37.796875 48.390625 30.609375 48.390625 
z
M 30.609375 56 
Q 42.328125 56 49.015625 48.375 
Q 55.71875 40.765625 55.71875 27.296875 
Q 55.71875 13.875 49.015625 6.21875 
Q 42.328125 -1.421875 30.609375 -1.421875 
Q 18.84375 -1.421875 12.171875 6.21875 
Q 5.515625 13.875 5.515625 27.296875 
Q 5.515625 40.765625 12.171875 48.375 
Q 18.84375 56 30.609375 56 
z
" id="DejaVuSans-111"/>
        <path d="M 32.171875 -5.078125 
Q 28.375 -14.84375 24.75 -17.8125 
Q 21.140625 -20.796875 15.09375 -20.796875 
L 7.90625 -20.796875 
L 7.90625 -13.28125 
L 13.1875 -13.28125 
Q 16.890625 -13.28125 18.9375 -11.515625 
Q 21 -9.765625 23.484375 -3.21875 
L 25.09375 0.875 
L 2.984375 54.6875 
L 12.5 54.6875 
L 29.59375 11.921875 
L 46.6875 54.6875 
L 56.203125 54.6875 
z
" id="DejaVuSans-121"/>
        <path d="M 4.203125 54.6875 
L 13.1875 54.6875 
L 24.421875 12.015625 
L 35.59375 54.6875 
L 46.1875 54.6875 
L 57.421875 12.015625 
L 68.609375 54.6875 
L 77.59375 54.6875 
L 63.28125 0 
L 52.6875 0 
L 40.921875 44.828125 
L 29.109375 0 
L 18.5 0 
z
" id="DejaVuSans-119"/>
        <path d="M 9.078125 75.984375 
L 18.109375 75.984375 
L 18.109375 31.109375 
L 44.921875 54.6875 
L 56.390625 54.6875 
L 27.390625 29.109375 
L 57.625 0 
L 45.90625 0 
L 18.109375 26.703125 
L 18.109375 0 
L 9.078125 0 
z
" id="DejaVuSans-107"/>
        <path d="M 56.203125 29.59375 
L 56.203125 25.203125 
L 14.890625 25.203125 
Q 15.484375 15.921875 20.484375 11.0625 
Q 25.484375 6.203125 34.421875 6.203125 
Q 39.59375 6.203125 44.453125 7.46875 
Q 49.3125 8.734375 54.109375 11.28125 
L 54.109375 2.78125 
Q 49.265625 0.734375 44.1875 -0.34375 
Q 39.109375 -1.421875 33.890625 -1.421875 
Q 20.796875 -1.421875 13.15625 6.1875 
Q 5.515625 13.8125 5.515625 26.8125 
Q 5.515625 40.234375 12.765625 48.109375 
Q 20.015625 56 32.328125 56 
Q 43.359375 56 49.78125 48.890625 
Q 56.203125 41.796875 56.203125 29.59375 
z
M 47.21875 32.234375 
Q 47.125 39.59375 43.09375 43.984375 
Q 39.0625 48.390625 32.421875 48.390625 
Q 24.90625 48.390625 20.390625 44.140625 
Q 15.875 39.890625 15.1875 32.171875 
z
" id="DejaVuSans-101"/>
       </defs>
       <use xlink:href="#DejaVuSans-70"/>
       <use x="50.269531" xlink:href="#DejaVuSans-105"/>
       <use x="78.052734" xlink:href="#DejaVuSans-114"/>
       <use x="119.166016" xlink:href="#DejaVuSans-115"/>
       <use x="171.265625" xlink:href="#DejaVuSans-116"/>
       <use x="210.474609" xlink:href="#DejaVuSans-58"/>
       <use x="244.166016" xlink:href="#DejaVuSans-32"/>
       <use x="275.953125" xlink:href="#DejaVuSans-80"/>
       <use x="334.505859" xlink:href="#DejaVuSans-114"/>
       <use x="375.619141" xlink:href="#DejaVuSans-105"/>
       <use x="403.402344" xlink:href="#DejaVuSans-111"/>
       <use x="464.583984" xlink:href="#DejaVuSans-114"/>
       <use x="505.697266" xlink:href="#DejaVuSans-105"/>
       <use x="533.480469" xlink:href="#DejaVuSans-116"/>
       <use x="572.689453" xlink:href="#DejaVuSans-121"/>
       <use x="631.869141" xlink:href="#DejaVuSans-32"/>
       <use x="663.65625" xlink:href="#DejaVuSans-119"/>
       <use x="745.443359" xlink:href="#DejaVuSans-111"/>
       <use x="806.625" xlink:href="#DejaVuSans-114"/>
       <use x="847.738281" xlink:href="#DejaVuSans-107"/>
       <use x="902.023438" xlink:href="#DejaVuSans-101"/>
       <use x="963.546875" xlink:href="#DejaVuSans-114"/>
       <use x="1004.660156" xlink:href="#DejaVuSans-115"/>
      </g>
     </g>
    </g>
    <g id="xtick_2">
     <g id="line2d_2">
      <g>
       <use style="stroke:#000000;stroke-width:0.8;" x="235.470313" xlink:href="#m3f9368686c" y="565.918125"/>
      </g>
     </g>
     <g id="text_2">
      <!-- Second: Professionals with advanced degrees or aliens of exceptional ability -->
      <g transform="translate(102.332049 848.469904)rotate(-45)scale(0.1 -0.1)">
       <defs>
        <path d="M 53.515625 70.515625 
L 53.515625 60.890625 
Q 47.90625 63.578125 42.921875 64.890625 
Q 37.9375 66.21875 33.296875 66.21875 
Q 25.25 66.21875 20.875 63.09375 
Q 16.5 59.96875 16.5 54.203125 
Q 16.5 49.359375 19.40625 46.890625 
Q 22.3125 44.4375 30.421875 42.921875 
L 36.375 41.703125 
Q 47.40625 39.59375 52.65625 34.296875 
Q 57.90625 29 57.90625 20.125 
Q 57.90625 9.515625 50.796875 4.046875 
Q 43.703125 -1.421875 29.984375 -1.421875 
Q 24.8125 -1.421875 18.96875 -0.25 
Q 13.140625 0.921875 6.890625 3.21875 
L 6.890625 13.375 
Q 12.890625 10.015625 18.65625 8.296875 
Q 24.421875 6.59375 29.984375 6.59375 
Q 38.421875 6.59375 43.015625 9.90625 
Q 47.609375 13.234375 47.609375 19.390625 
Q 47.609375 24.75 44.3125 27.78125 
Q 41.015625 30.8125 33.5 32.328125 
L 27.484375 33.5 
Q 16.453125 35.6875 11.515625 40.375 
Q 6.59375 45.0625 6.59375 53.421875 
Q 6.59375 63.09375 13.40625 68.65625 
Q 20.21875 74.21875 32.171875 74.21875 
Q 37.3125 74.21875 42.625 73.28125 
Q 47.953125 72.359375 53.515625 70.515625 
z
" id="DejaVuSans-83"/>
        <path d="M 48.78125 52.59375 
L 48.78125 44.1875 
Q 44.96875 46.296875 41.140625 47.34375 
Q 37.3125 48.390625 33.40625 48.390625 
Q 24.65625 48.390625 19.8125 42.84375 
Q 14.984375 37.3125 14.984375 27.296875 
Q 14.984375 17.28125 19.8125 11.734375 
Q 24.65625 6.203125 33.40625 6.203125 
Q 37.3125 6.203125 41.140625 7.25 
Q 44.96875 8.296875 48.78125 10.40625 
L 48.78125 2.09375 
Q 45.015625 0.34375 40.984375 -0.53125 
Q 36.96875 -1.421875 32.421875 -1.421875 
Q 20.0625 -1.421875 12.78125 6.34375 
Q 5.515625 14.109375 5.515625 27.296875 
Q 5.515625 40.671875 12.859375 48.328125 
Q 20.21875 56 33.015625 56 
Q 37.15625 56 41.109375 55.140625 
Q 45.0625 54.296875 48.78125 52.59375 
z
" id="DejaVuSans-99"/>
        <path d="M 54.890625 33.015625 
L 54.890625 0 
L 45.90625 0 
L 45.90625 32.71875 
Q 45.90625 40.484375 42.875 44.328125 
Q 39.84375 48.1875 33.796875 48.1875 
Q 26.515625 48.1875 22.3125 43.546875 
Q 18.109375 38.921875 18.109375 30.90625 
L 18.109375 0 
L 9.078125 0 
L 9.078125 54.6875 
L 18.109375 54.6875 
L 18.109375 46.1875 
Q 21.34375 51.125 25.703125 53.5625 
Q 30.078125 56 35.796875 56 
Q 45.21875 56 50.046875 50.171875 
Q 54.890625 44.34375 54.890625 33.015625 
z
" id="DejaVuSans-110"/>
        <path d="M 45.40625 46.390625 
L 45.40625 75.984375 
L 54.390625 75.984375 
L 54.390625 0 
L 45.40625 0 
L 45.40625 8.203125 
Q 42.578125 3.328125 38.25 0.953125 
Q 33.9375 -1.421875 27.875 -1.421875 
Q 17.96875 -1.421875 11.734375 6.484375 
Q 5.515625 14.40625 5.515625 27.296875 
Q 5.515625 40.1875 11.734375 48.09375 
Q 17.96875 56 27.875 56 
Q 33.9375 56 38.25 53.625 
Q 42.578125 51.265625 45.40625 46.390625 
z
M 14.796875 27.296875 
Q 14.796875 17.390625 18.875 11.75 
Q 22.953125 6.109375 30.078125 6.109375 
Q 37.203125 6.109375 41.296875 11.75 
Q 45.40625 17.390625 45.40625 27.296875 
Q 45.40625 37.203125 41.296875 42.84375 
Q 37.203125 48.484375 30.078125 48.484375 
Q 22.953125 48.484375 18.875 42.84375 
Q 14.796875 37.203125 14.796875 27.296875 
z
" id="DejaVuSans-100"/>
        <path d="M 37.109375 75.984375 
L 37.109375 68.5 
L 28.515625 68.5 
Q 23.6875 68.5 21.796875 66.546875 
Q 19.921875 64.59375 19.921875 59.515625 
L 19.921875 54.6875 
L 34.71875 54.6875 
L 34.71875 47.703125 
L 19.921875 47.703125 
L 19.921875 0 
L 10.890625 0 
L 10.890625 47.703125 
L 2.296875 47.703125 
L 2.296875 54.6875 
L 10.890625 54.6875 
L 10.890625 58.5 
Q 10.890625 67.625 15.140625 71.796875 
Q 19.390625 75.984375 28.609375 75.984375 
z
" id="DejaVuSans-102"/>
        <path d="M 34.28125 27.484375 
Q 23.390625 27.484375 19.1875 25 
Q 14.984375 22.515625 14.984375 16.5 
Q 14.984375 11.71875 18.140625 8.90625 
Q 21.296875 6.109375 26.703125 6.109375 
Q 34.1875 6.109375 38.703125 11.40625 
Q 43.21875 16.703125 43.21875 25.484375 
L 43.21875 27.484375 
z
M 52.203125 31.203125 
L 52.203125 0 
L 43.21875 0 
L 43.21875 8.296875 
Q 40.140625 3.328125 35.546875 0.953125 
Q 30.953125 -1.421875 24.3125 -1.421875 
Q 15.921875 -1.421875 10.953125 3.296875 
Q 6 8.015625 6 15.921875 
Q 6 25.140625 12.171875 29.828125 
Q 18.359375 34.515625 30.609375 34.515625 
L 43.21875 34.515625 
L 43.21875 35.40625 
Q 43.21875 41.609375 39.140625 45 
Q 35.0625 48.390625 27.6875 48.390625 
Q 23 48.390625 18.546875 47.265625 
Q 14.109375 46.140625 10.015625 43.890625 
L 10.015625 52.203125 
Q 14.9375 54.109375 19.578125 55.046875 
Q 24.21875 56 28.609375 56 
Q 40.484375 56 46.34375 49.84375 
Q 52.203125 43.703125 52.203125 31.203125 
z
" id="DejaVuSans-97"/>
        <path d="M 9.421875 75.984375 
L 18.40625 75.984375 
L 18.40625 0 
L 9.421875 0 
z
" id="DejaVuSans-108"/>
        <path d="M 54.890625 33.015625 
L 54.890625 0 
L 45.90625 0 
L 45.90625 32.71875 
Q 45.90625 40.484375 42.875 44.328125 
Q 39.84375 48.1875 33.796875 48.1875 
Q 26.515625 48.1875 22.3125 43.546875 
Q 18.109375 38.921875 18.109375 30.90625 
L 18.109375 0 
L 9.078125 0 
L 9.078125 75.984375 
L 18.109375 75.984375 
L 18.109375 46.1875 
Q 21.34375 51.125 25.703125 53.5625 
Q 30.078125 56 35.796875 56 
Q 45.21875 56 50.046875 50.171875 
Q 54.890625 44.34375 54.890625 33.015625 
z
" id="DejaVuSans-104"/>
        <path d="M 2.984375 54.6875 
L 12.5 54.6875 
L 29.59375 8.796875 
L 46.6875 54.6875 
L 56.203125 54.6875 
L 35.6875 0 
L 23.484375 0 
z
" id="DejaVuSans-118"/>
        <path d="M 45.40625 27.984375 
Q 45.40625 37.75 41.375 43.109375 
Q 37.359375 48.484375 30.078125 48.484375 
Q 22.859375 48.484375 18.828125 43.109375 
Q 14.796875 37.75 14.796875 27.984375 
Q 14.796875 18.265625 18.828125 12.890625 
Q 22.859375 7.515625 30.078125 7.515625 
Q 37.359375 7.515625 41.375 12.890625 
Q 45.40625 18.265625 45.40625 27.984375 
z
M 54.390625 6.78125 
Q 54.390625 -7.171875 48.1875 -13.984375 
Q 42 -20.796875 29.203125 -20.796875 
Q 24.46875 -20.796875 20.265625 -20.09375 
Q 16.0625 -19.390625 12.109375 -17.921875 
L 12.109375 -9.1875 
Q 16.0625 -11.328125 19.921875 -12.34375 
Q 23.78125 -13.375 27.78125 -13.375 
Q 36.625 -13.375 41.015625 -8.765625 
Q 45.40625 -4.15625 45.40625 5.171875 
L 45.40625 9.625 
Q 42.625 4.78125 38.28125 2.390625 
Q 33.9375 0 27.875 0 
Q 17.828125 0 11.671875 7.65625 
Q 5.515625 15.328125 5.515625 27.984375 
Q 5.515625 40.671875 11.671875 48.328125 
Q 17.828125 56 27.875 56 
Q 33.9375 56 38.28125 53.609375 
Q 42.625 51.21875 45.40625 46.390625 
L 45.40625 54.6875 
L 54.390625 54.6875 
z
" id="DejaVuSans-103"/>
        <path d="M 54.890625 54.6875 
L 35.109375 28.078125 
L 55.90625 0 
L 45.3125 0 
L 29.390625 21.484375 
L 13.484375 0 
L 2.875 0 
L 24.125 28.609375 
L 4.6875 54.6875 
L 15.28125 54.6875 
L 29.78125 35.203125 
L 44.28125 54.6875 
z
" id="DejaVuSans-120"/>
        <path d="M 18.109375 8.203125 
L 18.109375 -20.796875 
L 9.078125 -20.796875 
L 9.078125 54.6875 
L 18.109375 54.6875 
L 18.109375 46.390625 
Q 20.953125 51.265625 25.265625 53.625 
Q 29.59375 56 35.59375 56 
Q 45.5625 56 51.78125 48.09375 
Q 58.015625 40.1875 58.015625 27.296875 
Q 58.015625 14.40625 51.78125 6.484375 
Q 45.5625 -1.421875 35.59375 -1.421875 
Q 29.59375 -1.421875 25.265625 0.953125 
Q 20.953125 3.328125 18.109375 8.203125 
z
M 48.6875 27.296875 
Q 48.6875 37.203125 44.609375 42.84375 
Q 40.53125 48.484375 33.40625 48.484375 
Q 26.265625 48.484375 22.1875 42.84375 
Q 18.109375 37.203125 18.109375 27.296875 
Q 18.109375 17.390625 22.1875 11.75 
Q 26.265625 6.109375 33.40625 6.109375 
Q 40.53125 6.109375 44.609375 11.75 
Q 48.6875 17.390625 48.6875 27.296875 
z
" id="DejaVuSans-112"/>
        <path d="M 48.6875 27.296875 
Q 48.6875 37.203125 44.609375 42.84375 
Q 40.53125 48.484375 33.40625 48.484375 
Q 26.265625 48.484375 22.1875 42.84375 
Q 18.109375 37.203125 18.109375 27.296875 
Q 18.109375 17.390625 22.1875 11.75 
Q 26.265625 6.109375 33.40625 6.109375 
Q 40.53125 6.109375 44.609375 11.75 
Q 48.6875 17.390625 48.6875 27.296875 
z
M 18.109375 46.390625 
Q 20.953125 51.265625 25.265625 53.625 
Q 29.59375 56 35.59375 56 
Q 45.5625 56 51.78125 48.09375 
Q 58.015625 40.1875 58.015625 27.296875 
Q 58.015625 14.40625 51.78125 6.484375 
Q 45.5625 -1.421875 35.59375 -1.421875 
Q 29.59375 -1.421875 25.265625 0.953125 
Q 20.953125 3.328125 18.109375 8.203125 
L 18.109375 0 
L 9.078125 0 
L 9.078125 75.984375 
L 18.109375 75.984375 
z
" id="DejaVuSans-98"/>
       </defs>
       <use xlink:href="#DejaVuSans-83"/>
       <use x="63.476562" xlink:href="#DejaVuSans-101"/>
       <use x="125" xlink:href="#DejaVuSans-99"/>
       <use x="179.980469" xlink:href="#DejaVuSans-111"/>
       <use x="241.162109" xlink:href="#DejaVuSans-110"/>
       <use x="304.541016" xlink:href="#DejaVuSans-100"/>
       <use x="368.017578" xlink:href="#DejaVuSans-58"/>
       <use x="401.708984" xlink:href="#DejaVuSans-32"/>
       <use x="433.496094" xlink:href="#DejaVuSans-80"/>
       <use x="492.048828" xlink:href="#DejaVuSans-114"/>
       <use x="530.912109" xlink:href="#DejaVuSans-111"/>
       <use x="592.09375" xlink:href="#DejaVuSans-102"/>
       <use x="627.298828" xlink:href="#DejaVuSans-101"/>
       <use x="688.822266" xlink:href="#DejaVuSans-115"/>
       <use x="740.921875" xlink:href="#DejaVuSans-115"/>
       <use x="793.021484" xlink:href="#DejaVuSans-105"/>
       <use x="820.804688" xlink:href="#DejaVuSans-111"/>
       <use x="881.986328" xlink:href="#DejaVuSans-110"/>
       <use x="945.365234" xlink:href="#DejaVuSans-97"/>
       <use x="1006.644531" xlink:href="#DejaVuSans-108"/>
       <use x="1034.427734" xlink:href="#DejaVuSans-115"/>
       <use x="1086.527344" xlink:href="#DejaVuSans-32"/>
       <use x="1118.314453" xlink:href="#DejaVuSans-119"/>
       <use x="1200.101562" xlink:href="#DejaVuSans-105"/>
       <use x="1227.884766" xlink:href="#DejaVuSans-116"/>
       <use x="1267.09375" xlink:href="#DejaVuSans-104"/>
       <use x="1330.472656" xlink:href="#DejaVuSans-32"/>
       <use x="1362.259766" xlink:href="#DejaVuSans-97"/>
       <use x="1423.539062" xlink:href="#DejaVuSans-100"/>
       <use x="1487.015625" xlink:href="#DejaVuSans-118"/>
       <use x="1546.195312" xlink:href="#DejaVuSans-97"/>
       <use x="1607.474609" xlink:href="#DejaVuSans-110"/>
       <use x="1670.853516" xlink:href="#DejaVuSans-99"/>
       <use x="1725.833984" xlink:href="#DejaVuSans-101"/>
       <use x="1787.357422" xlink:href="#DejaVuSans-100"/>
       <use x="1850.833984" xlink:href="#DejaVuSans-32"/>
       <use x="1882.621094" xlink:href="#DejaVuSans-100"/>
       <use x="1946.097656" xlink:href="#DejaVuSans-101"/>
       <use x="2007.621094" xlink:href="#DejaVuSans-103"/>
       <use x="2071.097656" xlink:href="#DejaVuSans-114"/>
       <use x="2109.960938" xlink:href="#DejaVuSans-101"/>
       <use x="2171.484375" xlink:href="#DejaVuSans-101"/>
       <use x="2233.007812" xlink:href="#DejaVuSans-115"/>
       <use x="2285.107422" xlink:href="#DejaVuSans-32"/>
       <use x="2316.894531" xlink:href="#DejaVuSans-111"/>
       <use x="2378.076172" xlink:href="#DejaVuSans-114"/>
       <use x="2419.189453" xlink:href="#DejaVuSans-32"/>
       <use x="2450.976562" xlink:href="#DejaVuSans-97"/>
       <use x="2512.255859" xlink:href="#DejaVuSans-108"/>
       <use x="2540.039062" xlink:href="#DejaVuSans-105"/>
       <use x="2567.822266" xlink:href="#DejaVuSans-101"/>
       <use x="2629.345703" xlink:href="#DejaVuSans-110"/>
       <use x="2692.724609" xlink:href="#DejaVuSans-115"/>
       <use x="2744.824219" xlink:href="#DejaVuSans-32"/>
       <use x="2776.611328" xlink:href="#DejaVuSans-111"/>
       <use x="2837.792969" xlink:href="#DejaVuSans-102"/>
       <use x="2872.998047" xlink:href="#DejaVuSans-32"/>
       <use x="2904.785156" xlink:href="#DejaVuSans-101"/>
       <use x="2964.558594" xlink:href="#DejaVuSans-120"/>
       <use x="3021.988281" xlink:href="#DejaVuSans-99"/>
       <use x="3076.96875" xlink:href="#DejaVuSans-101"/>
       <use x="3138.492188" xlink:href="#DejaVuSans-112"/>
       <use x="3201.96875" xlink:href="#DejaVuSans-116"/>
       <use x="3241.177734" xlink:href="#DejaVuSans-105"/>
       <use x="3268.960938" xlink:href="#DejaVuSans-111"/>
       <use x="3330.142578" xlink:href="#DejaVuSans-110"/>
       <use x="3393.521484" xlink:href="#DejaVuSans-97"/>
       <use x="3454.800781" xlink:href="#DejaVuSans-108"/>
       <use x="3482.583984" xlink:href="#DejaVuSans-32"/>
       <use x="3514.371094" xlink:href="#DejaVuSans-97"/>
       <use x="3575.650391" xlink:href="#DejaVuSans-98"/>
       <use x="3639.126953" xlink:href="#DejaVuSans-105"/>
       <use x="3666.910156" xlink:href="#DejaVuSans-108"/>
       <use x="3694.693359" xlink:href="#DejaVuSans-105"/>
       <use x="3722.476562" xlink:href="#DejaVuSans-116"/>
       <use x="3761.685547" xlink:href="#DejaVuSans-121"/>
      </g>
     </g>
    </g>
    <g id="xtick_3">
     <g id="line2d_3">
      <g>
       <use style="stroke:#000000;stroke-width:0.8;" x="347.070312" xlink:href="#m3f9368686c" y="565.918125"/>
      </g>
     </g>
     <g id="text_3">
      <!-- Third: Skilled workers professionals and unskilled workers -->
      <g transform="translate(246.964985 782.404033)rotate(-45)scale(0.1 -0.1)">
       <defs>
        <path d="M -0.296875 72.90625 
L 61.375 72.90625 
L 61.375 64.59375 
L 35.5 64.59375 
L 35.5 0 
L 25.59375 0 
L 25.59375 64.59375 
L -0.296875 64.59375 
z
" id="DejaVuSans-84"/>
        <path d="M 8.5 21.578125 
L 8.5 54.6875 
L 17.484375 54.6875 
L 17.484375 21.921875 
Q 17.484375 14.15625 20.5 10.265625 
Q 23.53125 6.390625 29.59375 6.390625 
Q 36.859375 6.390625 41.078125 11.03125 
Q 45.3125 15.671875 45.3125 23.6875 
L 45.3125 54.6875 
L 54.296875 54.6875 
L 54.296875 0 
L 45.3125 0 
L 45.3125 8.40625 
Q 42.046875 3.421875 37.71875 1 
Q 33.40625 -1.421875 27.6875 -1.421875 
Q 18.265625 -1.421875 13.375 4.4375 
Q 8.5 10.296875 8.5 21.578125 
z
M 31.109375 56 
z
" id="DejaVuSans-117"/>
       </defs>
       <use xlink:href="#DejaVuSans-84"/>
       <use x="61.083984" xlink:href="#DejaVuSans-104"/>
       <use x="124.462891" xlink:href="#DejaVuSans-105"/>
       <use x="152.246094" xlink:href="#DejaVuSans-114"/>
       <use x="191.609375" xlink:href="#DejaVuSans-100"/>
       <use x="255.085938" xlink:href="#DejaVuSans-58"/>
       <use x="288.777344" xlink:href="#DejaVuSans-32"/>
       <use x="320.564453" xlink:href="#DejaVuSans-83"/>
       <use x="384.041016" xlink:href="#DejaVuSans-107"/>
       <use x="441.951172" xlink:href="#DejaVuSans-105"/>
       <use x="469.734375" xlink:href="#DejaVuSans-108"/>
       <use x="497.517578" xlink:href="#DejaVuSans-108"/>
       <use x="525.300781" xlink:href="#DejaVuSans-101"/>
       <use x="586.824219" xlink:href="#DejaVuSans-100"/>
       <use x="650.300781" xlink:href="#DejaVuSans-32"/>
       <use x="682.087891" xlink:href="#DejaVuSans-119"/>
       <use x="763.875" xlink:href="#DejaVuSans-111"/>
       <use x="825.056641" xlink:href="#DejaVuSans-114"/>
       <use x="866.169922" xlink:href="#DejaVuSans-107"/>
       <use x="920.455078" xlink:href="#DejaVuSans-101"/>
       <use x="981.978516" xlink:href="#DejaVuSans-114"/>
       <use x="1023.091797" xlink:href="#DejaVuSans-115"/>
       <use x="1075.191406" xlink:href="#DejaVuSans-32"/>
       <use x="1106.978516" xlink:href="#DejaVuSans-112"/>
       <use x="1170.455078" xlink:href="#DejaVuSans-114"/>
       <use x="1209.318359" xlink:href="#DejaVuSans-111"/>
       <use x="1270.5" xlink:href="#DejaVuSans-102"/>
       <use x="1305.705078" xlink:href="#DejaVuSans-101"/>
       <use x="1367.228516" xlink:href="#DejaVuSans-115"/>
       <use x="1419.328125" xlink:href="#DejaVuSans-115"/>
       <use x="1471.427734" xlink:href="#DejaVuSans-105"/>
       <use x="1499.210938" xlink:href="#DejaVuSans-111"/>
       <use x="1560.392578" xlink:href="#DejaVuSans-110"/>
       <use x="1623.771484" xlink:href="#DejaVuSans-97"/>
       <use x="1685.050781" xlink:href="#DejaVuSans-108"/>
       <use x="1712.833984" xlink:href="#DejaVuSans-115"/>
       <use x="1764.933594" xlink:href="#DejaVuSans-32"/>
       <use x="1796.720703" xlink:href="#DejaVuSans-97"/>
       <use x="1858" xlink:href="#DejaVuSans-110"/>
       <use x="1921.378906" xlink:href="#DejaVuSans-100"/>
       <use x="1984.855469" xlink:href="#DejaVuSans-32"/>
       <use x="2016.642578" xlink:href="#DejaVuSans-117"/>
       <use x="2080.021484" xlink:href="#DejaVuSans-110"/>
       <use x="2143.400391" xlink:href="#DejaVuSans-115"/>
       <use x="2195.5" xlink:href="#DejaVuSans-107"/>
       <use x="2253.410156" xlink:href="#DejaVuSans-105"/>
       <use x="2281.193359" xlink:href="#DejaVuSans-108"/>
       <use x="2308.976562" xlink:href="#DejaVuSans-108"/>
       <use x="2336.759766" xlink:href="#DejaVuSans-101"/>
       <use x="2398.283203" xlink:href="#DejaVuSans-100"/>
       <use x="2461.759766" xlink:href="#DejaVuSans-32"/>
       <use x="2493.546875" xlink:href="#DejaVuSans-119"/>
       <use x="2575.333984" xlink:href="#DejaVuSans-111"/>
       <use x="2636.515625" xlink:href="#DejaVuSans-114"/>
       <use x="2677.628906" xlink:href="#DejaVuSans-107"/>
       <use x="2731.914062" xlink:href="#DejaVuSans-101"/>
       <use x="2793.4375" xlink:href="#DejaVuSans-114"/>
       <use x="2834.550781" xlink:href="#DejaVuSans-115"/>
      </g>
     </g>
    </g>
    <g id="xtick_4">
     <g id="line2d_4">
      <g>
       <use style="stroke:#000000;stroke-width:0.8;" x="458.670313" xlink:href="#m3f9368686c" y="565.918125"/>
      </g>
     </g>
     <g id="text_4">
      <!-- Fourth: Certain special immigrants -->
      <g transform="translate(399.275 700.984002)rotate(-45)scale(0.1 -0.1)">
       <defs>
        <path d="M 64.40625 67.28125 
L 64.40625 56.890625 
Q 59.421875 61.53125 53.78125 63.8125 
Q 48.140625 66.109375 41.796875 66.109375 
Q 29.296875 66.109375 22.65625 58.46875 
Q 16.015625 50.828125 16.015625 36.375 
Q 16.015625 21.96875 22.65625 14.328125 
Q 29.296875 6.6875 41.796875 6.6875 
Q 48.140625 6.6875 53.78125 8.984375 
Q 59.421875 11.28125 64.40625 15.921875 
L 64.40625 5.609375 
Q 59.234375 2.09375 53.4375 0.328125 
Q 47.65625 -1.421875 41.21875 -1.421875 
Q 24.65625 -1.421875 15.125 8.703125 
Q 5.609375 18.84375 5.609375 36.375 
Q 5.609375 53.953125 15.125 64.078125 
Q 24.65625 74.21875 41.21875 74.21875 
Q 47.75 74.21875 53.53125 72.484375 
Q 59.328125 70.75 64.40625 67.28125 
z
" id="DejaVuSans-67"/>
        <path d="M 52 44.1875 
Q 55.375 50.25 60.0625 53.125 
Q 64.75 56 71.09375 56 
Q 79.640625 56 84.28125 50.015625 
Q 88.921875 44.046875 88.921875 33.015625 
L 88.921875 0 
L 79.890625 0 
L 79.890625 32.71875 
Q 79.890625 40.578125 77.09375 44.375 
Q 74.3125 48.1875 68.609375 48.1875 
Q 61.625 48.1875 57.5625 43.546875 
Q 53.515625 38.921875 53.515625 30.90625 
L 53.515625 0 
L 44.484375 0 
L 44.484375 32.71875 
Q 44.484375 40.625 41.703125 44.40625 
Q 38.921875 48.1875 33.109375 48.1875 
Q 26.21875 48.1875 22.15625 43.53125 
Q 18.109375 38.875 18.109375 30.90625 
L 18.109375 0 
L 9.078125 0 
L 9.078125 54.6875 
L 18.109375 54.6875 
L 18.109375 46.1875 
Q 21.1875 51.21875 25.484375 53.609375 
Q 29.78125 56 35.6875 56 
Q 41.65625 56 45.828125 52.96875 
Q 50 49.953125 52 44.1875 
z
" id="DejaVuSans-109"/>
       </defs>
       <use xlink:href="#DejaVuSans-70"/>
       <use x="53.894531" xlink:href="#DejaVuSans-111"/>
       <use x="115.076172" xlink:href="#DejaVuSans-117"/>
       <use x="178.455078" xlink:href="#DejaVuSans-114"/>
       <use x="219.568359" xlink:href="#DejaVuSans-116"/>
       <use x="258.777344" xlink:href="#DejaVuSans-104"/>
       <use x="322.15625" xlink:href="#DejaVuSans-58"/>
       <use x="355.847656" xlink:href="#DejaVuSans-32"/>
       <use x="387.634766" xlink:href="#DejaVuSans-67"/>
       <use x="457.458984" xlink:href="#DejaVuSans-101"/>
       <use x="518.982422" xlink:href="#DejaVuSans-114"/>
       <use x="560.095703" xlink:href="#DejaVuSans-116"/>
       <use x="599.304688" xlink:href="#DejaVuSans-97"/>
       <use x="660.583984" xlink:href="#DejaVuSans-105"/>
       <use x="688.367188" xlink:href="#DejaVuSans-110"/>
       <use x="751.746094" xlink:href="#DejaVuSans-32"/>
       <use x="783.533203" xlink:href="#DejaVuSans-115"/>
       <use x="835.632812" xlink:href="#DejaVuSans-112"/>
       <use x="899.109375" xlink:href="#DejaVuSans-101"/>
       <use x="960.632812" xlink:href="#DejaVuSans-99"/>
       <use x="1015.613281" xlink:href="#DejaVuSans-105"/>
       <use x="1043.396484" xlink:href="#DejaVuSans-97"/>
       <use x="1104.675781" xlink:href="#DejaVuSans-108"/>
       <use x="1132.458984" xlink:href="#DejaVuSans-32"/>
       <use x="1164.246094" xlink:href="#DejaVuSans-105"/>
       <use x="1192.029297" xlink:href="#DejaVuSans-109"/>
       <use x="1289.441406" xlink:href="#DejaVuSans-109"/>
       <use x="1386.853516" xlink:href="#DejaVuSans-105"/>
       <use x="1414.636719" xlink:href="#DejaVuSans-103"/>
       <use x="1478.113281" xlink:href="#DejaVuSans-114"/>
       <use x="1519.226562" xlink:href="#DejaVuSans-97"/>
       <use x="1580.505859" xlink:href="#DejaVuSans-110"/>
       <use x="1643.884766" xlink:href="#DejaVuSans-116"/>
       <use x="1683.09375" xlink:href="#DejaVuSans-115"/>
      </g>
     </g>
    </g>
    <g id="xtick_5">
     <g id="line2d_5">
      <g>
       <use style="stroke:#000000;stroke-width:0.8;" x="570.270313" xlink:href="#m3f9368686c" y="565.918125"/>
      </g>
     </g>
     <g id="text_5">
      <!-- Fifth: Employment creation (investors) -->
      <g transform="translate(504.316032 714.101938)rotate(-45)scale(0.1 -0.1)">
       <defs>
        <path d="M 9.8125 72.90625 
L 55.90625 72.90625 
L 55.90625 64.59375 
L 19.671875 64.59375 
L 19.671875 43.015625 
L 54.390625 43.015625 
L 54.390625 34.71875 
L 19.671875 34.71875 
L 19.671875 8.296875 
L 56.78125 8.296875 
L 56.78125 0 
L 9.8125 0 
z
" id="DejaVuSans-69"/>
        <path d="M 31 75.875 
Q 24.46875 64.65625 21.28125 53.65625 
Q 18.109375 42.671875 18.109375 31.390625 
Q 18.109375 20.125 21.3125 9.0625 
Q 24.515625 -2 31 -13.1875 
L 23.1875 -13.1875 
Q 15.875 -1.703125 12.234375 9.375 
Q 8.59375 20.453125 8.59375 31.390625 
Q 8.59375 42.28125 12.203125 53.3125 
Q 15.828125 64.359375 23.1875 75.875 
z
" id="DejaVuSans-40"/>
        <path d="M 8.015625 75.875 
L 15.828125 75.875 
Q 23.140625 64.359375 26.78125 53.3125 
Q 30.421875 42.28125 30.421875 31.390625 
Q 30.421875 20.453125 26.78125 9.375 
Q 23.140625 -1.703125 15.828125 -13.1875 
L 8.015625 -13.1875 
Q 14.5 -2 17.703125 9.0625 
Q 20.90625 20.125 20.90625 31.390625 
Q 20.90625 42.671875 17.703125 53.65625 
Q 14.5 64.65625 8.015625 75.875 
z
" id="DejaVuSans-41"/>
       </defs>
       <use xlink:href="#DejaVuSans-70"/>
       <use x="50.269531" xlink:href="#DejaVuSans-105"/>
       <use x="78.052734" xlink:href="#DejaVuSans-102"/>
       <use x="111.507812" xlink:href="#DejaVuSans-116"/>
       <use x="150.716797" xlink:href="#DejaVuSans-104"/>
       <use x="214.095703" xlink:href="#DejaVuSans-58"/>
       <use x="247.787109" xlink:href="#DejaVuSans-32"/>
       <use x="279.574219" xlink:href="#DejaVuSans-69"/>
       <use x="342.757812" xlink:href="#DejaVuSans-109"/>
       <use x="440.169922" xlink:href="#DejaVuSans-112"/>
       <use x="503.646484" xlink:href="#DejaVuSans-108"/>
       <use x="531.429688" xlink:href="#DejaVuSans-111"/>
       <use x="592.611328" xlink:href="#DejaVuSans-121"/>
       <use x="651.791016" xlink:href="#DejaVuSans-109"/>
       <use x="749.203125" xlink:href="#DejaVuSans-101"/>
       <use x="810.726562" xlink:href="#DejaVuSans-110"/>
       <use x="874.105469" xlink:href="#DejaVuSans-116"/>
       <use x="913.314453" xlink:href="#DejaVuSans-32"/>
       <use x="945.101562" xlink:href="#DejaVuSans-99"/>
       <use x="1000.082031" xlink:href="#DejaVuSans-114"/>
       <use x="1038.945312" xlink:href="#DejaVuSans-101"/>
       <use x="1100.46875" xlink:href="#DejaVuSans-97"/>
       <use x="1161.748047" xlink:href="#DejaVuSans-116"/>
       <use x="1200.957031" xlink:href="#DejaVuSans-105"/>
       <use x="1228.740234" xlink:href="#DejaVuSans-111"/>
       <use x="1289.921875" xlink:href="#DejaVuSans-110"/>
       <use x="1353.300781" xlink:href="#DejaVuSans-32"/>
       <use x="1385.087891" xlink:href="#DejaVuSans-40"/>
       <use x="1424.101562" xlink:href="#DejaVuSans-105"/>
       <use x="1451.884766" xlink:href="#DejaVuSans-110"/>
       <use x="1515.263672" xlink:href="#DejaVuSans-118"/>
       <use x="1574.443359" xlink:href="#DejaVuSans-101"/>
       <use x="1635.966797" xlink:href="#DejaVuSans-115"/>
       <use x="1688.066406" xlink:href="#DejaVuSans-116"/>
       <use x="1727.275391" xlink:href="#DejaVuSans-111"/>
       <use x="1788.457031" xlink:href="#DejaVuSans-114"/>
       <use x="1829.570312" xlink:href="#DejaVuSans-115"/>
       <use x="1881.669922" xlink:href="#DejaVuSans-41"/>
      </g>
     </g>
    </g>
    <g id="xtick_6">
     <g id="line2d_6">
      <g>
       <use style="stroke:#000000;stroke-width:0.8;" x="681.870312" xlink:href="#m3f9368686c" y="565.918125"/>
      </g>
     </g>
     <g id="text_6">
      <!-- First: Priority workers -->
      <g transform="translate(646.461388 653.011226)rotate(-45)scale(0.1 -0.1)">
       <use xlink:href="#DejaVuSans-70"/>
       <use x="50.269531" xlink:href="#DejaVuSans-105"/>
       <use x="78.052734" xlink:href="#DejaVuSans-114"/>
       <use x="119.166016" xlink:href="#DejaVuSans-115"/>
       <use x="171.265625" xlink:href="#DejaVuSans-116"/>
       <use x="210.474609" xlink:href="#DejaVuSans-58"/>
       <use x="244.166016" xlink:href="#DejaVuSans-32"/>
       <use x="275.953125" xlink:href="#DejaVuSans-80"/>
       <use x="334.505859" xlink:href="#DejaVuSans-114"/>
       <use x="375.619141" xlink:href="#DejaVuSans-105"/>
       <use x="403.402344" xlink:href="#DejaVuSans-111"/>
       <use x="464.583984" xlink:href="#DejaVuSans-114"/>
       <use x="505.697266" xlink:href="#DejaVuSans-105"/>
       <use x="533.480469" xlink:href="#DejaVuSans-116"/>
       <use x="572.689453" xlink:href="#DejaVuSans-121"/>
       <use x="631.869141" xlink:href="#DejaVuSans-32"/>
       <use x="663.65625" xlink:href="#DejaVuSans-119"/>
       <use x="745.443359" xlink:href="#DejaVuSans-111"/>
       <use x="806.625" xlink:href="#DejaVuSans-114"/>
       <use x="847.738281" xlink:href="#DejaVuSans-107"/>
       <use x="902.023438" xlink:href="#DejaVuSans-101"/>
       <use x="963.546875" xlink:href="#DejaVuSans-114"/>
       <use x="1004.660156" xlink:href="#DejaVuSans-115"/>
      </g>
     </g>
    </g>
    <g id="xtick_7">
     <g id="line2d_7">
      <g>
       <use style="stroke:#000000;stroke-width:0.8;" x="793.470313" xlink:href="#m3f9368686c" y="565.918125"/>
      </g>
     </g>
     <g id="text_7">
      <!-- Second: Professionals with advanced degrees or aliens of exceptional ability -->
      <g transform="translate(660.332049 848.469904)rotate(-45)scale(0.1 -0.1)">
       <use xlink:href="#DejaVuSans-83"/>
       <use x="63.476562" xlink:href="#DejaVuSans-101"/>
       <use x="125" xlink:href="#DejaVuSans-99"/>
       <use x="179.980469" xlink:href="#DejaVuSans-111"/>
       <use x="241.162109" xlink:href="#DejaVuSans-110"/>
       <use x="304.541016" xlink:href="#DejaVuSans-100"/>
       <use x="368.017578" xlink:href="#DejaVuSans-58"/>
       <use x="401.708984" xlink:href="#DejaVuSans-32"/>
       <use x="433.496094" xlink:href="#DejaVuSans-80"/>
       <use x="492.048828" xlink:href="#DejaVuSans-114"/>
       <use x="530.912109" xlink:href="#DejaVuSans-111"/>
       <use x="592.09375" xlink:href="#DejaVuSans-102"/>
       <use x="627.298828" xlink:href="#DejaVuSans-101"/>
       <use x="688.822266" xlink:href="#DejaVuSans-115"/>
       <use x="740.921875" xlink:href="#DejaVuSans-115"/>
       <use x="793.021484" xlink:href="#DejaVuSans-105"/>
       <use x="820.804688" xlink:href="#DejaVuSans-111"/>
       <use x="881.986328" xlink:href="#DejaVuSans-110"/>
       <use x="945.365234" xlink:href="#DejaVuSans-97"/>
       <use x="1006.644531" xlink:href="#DejaVuSans-108"/>
       <use x="1034.427734" xlink:href="#DejaVuSans-115"/>
       <use x="1086.527344" xlink:href="#DejaVuSans-32"/>
       <use x="1118.314453" xlink:href="#DejaVuSans-119"/>
       <use x="1200.101562" xlink:href="#DejaVuSans-105"/>
       <use x="1227.884766" xlink:href="#DejaVuSans-116"/>
       <use x="1267.09375" xlink:href="#DejaVuSans-104"/>
       <use x="1330.472656" xlink:href="#DejaVuSans-32"/>
       <use x="1362.259766" xlink:href="#DejaVuSans-97"/>
       <use x="1423.539062" xlink:href="#DejaVuSans-100"/>
       <use x="1487.015625" xlink:href="#DejaVuSans-118"/>
       <use x="1546.195312" xlink:href="#DejaVuSans-97"/>
       <use x="1607.474609" xlink:href="#DejaVuSans-110"/>
       <use x="1670.853516" xlink:href="#DejaVuSans-99"/>
       <use x="1725.833984" xlink:href="#DejaVuSans-101"/>
       <use x="1787.357422" xlink:href="#DejaVuSans-100"/>
       <use x="1850.833984" xlink:href="#DejaVuSans-32"/>
       <use x="1882.621094" xlink:href="#DejaVuSans-100"/>
       <use x="1946.097656" xlink:href="#DejaVuSans-101"/>
       <use x="2007.621094" xlink:href="#DejaVuSans-103"/>
       <use x="2071.097656" xlink:href="#DejaVuSans-114"/>
       <use x="2109.960938" xlink:href="#DejaVuSans-101"/>
       <use x="2171.484375" xlink:href="#DejaVuSans-101"/>
       <use x="2233.007812" xlink:href="#DejaVuSans-115"/>
       <use x="2285.107422" xlink:href="#DejaVuSans-32"/>
       <use x="2316.894531" xlink:href="#DejaVuSans-111"/>
       <use x="2378.076172" xlink:href="#DejaVuSans-114"/>
       <use x="2419.189453" xlink:href="#DejaVuSans-32"/>
       <use x="2450.976562" xlink:href="#DejaVuSans-97"/>
       <use x="2512.255859" xlink:href="#DejaVuSans-108"/>
       <use x="2540.039062" xlink:href="#DejaVuSans-105"/>
       <use x="2567.822266" xlink:href="#DejaVuSans-101"/>
       <use x="2629.345703" xlink:href="#DejaVuSans-110"/>
       <use x="2692.724609" xlink:href="#DejaVuSans-115"/>
       <use x="2744.824219" xlink:href="#DejaVuSans-32"/>
       <use x="2776.611328" xlink:href="#DejaVuSans-111"/>
       <use x="2837.792969" xlink:href="#DejaVuSans-102"/>
       <use x="2872.998047" xlink:href="#DejaVuSans-32"/>
       <use x="2904.785156" xlink:href="#DejaVuSans-101"/>
       <use x="2964.558594" xlink:href="#DejaVuSans-120"/>
       <use x="3021.988281" xlink:href="#DejaVuSans-99"/>
       <use x="3076.96875" xlink:href="#DejaVuSans-101"/>
       <use x="3138.492188" xlink:href="#DejaVuSans-112"/>
       <use x="3201.96875" xlink:href="#DejaVuSans-116"/>
       <use x="3241.177734" xlink:href="#DejaVuSans-105"/>
       <use x="3268.960938" xlink:href="#DejaVuSans-111"/>
       <use x="3330.142578" xlink:href="#DejaVuSans-110"/>
       <use x="3393.521484" xlink:href="#DejaVuSans-97"/>
       <use x="3454.800781" xlink:href="#DejaVuSans-108"/>
       <use x="3482.583984" xlink:href="#DejaVuSans-32"/>
       <use x="3514.371094" xlink:href="#DejaVuSans-97"/>
       <use x="3575.650391" xlink:href="#DejaVuSans-98"/>
       <use x="3639.126953" xlink:href="#DejaVuSans-105"/>
       <use x="3666.910156" xlink:href="#DejaVuSans-108"/>
       <use x="3694.693359" xlink:href="#DejaVuSans-105"/>
       <use x="3722.476562" xlink:href="#DejaVuSans-116"/>
       <use x="3761.685547" xlink:href="#DejaVuSans-121"/>
      </g>
     </g>
    </g>
    <g id="xtick_8">
     <g id="line2d_8">
      <g>
       <use style="stroke:#000000;stroke-width:0.8;" x="905.070312" xlink:href="#m3f9368686c" y="565.918125"/>
      </g>
     </g>
     <g id="text_8">
      <!-- Third: Skilled workers professionals and unskilled workers -->
      <g transform="translate(804.964985 782.404033)rotate(-45)scale(0.1 -0.1)">
       <use xlink:href="#DejaVuSans-84"/>
       <use x="61.083984" xlink:href="#DejaVuSans-104"/>
       <use x="124.462891" xlink:href="#DejaVuSans-105"/>
       <use x="152.246094" xlink:href="#DejaVuSans-114"/>
       <use x="191.609375" xlink:href="#DejaVuSans-100"/>
       <use x="255.085938" xlink:href="#DejaVuSans-58"/>
       <use x="288.777344" xlink:href="#DejaVuSans-32"/>
       <use x="320.564453" xlink:href="#DejaVuSans-83"/>
       <use x="384.041016" xlink:href="#DejaVuSans-107"/>
       <use x="441.951172" xlink:href="#DejaVuSans-105"/>
       <use x="469.734375" xlink:href="#DejaVuSans-108"/>
       <use x="497.517578" xlink:href="#DejaVuSans-108"/>
       <use x="525.300781" xlink:href="#DejaVuSans-101"/>
       <use x="586.824219" xlink:href="#DejaVuSans-100"/>
       <use x="650.300781" xlink:href="#DejaVuSans-32"/>
       <use x="682.087891" xlink:href="#DejaVuSans-119"/>
       <use x="763.875" xlink:href="#DejaVuSans-111"/>
       <use x="825.056641" xlink:href="#DejaVuSans-114"/>
       <use x="866.169922" xlink:href="#DejaVuSans-107"/>
       <use x="920.455078" xlink:href="#DejaVuSans-101"/>
       <use x="981.978516" xlink:href="#DejaVuSans-114"/>
       <use x="1023.091797" xlink:href="#DejaVuSans-115"/>
       <use x="1075.191406" xlink:href="#DejaVuSans-32"/>
       <use x="1106.978516" xlink:href="#DejaVuSans-112"/>
       <use x="1170.455078" xlink:href="#DejaVuSans-114"/>
       <use x="1209.318359" xlink:href="#DejaVuSans-111"/>
       <use x="1270.5" xlink:href="#DejaVuSans-102"/>
       <use x="1305.705078" xlink:href="#DejaVuSans-101"/>
       <use x="1367.228516" xlink:href="#DejaVuSans-115"/>
       <use x="1419.328125" xlink:href="#DejaVuSans-115"/>
       <use x="1471.427734" xlink:href="#DejaVuSans-105"/>
       <use x="1499.210938" xlink:href="#DejaVuSans-111"/>
       <use x="1560.392578" xlink:href="#DejaVuSans-110"/>
       <use x="1623.771484" xlink:href="#DejaVuSans-97"/>
       <use x="1685.050781" xlink:href="#DejaVuSans-108"/>
       <use x="1712.833984" xlink:href="#DejaVuSans-115"/>
       <use x="1764.933594" xlink:href="#DejaVuSans-32"/>
       <use x="1796.720703" xlink:href="#DejaVuSans-97"/>
       <use x="1858" xlink:href="#DejaVuSans-110"/>
       <use x="1921.378906" xlink:href="#DejaVuSans-100"/>
       <use x="1984.855469" xlink:href="#DejaVuSans-32"/>
       <use x="2016.642578" xlink:href="#DejaVuSans-117"/>
       <use x="2080.021484" xlink:href="#DejaVuSans-110"/>
       <use x="2143.400391" xlink:href="#DejaVuSans-115"/>
       <use x="2195.5" xlink:href="#DejaVuSans-107"/>
       <use x="2253.410156" xlink:href="#DejaVuSans-105"/>
       <use x="2281.193359" xlink:href="#DejaVuSans-108"/>
       <use x="2308.976562" xlink:href="#DejaVuSans-108"/>
       <use x="2336.759766" xlink:href="#DejaVuSans-101"/>
       <use x="2398.283203" xlink:href="#DejaVuSans-100"/>
       <use x="2461.759766" xlink:href="#DejaVuSans-32"/>
       <use x="2493.546875" xlink:href="#DejaVuSans-119"/>
       <use x="2575.333984" xlink:href="#DejaVuSans-111"/>
       <use x="2636.515625" xlink:href="#DejaVuSans-114"/>
       <use x="2677.628906" xlink:href="#DejaVuSans-107"/>
       <use x="2731.914062" xlink:href="#DejaVuSans-101"/>
       <use x="2793.4375" xlink:href="#DejaVuSans-114"/>
       <use x="2834.550781" xlink:href="#DejaVuSans-115"/>
      </g>
     </g>
    </g>
    <g id="xtick_9">
     <g id="line2d_9">
      <g>
       <use style="stroke:#000000;stroke-width:0.8;" x="1016.670313" xlink:href="#m3f9368686c" y="565.918125"/>
      </g>
     </g>
     <g id="text_9">
      <!-- Fourth: Certain special immigrants -->
      <g transform="translate(957.275 700.984002)rotate(-45)scale(0.1 -0.1)">
       <use xlink:href="#DejaVuSans-70"/>
       <use x="53.894531" xlink:href="#DejaVuSans-111"/>
       <use x="115.076172" xlink:href="#DejaVuSans-117"/>
       <use x="178.455078" xlink:href="#DejaVuSans-114"/>
       <use x="219.568359" xlink:href="#DejaVuSans-116"/>
       <use x="258.777344" xlink:href="#DejaVuSans-104"/>
       <use x="322.15625" xlink:href="#DejaVuSans-58"/>
       <use x="355.847656" xlink:href="#DejaVuSans-32"/>
       <use x="387.634766" xlink:href="#DejaVuSans-67"/>
       <use x="457.458984" xlink:href="#DejaVuSans-101"/>
       <use x="518.982422" xlink:href="#DejaVuSans-114"/>
       <use x="560.095703" xlink:href="#DejaVuSans-116"/>
       <use x="599.304688" xlink:href="#DejaVuSans-97"/>
       <use x="660.583984" xlink:href="#DejaVuSans-105"/>
       <use x="688.367188" xlink:href="#DejaVuSans-110"/>
       <use x="751.746094" xlink:href="#DejaVuSans-32"/>
       <use x="783.533203" xlink:href="#DejaVuSans-115"/>
       <use x="835.632812" xlink:href="#DejaVuSans-112"/>
       <use x="899.109375" xlink:href="#DejaVuSans-101"/>
       <use x="960.632812" xlink:href="#DejaVuSans-99"/>
       <use x="1015.613281" xlink:href="#DejaVuSans-105"/>
       <use x="1043.396484" xlink:href="#DejaVuSans-97"/>
       <use x="1104.675781" xlink:href="#DejaVuSans-108"/>
       <use x="1132.458984" xlink:href="#DejaVuSans-32"/>
       <use x="1164.246094" xlink:href="#DejaVuSans-105"/>
       <use x="1192.029297" xlink:href="#DejaVuSans-109"/>
       <use x="1289.441406" xlink:href="#DejaVuSans-109"/>
       <use x="1386.853516" xlink:href="#DejaVuSans-105"/>
       <use x="1414.636719" xlink:href="#DejaVuSans-103"/>
       <use x="1478.113281" xlink:href="#DejaVuSans-114"/>
       <use x="1519.226562" xlink:href="#DejaVuSans-97"/>
       <use x="1580.505859" xlink:href="#DejaVuSans-110"/>
       <use x="1643.884766" xlink:href="#DejaVuSans-116"/>
       <use x="1683.09375" xlink:href="#DejaVuSans-115"/>
      </g>
     </g>
    </g>
    <g id="xtick_10">
     <g id="line2d_10">
      <g>
       <use style="stroke:#000000;stroke-width:0.8;" x="1128.270313" xlink:href="#m3f9368686c" y="565.918125"/>
      </g>
     </g>
     <g id="text_10">
      <!-- Fifth: Employment creation (investors) -->
      <g transform="translate(1062.316032 714.101938)rotate(-45)scale(0.1 -0.1)">
       <use xlink:href="#DejaVuSans-70"/>
       <use x="50.269531" xlink:href="#DejaVuSans-105"/>
       <use x="78.052734" xlink:href="#DejaVuSans-102"/>
       <use x="111.507812" xlink:href="#DejaVuSans-116"/>
       <use x="150.716797" xlink:href="#DejaVuSans-104"/>
       <use x="214.095703" xlink:href="#DejaVuSans-58"/>
       <use x="247.787109" xlink:href="#DejaVuSans-32"/>
       <use x="279.574219" xlink:href="#DejaVuSans-69"/>
       <use x="342.757812" xlink:href="#DejaVuSans-109"/>
       <use x="440.169922" xlink:href="#DejaVuSans-112"/>
       <use x="503.646484" xlink:href="#DejaVuSans-108"/>
       <use x="531.429688" xlink:href="#DejaVuSans-111"/>
       <use x="592.611328" xlink:href="#DejaVuSans-121"/>
       <use x="651.791016" xlink:href="#DejaVuSans-109"/>
       <use x="749.203125" xlink:href="#DejaVuSans-101"/>
       <use x="810.726562" xlink:href="#DejaVuSans-110"/>
       <use x="874.105469" xlink:href="#DejaVuSans-116"/>
       <use x="913.314453" xlink:href="#DejaVuSans-32"/>
       <use x="945.101562" xlink:href="#DejaVuSans-99"/>
       <use x="1000.082031" xlink:href="#DejaVuSans-114"/>
       <use x="1038.945312" xlink:href="#DejaVuSans-101"/>
       <use x="1100.46875" xlink:href="#DejaVuSans-97"/>
       <use x="1161.748047" xlink:href="#DejaVuSans-116"/>
       <use x="1200.957031" xlink:href="#DejaVuSans-105"/>
       <use x="1228.740234" xlink:href="#DejaVuSans-111"/>
       <use x="1289.921875" xlink:href="#DejaVuSans-110"/>
       <use x="1353.300781" xlink:href="#DejaVuSans-32"/>
       <use x="1385.087891" xlink:href="#DejaVuSans-40"/>
       <use x="1424.101562" xlink:href="#DejaVuSans-105"/>
       <use x="1451.884766" xlink:href="#DejaVuSans-110"/>
       <use x="1515.263672" xlink:href="#DejaVuSans-118"/>
       <use x="1574.443359" xlink:href="#DejaVuSans-101"/>
       <use x="1635.966797" xlink:href="#DejaVuSans-115"/>
       <use x="1688.066406" xlink:href="#DejaVuSans-116"/>
       <use x="1727.275391" xlink:href="#DejaVuSans-111"/>
       <use x="1788.457031" xlink:href="#DejaVuSans-114"/>
       <use x="1829.570312" xlink:href="#DejaVuSans-115"/>
       <use x="1881.669922" xlink:href="#DejaVuSans-41"/>
      </g>
     </g>
    </g>
    <g id="text_11">
     <!-- Type and class of admission -->
     <g transform="translate(556.26875 861.538902)scale(0.1 -0.1)">
      <use xlink:href="#DejaVuSans-84"/>
      <use x="45.458984" xlink:href="#DejaVuSans-121"/>
      <use x="104.638672" xlink:href="#DejaVuSans-112"/>
      <use x="168.115234" xlink:href="#DejaVuSans-101"/>
      <use x="229.638672" xlink:href="#DejaVuSans-32"/>
      <use x="261.425781" xlink:href="#DejaVuSans-97"/>
      <use x="322.705078" xlink:href="#DejaVuSans-110"/>
      <use x="386.083984" xlink:href="#DejaVuSans-100"/>
      <use x="449.560547" xlink:href="#DejaVuSans-32"/>
      <use x="481.347656" xlink:href="#DejaVuSans-99"/>
      <use x="536.328125" xlink:href="#DejaVuSans-108"/>
      <use x="564.111328" xlink:href="#DejaVuSans-97"/>
      <use x="625.390625" xlink:href="#DejaVuSans-115"/>
      <use x="677.490234" xlink:href="#DejaVuSans-115"/>
      <use x="729.589844" xlink:href="#DejaVuSans-32"/>
      <use x="761.376953" xlink:href="#DejaVuSans-111"/>
      <use x="822.558594" xlink:href="#DejaVuSans-102"/>
      <use x="857.763672" xlink:href="#DejaVuSans-32"/>
      <use x="889.550781" xlink:href="#DejaVuSans-97"/>
      <use x="950.830078" xlink:href="#DejaVuSans-100"/>
      <use x="1014.306641" xlink:href="#DejaVuSans-109"/>
      <use x="1111.71875" xlink:href="#DejaVuSans-105"/>
      <use x="1139.501953" xlink:href="#DejaVuSans-115"/>
      <use x="1191.601562" xlink:href="#DejaVuSans-115"/>
      <use x="1243.701172" xlink:href="#DejaVuSans-105"/>
      <use x="1271.484375" xlink:href="#DejaVuSans-111"/>
      <use x="1332.666016" xlink:href="#DejaVuSans-110"/>
     </g>
    </g>
   </g>
   <g id="matplotlib.axis_2">
    <g id="ytick_1">
     <g id="line2d_11">
      <defs>
       <path d="M 0 0 
L -3.5 0 
" id="md4000aaabf" style="stroke:#000000;stroke-width:0.8;"/>
      </defs>
      <g>
       <use style="stroke:#000000;stroke-width:0.8;" x="68.070313" xlink:href="#md4000aaabf" y="510.843761"/>
      </g>
     </g>
     <g id="text_12">
      <!-- 10000 -->
      <g transform="translate(20.878125 514.64298)scale(0.1 -0.1)">
       <defs>
        <path d="M 10.59375 35.5 
L 73.1875 35.5 
L 73.1875 27.203125 
L 10.59375 27.203125 
z
" id="DejaVuSans-8722"/>
        <path d="M 12.40625 8.296875 
L 28.515625 8.296875 
L 28.515625 63.921875 
L 10.984375 60.40625 
L 10.984375 69.390625 
L 28.421875 72.90625 
L 38.28125 72.90625 
L 38.28125 8.296875 
L 54.390625 8.296875 
L 54.390625 0 
L 12.40625 0 
z
" id="DejaVuSans-49"/>
        <path d="M 31.78125 66.40625 
Q 24.171875 66.40625 20.328125 58.90625 
Q 16.5 51.421875 16.5 36.375 
Q 16.5 21.390625 20.328125 13.890625 
Q 24.171875 6.390625 31.78125 6.390625 
Q 39.453125 6.390625 43.28125 13.890625 
Q 47.125 21.390625 47.125 36.375 
Q 47.125 51.421875 43.28125 58.90625 
Q 39.453125 66.40625 31.78125 66.40625 
z
M 31.78125 74.21875 
Q 44.046875 74.21875 50.515625 64.515625 
Q 56.984375 54.828125 56.984375 36.375 
Q 56.984375 17.96875 50.515625 8.265625 
Q 44.046875 -1.421875 31.78125 -1.421875 
Q 19.53125 -1.421875 13.0625 8.265625 
Q 6.59375 17.96875 6.59375 36.375 
Q 6.59375 54.828125 13.0625 64.515625 
Q 19.53125 74.21875 31.78125 74.21875 
z
" id="DejaVuSans-48"/>
       </defs>
       <use xlink:href="#DejaVuSans-8722"/>
       <use x="83.789062" xlink:href="#DejaVuSans-49"/>
       <use x="147.412109" xlink:href="#DejaVuSans-48"/>
       <use x="211.035156" xlink:href="#DejaVuSans-48"/>
       <use x="274.658203" xlink:href="#DejaVuSans-48"/>
       <use x="338.28125" xlink:href="#DejaVuSans-48"/>
      </g>
     </g>
    </g>
    <g id="ytick_2">
     <g id="line2d_12">
      <g>
       <use style="stroke:#000000;stroke-width:0.8;" x="68.070313" xlink:href="#md4000aaabf" y="414.568324"/>
      </g>
     </g>
     <g id="text_13">
      <!-- 5000 -->
      <g transform="translate(27.240625 418.367543)scale(0.1 -0.1)">
       <defs>
        <path d="M 10.796875 72.90625 
L 49.515625 72.90625 
L 49.515625 64.59375 
L 19.828125 64.59375 
L 19.828125 46.734375 
Q 21.96875 47.46875 24.109375 47.828125 
Q 26.265625 48.1875 28.421875 48.1875 
Q 40.625 48.1875 47.75 41.5 
Q 54.890625 34.8125 54.890625 23.390625 
Q 54.890625 11.625 47.5625 5.09375 
Q 40.234375 -1.421875 26.90625 -1.421875 
Q 22.3125 -1.421875 17.546875 -0.640625 
Q 12.796875 0.140625 7.71875 1.703125 
L 7.71875 11.625 
Q 12.109375 9.234375 16.796875 8.0625 
Q 21.484375 6.890625 26.703125 6.890625 
Q 35.15625 6.890625 40.078125 11.328125 
Q 45.015625 15.765625 45.015625 23.390625 
Q 45.015625 31 40.078125 35.4375 
Q 35.15625 39.890625 26.703125 39.890625 
Q 22.75 39.890625 18.8125 39.015625 
Q 14.890625 38.140625 10.796875 36.28125 
z
" id="DejaVuSans-53"/>
       </defs>
       <use xlink:href="#DejaVuSans-8722"/>
       <use x="83.789062" xlink:href="#DejaVuSans-53"/>
       <use x="147.412109" xlink:href="#DejaVuSans-48"/>
       <use x="211.035156" xlink:href="#DejaVuSans-48"/>
       <use x="274.658203" xlink:href="#DejaVuSans-48"/>
      </g>
     </g>
    </g>
    <g id="ytick_3">
     <g id="line2d_13">
      <g>
       <use style="stroke:#000000;stroke-width:0.8;" x="68.070313" xlink:href="#md4000aaabf" y="318.292887"/>
      </g>
     </g>
     <g id="text_14">
      <!-- 0 -->
      <g transform="translate(54.707813 322.092106)scale(0.1 -0.1)">
       <use xlink:href="#DejaVuSans-48"/>
      </g>
     </g>
    </g>
    <g id="ytick_4">
     <g id="line2d_14">
      <g>
       <use style="stroke:#000000;stroke-width:0.8;" x="68.070313" xlink:href="#md4000aaabf" y="222.01745"/>
      </g>
     </g>
     <g id="text_15">
      <!-- 5000 -->
      <g transform="translate(35.620313 225.816669)scale(0.1 -0.1)">
       <use xlink:href="#DejaVuSans-53"/>
       <use x="63.623047" xlink:href="#DejaVuSans-48"/>
       <use x="127.246094" xlink:href="#DejaVuSans-48"/>
       <use x="190.869141" xlink:href="#DejaVuSans-48"/>
      </g>
     </g>
    </g>
    <g id="ytick_5">
     <g id="line2d_15">
      <g>
       <use style="stroke:#000000;stroke-width:0.8;" x="68.070313" xlink:href="#md4000aaabf" y="125.742013"/>
      </g>
     </g>
     <g id="text_16">
      <!-- 10000 -->
      <g transform="translate(29.257813 129.541232)scale(0.1 -0.1)">
       <use xlink:href="#DejaVuSans-49"/>
       <use x="63.623047" xlink:href="#DejaVuSans-48"/>
       <use x="127.246094" xlink:href="#DejaVuSans-48"/>
       <use x="190.869141" xlink:href="#DejaVuSans-48"/>
       <use x="254.492188" xlink:href="#DejaVuSans-48"/>
      </g>
     </g>
    </g>
    <g id="ytick_6">
     <g id="line2d_16">
      <g>
       <use style="stroke:#000000;stroke-width:0.8;" x="68.070313" xlink:href="#md4000aaabf" y="29.466576"/>
      </g>
     </g>
     <g id="text_17">
      <!-- 15000 -->
      <g transform="translate(29.257813 33.265795)scale(0.1 -0.1)">
       <use xlink:href="#DejaVuSans-49"/>
       <use x="63.623047" xlink:href="#DejaVuSans-53"/>
       <use x="127.246094" xlink:href="#DejaVuSans-48"/>
       <use x="190.869141" xlink:href="#DejaVuSans-48"/>
       <use x="254.492188" xlink:href="#DejaVuSans-48"/>
      </g>
     </g>
    </g>
    <g id="text_18">
     <!-- Change in Number of Addmissions -->
     <g transform="translate(14.798438 380.453281)rotate(-90)scale(0.1 -0.1)">
      <defs>
       <path d="M 9.8125 72.90625 
L 23.09375 72.90625 
L 55.421875 11.921875 
L 55.421875 72.90625 
L 64.984375 72.90625 
L 64.984375 0 
L 51.703125 0 
L 19.390625 60.984375 
L 19.390625 0 
L 9.8125 0 
z
" id="DejaVuSans-78"/>
       <path d="M 34.1875 63.1875 
L 20.796875 26.90625 
L 47.609375 26.90625 
z
M 28.609375 72.90625 
L 39.796875 72.90625 
L 67.578125 0 
L 57.328125 0 
L 50.6875 18.703125 
L 17.828125 18.703125 
L 11.1875 0 
L 0.78125 0 
z
" id="DejaVuSans-65"/>
      </defs>
      <use xlink:href="#DejaVuSans-67"/>
      <use x="69.824219" xlink:href="#DejaVuSans-104"/>
      <use x="133.203125" xlink:href="#DejaVuSans-97"/>
      <use x="194.482422" xlink:href="#DejaVuSans-110"/>
      <use x="257.861328" xlink:href="#DejaVuSans-103"/>
      <use x="321.337891" xlink:href="#DejaVuSans-101"/>
      <use x="382.861328" xlink:href="#DejaVuSans-32"/>
      <use x="414.648438" xlink:href="#DejaVuSans-105"/>
      <use x="442.431641" xlink:href="#DejaVuSans-110"/>
      <use x="505.810547" xlink:href="#DejaVuSans-32"/>
      <use x="537.597656" xlink:href="#DejaVuSans-78"/>
      <use x="612.402344" xlink:href="#DejaVuSans-117"/>
      <use x="675.78125" xlink:href="#DejaVuSans-109"/>
      <use x="773.193359" xlink:href="#DejaVuSans-98"/>
      <use x="836.669922" xlink:href="#DejaVuSans-101"/>
      <use x="898.193359" xlink:href="#DejaVuSans-114"/>
      <use x="939.306641" xlink:href="#DejaVuSans-32"/>
      <use x="971.09375" xlink:href="#DejaVuSans-111"/>
      <use x="1032.275391" xlink:href="#DejaVuSans-102"/>
      <use x="1067.480469" xlink:href="#DejaVuSans-32"/>
      <use x="1099.267578" xlink:href="#DejaVuSans-65"/>
      <use x="1165.925781" xlink:href="#DejaVuSans-100"/>
      <use x="1229.402344" xlink:href="#DejaVuSans-100"/>
      <use x="1292.878906" xlink:href="#DejaVuSans-109"/>
      <use x="1390.291016" xlink:href="#DejaVuSans-105"/>
      <use x="1418.074219" xlink:href="#DejaVuSans-115"/>
      <use x="1470.173828" xlink:href="#DejaVuSans-115"/>
      <use x="1522.273438" xlink:href="#DejaVuSans-105"/>
      <use x="1550.056641" xlink:href="#DejaVuSans-111"/>
      <use x="1611.238281" xlink:href="#DejaVuSans-110"/>
      <use x="1674.617188" xlink:href="#DejaVuSans-115"/>
     </g>
    </g>
   </g>
   <g id="patch_83">
    <path d="M 68.070313 565.918125 
L 68.070313 22.318125 
" style="fill:none;stroke:#000000;stroke-linecap:square;stroke-linejoin:miter;stroke-width:0.8;"/>
   </g>
   <g id="patch_84">
    <path d="M 1184.070312 565.918125 
L 1184.070312 22.318125 
" style="fill:none;stroke:#000000;stroke-linecap:square;stroke-linejoin:miter;stroke-width:0.8;"/>
   </g>
   <g id="patch_85">
    <path d="M 68.070312 565.918125 
L 1184.070312 565.918125 
" style="fill:none;stroke:#000000;stroke-linecap:square;stroke-linejoin:miter;stroke-width:0.8;"/>
   </g>
   <g id="patch_86">
    <path d="M 68.070312 22.318125 
L 1184.070312 22.318125 
" style="fill:none;stroke:#000000;stroke-linecap:square;stroke-linejoin:miter;stroke-width:0.8;"/>
   </g>
   <g id="text_19">
    <!-- Career Related Admission -->
    <g transform="translate(548.70875 16.318125)scale(0.12 -0.12)">
     <defs>
      <path d="M 44.390625 34.1875 
Q 47.5625 33.109375 50.5625 29.59375 
Q 53.5625 26.078125 56.59375 19.921875 
L 66.609375 0 
L 56 0 
L 46.6875 18.703125 
Q 43.0625 26.03125 39.671875 28.421875 
Q 36.28125 30.8125 30.421875 30.8125 
L 19.671875 30.8125 
L 19.671875 0 
L 9.8125 0 
L 9.8125 72.90625 
L 32.078125 72.90625 
Q 44.578125 72.90625 50.734375 67.671875 
Q 56.890625 62.453125 56.890625 51.90625 
Q 56.890625 45.015625 53.6875 40.46875 
Q 50.484375 35.9375 44.390625 34.1875 
z
M 19.671875 64.796875 
L 19.671875 38.921875 
L 32.078125 38.921875 
Q 39.203125 38.921875 42.84375 42.21875 
Q 46.484375 45.515625 46.484375 51.90625 
Q 46.484375 58.296875 42.84375 61.546875 
Q 39.203125 64.796875 32.078125 64.796875 
z
" id="DejaVuSans-82"/>
     </defs>
     <use xlink:href="#DejaVuSans-67"/>
     <use x="69.824219" xlink:href="#DejaVuSans-97"/>
     <use x="131.103516" xlink:href="#DejaVuSans-114"/>
     <use x="169.966797" xlink:href="#DejaVuSans-101"/>
     <use x="231.490234" xlink:href="#DejaVuSans-101"/>
     <use x="293.013672" xlink:href="#DejaVuSans-114"/>
     <use x="334.126953" xlink:href="#DejaVuSans-32"/>
     <use x="365.914062" xlink:href="#DejaVuSans-82"/>
     <use x="430.896484" xlink:href="#DejaVuSans-101"/>
     <use x="492.419922" xlink:href="#DejaVuSans-108"/>
     <use x="520.203125" xlink:href="#DejaVuSans-97"/>
     <use x="581.482422" xlink:href="#DejaVuSans-116"/>
     <use x="620.691406" xlink:href="#DejaVuSans-101"/>
     <use x="682.214844" xlink:href="#DejaVuSans-100"/>
     <use x="745.691406" xlink:href="#DejaVuSans-32"/>
     <use x="777.478516" xlink:href="#DejaVuSans-65"/>
     <use x="844.136719" xlink:href="#DejaVuSans-100"/>
     <use x="907.613281" xlink:href="#DejaVuSans-109"/>
     <use x="1005.025391" xlink:href="#DejaVuSans-105"/>
     <use x="1032.808594" xlink:href="#DejaVuSans-115"/>
     <use x="1084.908203" xlink:href="#DejaVuSans-115"/>
     <use x="1137.007812" xlink:href="#DejaVuSans-105"/>
     <use x="1164.791016" xlink:href="#DejaVuSans-111"/>
     <use x="1225.972656" xlink:href="#DejaVuSans-110"/>
    </g>
   </g>
   <g id="legend_1">
    <g id="patch_87">
     <path d="M 1077.775 147.743125 
L 1177.070312 147.743125 
Q 1179.070312 147.743125 1179.070312 145.743125 
L 1179.070312 29.318125 
Q 1179.070312 27.318125 1177.070312 27.318125 
L 1077.775 27.318125 
Q 1075.775 27.318125 1075.775 29.318125 
L 1075.775 145.743125 
Q 1075.775 147.743125 1077.775 147.743125 
z
" style="fill:#ffffff;opacity:0.8;stroke:#cccccc;stroke-linejoin:miter;"/>
    </g>
    <g id="patch_88">
     <path d="M 1079.775 38.916562 
L 1099.775 38.916562 
L 1099.775 31.916562 
L 1079.775 31.916562 
z
" style="fill:#1f77b4;"/>
    </g>
    <g id="text_20">
     <!-- 2012 to 2013 -->
     <g transform="translate(1107.775 38.916562)scale(0.1 -0.1)">
      <defs>
       <path d="M 19.1875 8.296875 
L 53.609375 8.296875 
L 53.609375 0 
L 7.328125 0 
L 7.328125 8.296875 
Q 12.9375 14.109375 22.625 23.890625 
Q 32.328125 33.6875 34.8125 36.53125 
Q 39.546875 41.84375 41.421875 45.53125 
Q 43.3125 49.21875 43.3125 52.78125 
Q 43.3125 58.59375 39.234375 62.25 
Q 35.15625 65.921875 28.609375 65.921875 
Q 23.96875 65.921875 18.8125 64.3125 
Q 13.671875 62.703125 7.8125 59.421875 
L 7.8125 69.390625 
Q 13.765625 71.78125 18.9375 73 
Q 24.125 74.21875 28.421875 74.21875 
Q 39.75 74.21875 46.484375 68.546875 
Q 53.21875 62.890625 53.21875 53.421875 
Q 53.21875 48.921875 51.53125 44.890625 
Q 49.859375 40.875 45.40625 35.40625 
Q 44.1875 33.984375 37.640625 27.21875 
Q 31.109375 20.453125 19.1875 8.296875 
z
" id="DejaVuSans-50"/>
       <path d="M 40.578125 39.3125 
Q 47.65625 37.796875 51.625 33 
Q 55.609375 28.21875 55.609375 21.1875 
Q 55.609375 10.40625 48.1875 4.484375 
Q 40.765625 -1.421875 27.09375 -1.421875 
Q 22.515625 -1.421875 17.65625 -0.515625 
Q 12.796875 0.390625 7.625 2.203125 
L 7.625 11.71875 
Q 11.71875 9.328125 16.59375 8.109375 
Q 21.484375 6.890625 26.8125 6.890625 
Q 36.078125 6.890625 40.9375 10.546875 
Q 45.796875 14.203125 45.796875 21.1875 
Q 45.796875 27.640625 41.28125 31.265625 
Q 36.765625 34.90625 28.71875 34.90625 
L 20.21875 34.90625 
L 20.21875 43.015625 
L 29.109375 43.015625 
Q 36.375 43.015625 40.234375 45.921875 
Q 44.09375 48.828125 44.09375 54.296875 
Q 44.09375 59.90625 40.109375 62.90625 
Q 36.140625 65.921875 28.71875 65.921875 
Q 24.65625 65.921875 20.015625 65.03125 
Q 15.375 64.15625 9.8125 62.3125 
L 9.8125 71.09375 
Q 15.4375 72.65625 20.34375 73.4375 
Q 25.25 74.21875 29.59375 74.21875 
Q 40.828125 74.21875 47.359375 69.109375 
Q 53.90625 64.015625 53.90625 55.328125 
Q 53.90625 49.265625 50.4375 45.09375 
Q 46.96875 40.921875 40.578125 39.3125 
z
" id="DejaVuSans-51"/>
      </defs>
      <use xlink:href="#DejaVuSans-50"/>
      <use x="63.623047" xlink:href="#DejaVuSans-48"/>
      <use x="127.246094" xlink:href="#DejaVuSans-49"/>
      <use x="190.869141" xlink:href="#DejaVuSans-50"/>
      <use x="254.492188" xlink:href="#DejaVuSans-32"/>
      <use x="286.279297" xlink:href="#DejaVuSans-116"/>
      <use x="325.488281" xlink:href="#DejaVuSans-111"/>
      <use x="386.669922" xlink:href="#DejaVuSans-32"/>
      <use x="418.457031" xlink:href="#DejaVuSans-50"/>
      <use x="482.080078" xlink:href="#DejaVuSans-48"/>
      <use x="545.703125" xlink:href="#DejaVuSans-49"/>
      <use x="609.326172" xlink:href="#DejaVuSans-51"/>
     </g>
    </g>
    <g id="patch_89">
     <path d="M 1079.775 53.594687 
L 1099.775 53.594687 
L 1099.775 46.594687 
L 1079.775 46.594687 
z
" style="fill:#ff7f0e;"/>
    </g>
    <g id="text_21">
     <!-- 2013 to 2014 -->
     <g transform="translate(1107.775 53.594687)scale(0.1 -0.1)">
      <defs>
       <path d="M 37.796875 64.3125 
L 12.890625 25.390625 
L 37.796875 25.390625 
z
M 35.203125 72.90625 
L 47.609375 72.90625 
L 47.609375 25.390625 
L 58.015625 25.390625 
L 58.015625 17.1875 
L 47.609375 17.1875 
L 47.609375 0 
L 37.796875 0 
L 37.796875 17.1875 
L 4.890625 17.1875 
L 4.890625 26.703125 
z
" id="DejaVuSans-52"/>
      </defs>
      <use xlink:href="#DejaVuSans-50"/>
      <use x="63.623047" xlink:href="#DejaVuSans-48"/>
      <use x="127.246094" xlink:href="#DejaVuSans-49"/>
      <use x="190.869141" xlink:href="#DejaVuSans-51"/>
      <use x="254.492188" xlink:href="#DejaVuSans-32"/>
      <use x="286.279297" xlink:href="#DejaVuSans-116"/>
      <use x="325.488281" xlink:href="#DejaVuSans-111"/>
      <use x="386.669922" xlink:href="#DejaVuSans-32"/>
      <use x="418.457031" xlink:href="#DejaVuSans-50"/>
      <use x="482.080078" xlink:href="#DejaVuSans-48"/>
      <use x="545.703125" xlink:href="#DejaVuSans-49"/>
      <use x="609.326172" xlink:href="#DejaVuSans-52"/>
     </g>
    </g>
    <g id="patch_90">
     <path d="M 1079.775 68.272812 
L 1099.775 68.272812 
L 1099.775 61.272812 
L 1079.775 61.272812 
z
" style="fill:#2ca02c;"/>
    </g>
    <g id="text_22">
     <!-- 2014 to 2015 -->
     <g transform="translate(1107.775 68.272812)scale(0.1 -0.1)">
      <use xlink:href="#DejaVuSans-50"/>
      <use x="63.623047" xlink:href="#DejaVuSans-48"/>
      <use x="127.246094" xlink:href="#DejaVuSans-49"/>
      <use x="190.869141" xlink:href="#DejaVuSans-52"/>
      <use x="254.492188" xlink:href="#DejaVuSans-32"/>
      <use x="286.279297" xlink:href="#DejaVuSans-116"/>
      <use x="325.488281" xlink:href="#DejaVuSans-111"/>
      <use x="386.669922" xlink:href="#DejaVuSans-32"/>
      <use x="418.457031" xlink:href="#DejaVuSans-50"/>
      <use x="482.080078" xlink:href="#DejaVuSans-48"/>
      <use x="545.703125" xlink:href="#DejaVuSans-49"/>
      <use x="609.326172" xlink:href="#DejaVuSans-53"/>
     </g>
    </g>
    <g id="patch_91">
     <path d="M 1079.775 82.950937 
L 1099.775 82.950937 
L 1099.775 75.950937 
L 1079.775 75.950937 
z
" style="fill:#d62728;"/>
    </g>
    <g id="text_23">
     <!-- 2015 to 2016 -->
     <g transform="translate(1107.775 82.950937)scale(0.1 -0.1)">
      <defs>
       <path d="M 33.015625 40.375 
Q 26.375 40.375 22.484375 35.828125 
Q 18.609375 31.296875 18.609375 23.390625 
Q 18.609375 15.53125 22.484375 10.953125 
Q 26.375 6.390625 33.015625 6.390625 
Q 39.65625 6.390625 43.53125 10.953125 
Q 47.40625 15.53125 47.40625 23.390625 
Q 47.40625 31.296875 43.53125 35.828125 
Q 39.65625 40.375 33.015625 40.375 
z
M 52.59375 71.296875 
L 52.59375 62.3125 
Q 48.875 64.0625 45.09375 64.984375 
Q 41.3125 65.921875 37.59375 65.921875 
Q 27.828125 65.921875 22.671875 59.328125 
Q 17.53125 52.734375 16.796875 39.40625 
Q 19.671875 43.65625 24.015625 45.921875 
Q 28.375 48.1875 33.59375 48.1875 
Q 44.578125 48.1875 50.953125 41.515625 
Q 57.328125 34.859375 57.328125 23.390625 
Q 57.328125 12.15625 50.6875 5.359375 
Q 44.046875 -1.421875 33.015625 -1.421875 
Q 20.359375 -1.421875 13.671875 8.265625 
Q 6.984375 17.96875 6.984375 36.375 
Q 6.984375 53.65625 15.1875 63.9375 
Q 23.390625 74.21875 37.203125 74.21875 
Q 40.921875 74.21875 44.703125 73.484375 
Q 48.484375 72.75 52.59375 71.296875 
z
" id="DejaVuSans-54"/>
      </defs>
      <use xlink:href="#DejaVuSans-50"/>
      <use x="63.623047" xlink:href="#DejaVuSans-48"/>
      <use x="127.246094" xlink:href="#DejaVuSans-49"/>
      <use x="190.869141" xlink:href="#DejaVuSans-53"/>
      <use x="254.492188" xlink:href="#DejaVuSans-32"/>
      <use x="286.279297" xlink:href="#DejaVuSans-116"/>
      <use x="325.488281" xlink:href="#DejaVuSans-111"/>
      <use x="386.669922" xlink:href="#DejaVuSans-32"/>
      <use x="418.457031" xlink:href="#DejaVuSans-50"/>
      <use x="482.080078" xlink:href="#DejaVuSans-48"/>
      <use x="545.703125" xlink:href="#DejaVuSans-49"/>
      <use x="609.326172" xlink:href="#DejaVuSans-54"/>
     </g>
    </g>
    <g id="patch_92">
     <path d="M 1079.775 97.629062 
L 1099.775 97.629062 
L 1099.775 90.629062 
L 1079.775 90.629062 
z
" style="fill:#9467bd;"/>
    </g>
    <g id="text_24">
     <!-- 2016 to 2017 -->
     <g transform="translate(1107.775 97.629062)scale(0.1 -0.1)">
      <defs>
       <path d="M 8.203125 72.90625 
L 55.078125 72.90625 
L 55.078125 68.703125 
L 28.609375 0 
L 18.3125 0 
L 43.21875 64.59375 
L 8.203125 64.59375 
z
" id="DejaVuSans-55"/>
      </defs>
      <use xlink:href="#DejaVuSans-50"/>
      <use x="63.623047" xlink:href="#DejaVuSans-48"/>
      <use x="127.246094" xlink:href="#DejaVuSans-49"/>
      <use x="190.869141" xlink:href="#DejaVuSans-54"/>
      <use x="254.492188" xlink:href="#DejaVuSans-32"/>
      <use x="286.279297" xlink:href="#DejaVuSans-116"/>
      <use x="325.488281" xlink:href="#DejaVuSans-111"/>
      <use x="386.669922" xlink:href="#DejaVuSans-32"/>
      <use x="418.457031" xlink:href="#DejaVuSans-50"/>
      <use x="482.080078" xlink:href="#DejaVuSans-48"/>
      <use x="545.703125" xlink:href="#DejaVuSans-49"/>
      <use x="609.326172" xlink:href="#DejaVuSans-55"/>
     </g>
    </g>
    <g id="patch_93">
     <path d="M 1079.775 112.307187 
L 1099.775 112.307187 
L 1099.775 105.307187 
L 1079.775 105.307187 
z
" style="fill:#8c564b;"/>
    </g>
    <g id="text_25">
     <!-- 2017 to 2018 -->
     <g transform="translate(1107.775 112.307187)scale(0.1 -0.1)">
      <defs>
       <path d="M 31.78125 34.625 
Q 24.75 34.625 20.71875 30.859375 
Q 16.703125 27.09375 16.703125 20.515625 
Q 16.703125 13.921875 20.71875 10.15625 
Q 24.75 6.390625 31.78125 6.390625 
Q 38.8125 6.390625 42.859375 10.171875 
Q 46.921875 13.96875 46.921875 20.515625 
Q 46.921875 27.09375 42.890625 30.859375 
Q 38.875 34.625 31.78125 34.625 
z
M 21.921875 38.8125 
Q 15.578125 40.375 12.03125 44.71875 
Q 8.5 49.078125 8.5 55.328125 
Q 8.5 64.0625 14.71875 69.140625 
Q 20.953125 74.21875 31.78125 74.21875 
Q 42.671875 74.21875 48.875 69.140625 
Q 55.078125 64.0625 55.078125 55.328125 
Q 55.078125 49.078125 51.53125 44.71875 
Q 48 40.375 41.703125 38.8125 
Q 48.828125 37.15625 52.796875 32.3125 
Q 56.78125 27.484375 56.78125 20.515625 
Q 56.78125 9.90625 50.3125 4.234375 
Q 43.84375 -1.421875 31.78125 -1.421875 
Q 19.734375 -1.421875 13.25 4.234375 
Q 6.78125 9.90625 6.78125 20.515625 
Q 6.78125 27.484375 10.78125 32.3125 
Q 14.796875 37.15625 21.921875 38.8125 
z
M 18.3125 54.390625 
Q 18.3125 48.734375 21.84375 45.5625 
Q 25.390625 42.390625 31.78125 42.390625 
Q 38.140625 42.390625 41.71875 45.5625 
Q 45.3125 48.734375 45.3125 54.390625 
Q 45.3125 60.0625 41.71875 63.234375 
Q 38.140625 66.40625 31.78125 66.40625 
Q 25.390625 66.40625 21.84375 63.234375 
Q 18.3125 60.0625 18.3125 54.390625 
z
" id="DejaVuSans-56"/>
      </defs>
      <use xlink:href="#DejaVuSans-50"/>
      <use x="63.623047" xlink:href="#DejaVuSans-48"/>
      <use x="127.246094" xlink:href="#DejaVuSans-49"/>
      <use x="190.869141" xlink:href="#DejaVuSans-55"/>
      <use x="254.492188" xlink:href="#DejaVuSans-32"/>
      <use x="286.279297" xlink:href="#DejaVuSans-116"/>
      <use x="325.488281" xlink:href="#DejaVuSans-111"/>
      <use x="386.669922" xlink:href="#DejaVuSans-32"/>
      <use x="418.457031" xlink:href="#DejaVuSans-50"/>
      <use x="482.080078" xlink:href="#DejaVuSans-48"/>
      <use x="545.703125" xlink:href="#DejaVuSans-49"/>
      <use x="609.326172" xlink:href="#DejaVuSans-56"/>
     </g>
    </g>
    <g id="patch_94">
     <path d="M 1079.775 126.985312 
L 1099.775 126.985312 
L 1099.775 119.985312 
L 1079.775 119.985312 
z
" style="fill:#e377c2;"/>
    </g>
    <g id="text_26">
     <!-- 2018 to 2019 -->
     <g transform="translate(1107.775 126.985312)scale(0.1 -0.1)">
      <defs>
       <path d="M 10.984375 1.515625 
L 10.984375 10.5 
Q 14.703125 8.734375 18.5 7.8125 
Q 22.3125 6.890625 25.984375 6.890625 
Q 35.75 6.890625 40.890625 13.453125 
Q 46.046875 20.015625 46.78125 33.40625 
Q 43.953125 29.203125 39.59375 26.953125 
Q 35.25 24.703125 29.984375 24.703125 
Q 19.046875 24.703125 12.671875 31.3125 
Q 6.296875 37.9375 6.296875 49.421875 
Q 6.296875 60.640625 12.9375 67.421875 
Q 19.578125 74.21875 30.609375 74.21875 
Q 43.265625 74.21875 49.921875 64.515625 
Q 56.59375 54.828125 56.59375 36.375 
Q 56.59375 19.140625 48.40625 8.859375 
Q 40.234375 -1.421875 26.421875 -1.421875 
Q 22.703125 -1.421875 18.890625 -0.6875 
Q 15.09375 0.046875 10.984375 1.515625 
z
M 30.609375 32.421875 
Q 37.25 32.421875 41.125 36.953125 
Q 45.015625 41.5 45.015625 49.421875 
Q 45.015625 57.28125 41.125 61.84375 
Q 37.25 66.40625 30.609375 66.40625 
Q 23.96875 66.40625 20.09375 61.84375 
Q 16.21875 57.28125 16.21875 49.421875 
Q 16.21875 41.5 20.09375 36.953125 
Q 23.96875 32.421875 30.609375 32.421875 
z
" id="DejaVuSans-57"/>
      </defs>
      <use xlink:href="#DejaVuSans-50"/>
      <use x="63.623047" xlink:href="#DejaVuSans-48"/>
      <use x="127.246094" xlink:href="#DejaVuSans-49"/>
      <use x="190.869141" xlink:href="#DejaVuSans-56"/>
      <use x="254.492188" xlink:href="#DejaVuSans-32"/>
      <use x="286.279297" xlink:href="#DejaVuSans-116"/>
      <use x="325.488281" xlink:href="#DejaVuSans-111"/>
      <use x="386.669922" xlink:href="#DejaVuSans-32"/>
      <use x="418.457031" xlink:href="#DejaVuSans-50"/>
      <use x="482.080078" xlink:href="#DejaVuSans-48"/>
      <use x="545.703125" xlink:href="#DejaVuSans-49"/>
      <use x="609.326172" xlink:href="#DejaVuSans-57"/>
     </g>
    </g>
    <g id="patch_95">
     <path d="M 1079.775 141.663437 
L 1099.775 141.663437 
L 1099.775 134.663437 
L 1079.775 134.663437 
z
" style="fill:#7f7f7f;"/>
    </g>
    <g id="text_27">
     <!-- 2019 to 2020 -->
     <g transform="translate(1107.775 141.663437)scale(0.1 -0.1)">
      <use xlink:href="#DejaVuSans-50"/>
      <use x="63.623047" xlink:href="#DejaVuSans-48"/>
      <use x="127.246094" xlink:href="#DejaVuSans-49"/>
      <use x="190.869141" xlink:href="#DejaVuSans-57"/>
      <use x="254.492188" xlink:href="#DejaVuSans-32"/>
      <use x="286.279297" xlink:href="#DejaVuSans-116"/>
      <use x="325.488281" xlink:href="#DejaVuSans-111"/>
      <use x="386.669922" xlink:href="#DejaVuSans-32"/>
      <use x="418.457031" xlink:href="#DejaVuSans-50"/>
      <use x="482.080078" xlink:href="#DejaVuSans-48"/>
      <use x="545.703125" xlink:href="#DejaVuSans-50"/>
      <use x="609.326172" xlink:href="#DejaVuSans-48"/>
     </g>
    </g>
   </g>
  </g>
 </g>
 <defs>
  <clipPath id="pdf1c19fe60">
   <rect height="543.6" width="1116" x="68.070313" y="22.318125"/>
  </clipPath>
 </defs>
</svg>
