<?xml version="1.0" encoding="utf-8" standalone="no"?>
<!DOCTYPE svg PUBLIC "-//W3C//DTD SVG 1.1//EN"
  "http://www.w3.org/Graphics/SVG/1.1/DTD/svg11.dtd">
<svg height="870.81859pt" version="1.1" viewBox="0 0 1206.797499 870.81859" width="1206.797499pt" xmlns="http://www.w3.org/2000/svg" xmlns:xlink="http://www.w3.org/1999/xlink">
 <metadata>
  <rdf:RDF xmlns:cc="http://creativecommons.org/ns#" xmlns:dc="http://purl.org/dc/elements/1.1/" xmlns:rdf="http://www.w3.org/1999/02/22-rdf-syntax-ns#">
   <cc:Work>
    <dc:type rdf:resource="http://purl.org/dc/dcmitype/StillImage"/>
    <dc:date>2022-02-15T12:59:26.600000</dc:date>
    <dc:format>image/svg+xml</dc:format>
    <dc:creator>
     <cc:Agent>
      <dc:title>Matplotlib v3.4.3, https://matplotlib.org/</dc:title>
     </cc:Agent>
    </dc:creator>
   </cc:Work>
  </rdf:RDF>
 </metadata>
 <defs>
  <style type="text/css">*{stroke-linecap:butt;stroke-linejoin:round;}</style>
 </defs>
 <g id="figure_1">
  <g id="patch_1">
   <path d="M 0 870.81859 
L 1206.797499 870.81859 
L 1206.797499 0 
L 0 0 
z
" style="fill:none;"/>
  </g>
  <g id="axes_1">
   <g id="patch_2">
    <path d="M 68.070313 565.918125 
L 1184.070312 565.918125 
L 1184.070312 22.318125 
L 68.070313 22.318125 
z
" style="fill:#ffffff;"/>
   </g>
   <g id="patch_3">
    <path clip-path="url(#p5c9ee258d2)" d="M 95.970313 318.292887 
L 102.945312 318.292887 
L 102.945312 308.973425 
L 95.970313 308.973425 
z
" style="fill:#1f77b4;"/>
   </g>
   <g id="patch_4">
    <path clip-path="url(#p5c9ee258d2)" d="M 207.570312 318.292887 
L 214.545312 318.292887 
L 214.545312 541.209034 
L 207.570312 541.209034 
z
" style="fill:#1f77b4;"/>
   </g>
   <g id="patch_5">
    <path clip-path="url(#p5c9ee258d2)" d="M 319.170313 318.292887 
L 326.145313 318.292887 
L 326.145313 391.134883 
L 319.170313 391.134883 
z
" style="fill:#1f77b4;"/>
   </g>
   <g id="patch_6">
    <path clip-path="url(#p5c9ee258d2)" d="M 430.770313 318.292887 
L 437.745313 318.292887 
L 437.745313 298.864504 
L 430.770313 298.864504 
z
" style="fill:#1f77b4;"/>
   </g>
   <g id="patch_7">
    <path clip-path="url(#p5c9ee258d2)" d="M 542.370313 318.292887 
L 549.345313 318.292887 
L 549.345313 324.550791 
L 542.370313 324.550791 
z
" style="fill:#1f77b4;"/>
   </g>
   <g id="patch_8">
    <path clip-path="url(#p5c9ee258d2)" d="M 653.970313 318.292887 
L 660.945313 318.292887 
L 660.945313 321.10413 
L 653.970313 321.10413 
z
" style="fill:#1f77b4;"/>
   </g>
   <g id="patch_9">
    <path clip-path="url(#p5c9ee258d2)" d="M 765.570312 318.292887 
L 772.545313 318.292887 
L 772.545313 327.72788 
L 765.570312 327.72788 
z
" style="fill:#1f77b4;"/>
   </g>
   <g id="patch_10">
    <path clip-path="url(#p5c9ee258d2)" d="M 877.170313 318.292887 
L 884.145313 318.292887 
L 884.145313 330.231041 
L 877.170313 330.231041 
z
" style="fill:#1f77b4;"/>
   </g>
   <g id="patch_11">
    <path clip-path="url(#p5c9ee258d2)" d="M 988.770313 318.292887 
L 995.745313 318.292887 
L 995.745313 319.717764 
L 988.770313 319.717764 
z
" style="fill:#1f77b4;"/>
   </g>
   <g id="patch_12">
    <path clip-path="url(#p5c9ee258d2)" d="M 1100.370313 318.292887 
L 1107.345313 318.292887 
L 1107.345313 348.908476 
L 1100.370313 348.908476 
z
" style="fill:#1f77b4;"/>
   </g>
   <g id="patch_13">
    <path clip-path="url(#p5c9ee258d2)" d="M 102.945313 318.292887 
L 109.920313 318.292887 
L 109.920313 347.464345 
L 102.945313 347.464345 
z
" style="fill:#ff7f0e;"/>
   </g>
   <g id="patch_14">
    <path clip-path="url(#p5c9ee258d2)" d="M 214.545313 318.292887 
L 221.520313 318.292887 
L 221.520313 47.027216 
L 214.545313 47.027216 
z
" style="fill:#ff7f0e;"/>
   </g>
   <g id="patch_15">
    <path clip-path="url(#p5c9ee258d2)" d="M 326.145313 318.292887 
L 333.120313 318.292887 
L 333.120313 330.808694 
L 326.145313 330.808694 
z
" style="fill:#ff7f0e;"/>
   </g>
   <g id="patch_16">
    <path clip-path="url(#p5c9ee258d2)" d="M 437.745313 318.292887 
L 444.720313 318.292887 
L 444.720313 344.036939 
L 437.745313 344.036939 
z
" style="fill:#ff7f0e;"/>
   </g>
   <g id="patch_17">
    <path clip-path="url(#p5c9ee258d2)" d="M 549.345313 318.292887 
L 556.320313 318.292887 
L 556.320313 321.989864 
L 549.345313 321.989864 
z
" style="fill:#ff7f0e;"/>
   </g>
   <g id="patch_18">
    <path clip-path="url(#p5c9ee258d2)" d="M 660.945312 318.292887 
L 667.920313 318.292887 
L 667.920313 319.467448 
L 660.945312 319.467448 
z
" style="fill:#ff7f0e;"/>
   </g>
   <g id="patch_19">
    <path clip-path="url(#p5c9ee258d2)" d="M 772.545313 318.292887 
L 779.520313 318.292887 
L 779.520313 315.65494 
L 772.545313 315.65494 
z
" style="fill:#ff7f0e;"/>
   </g>
   <g id="patch_20">
    <path clip-path="url(#p5c9ee258d2)" d="M 884.145313 318.292887 
L 891.120313 318.292887 
L 891.120313 296.611659 
L 884.145313 296.611659 
z
" style="fill:#ff7f0e;"/>
   </g>
   <g id="patch_21">
    <path clip-path="url(#p5c9ee258d2)" d="M 995.745313 318.292887 
L 1002.720313 318.292887 
L 1002.720313 320.102865 
L 995.745313 320.102865 
z
" style="fill:#ff7f0e;"/>
   </g>
   <g id="patch_22">
    <path clip-path="url(#p5c9ee258d2)" d="M 1107.345313 318.292887 
L 1114.320312 318.292887 
L 1114.320312 356.572001 
L 1107.345313 356.572001 
z
" style="fill:#ff7f0e;"/>
   </g>
   <g id="patch_23">
    <path clip-path="url(#p5c9ee258d2)" d="M 109.920313 318.292887 
L 116.895313 318.292887 
L 116.895313 339.589014 
L 109.920313 339.589014 
z
" style="fill:#2ca02c;"/>
   </g>
   <g id="patch_24">
    <path clip-path="url(#p5c9ee258d2)" d="M 221.520313 318.292887 
L 228.495313 318.292887 
L 228.495313 234.725808 
L 221.520313 234.725808 
z
" style="fill:#2ca02c;"/>
   </g>
   <g id="patch_25">
    <path clip-path="url(#p5c9ee258d2)" d="M 333.120313 318.292887 
L 340.095313 318.292887 
L 340.095313 203.821393 
L 333.120313 203.821393 
z
" style="fill:#2ca02c;"/>
   </g>
   <g id="patch_26">
    <path clip-path="url(#p5c9ee258d2)" d="M 444.720313 318.292887 
L 451.695313 318.292887 
L 451.695313 356.687532 
L 444.720313 356.687532 
z
" style="fill:#2ca02c;"/>
   </g>
   <g id="patch_27">
    <path clip-path="url(#p5c9ee258d2)" d="M 556.320312 318.292887 
L 563.295313 318.292887 
L 563.295313 309.088955 
L 556.320312 309.088955 
z
" style="fill:#2ca02c;"/>
   </g>
   <g id="patch_28">
    <path clip-path="url(#p5c9ee258d2)" d="M 667.920313 318.292887 
L 674.895313 318.292887 
L 674.895313 318.83203 
L 667.920313 318.83203 
z
" style="fill:#2ca02c;"/>
   </g>
   <g id="patch_29">
    <path clip-path="url(#p5c9ee258d2)" d="M 779.520313 318.292887 
L 786.495313 318.292887 
L 786.495313 316.040042 
L 779.520313 316.040042 
z
" style="fill:#2ca02c;"/>
   </g>
   <g id="patch_30">
    <path clip-path="url(#p5c9ee258d2)" d="M 891.120313 318.292887 
L 898.095313 318.292887 
L 898.095313 318.90905 
L 891.120313 318.90905 
z
" style="fill:#2ca02c;"/>
   </g>
   <g id="patch_31">
    <path clip-path="url(#p5c9ee258d2)" d="M 1002.720313 318.292887 
L 1009.695313 318.292887 
L 1009.695313 322.683047 
L 1002.720313 322.683047 
z
" style="fill:#2ca02c;"/>
   </g>
   <g id="patch_32">
    <path clip-path="url(#p5c9ee258d2)" d="M 1114.320312 318.292887 
L 1121.295312 318.292887 
L 1121.295312 317.195347 
L 1114.320312 317.195347 
z
" style="fill:#2ca02c;"/>
   </g>
   <g id="patch_33">
    <path clip-path="url(#p5c9ee258d2)" d="M 116.895313 318.292887 
L 123.870313 318.292887 
L 123.870313 328.960206 
L 116.895313 328.960206 
z
" style="fill:#d62728;"/>
   </g>
   <g id="patch_34">
    <path clip-path="url(#p5c9ee258d2)" d="M 228.495313 318.292887 
L 235.470313 318.292887 
L 235.470313 202.897148 
L 228.495313 202.897148 
z
" style="fill:#d62728;"/>
   </g>
   <g id="patch_35">
    <path clip-path="url(#p5c9ee258d2)" d="M 340.095313 318.292887 
L 347.070313 318.292887 
L 347.070313 264.956295 
L 340.095313 264.956295 
z
" style="fill:#d62728;"/>
   </g>
   <g id="patch_36">
    <path clip-path="url(#p5c9ee258d2)" d="M 451.695313 318.292887 
L 458.670313 318.292887 
L 458.670313 311.977219 
L 451.695313 311.977219 
z
" style="fill:#d62728;"/>
   </g>
   <g id="patch_37">
    <path clip-path="url(#p5c9ee258d2)" d="M 563.295313 318.292887 
L 570.270313 318.292887 
L 570.270313 326.091198 
L 563.295313 326.091198 
z
" style="fill:#d62728;"/>
   </g>
   <g id="patch_38">
    <path clip-path="url(#p5c9ee258d2)" d="M 674.895313 318.292887 
L 681.870313 318.292887 
L 681.870313 330.231041 
L 674.895313 330.231041 
z
" style="fill:#d62728;"/>
   </g>
   <g id="patch_39">
    <path clip-path="url(#p5c9ee258d2)" d="M 786.495312 318.292887 
L 793.470312 318.292887 
L 793.470312 328.055217 
L 786.495312 328.055217 
z
" style="fill:#d62728;"/>
   </g>
   <g id="patch_40">
    <path clip-path="url(#p5c9ee258d2)" d="M 898.095313 318.292887 
L 905.070313 318.292887 
L 905.070313 346.405315 
L 898.095313 346.405315 
z
" style="fill:#d62728;"/>
   </g>
   <g id="patch_41">
    <path clip-path="url(#p5c9ee258d2)" d="M 1009.695312 318.292887 
L 1016.670313 318.292887 
L 1016.670313 320.622753 
L 1009.695312 320.622753 
z
" style="fill:#d62728;"/>
   </g>
   <g id="patch_42">
    <path clip-path="url(#p5c9ee258d2)" d="M 1121.295313 318.292887 
L 1128.270313 318.292887 
L 1128.270313 304.236673 
L 1121.295313 304.236673 
z
" style="fill:#d62728;"/>
   </g>
   <g id="patch_43">
    <path clip-path="url(#p5c9ee258d2)" d="M 123.870313 318.292887 
L 130.845313 318.292887 
L 130.845313 280.495151 
L 123.870313 280.495151 
z
" style="fill:#9467bd;"/>
   </g>
   <g id="patch_44">
    <path clip-path="url(#p5c9ee258d2)" d="M 235.470313 318.292887 
L 242.445313 318.292887 
L 242.445313 312.420086 
L 235.470313 312.420086 
z
" style="fill:#9467bd;"/>
   </g>
   <g id="patch_45">
    <path clip-path="url(#p5c9ee258d2)" d="M 347.070312 318.292887 
L 354.045313 318.292887 
L 354.045313 366.546136 
L 347.070312 366.546136 
z
" style="fill:#9467bd;"/>
   </g>
   <g id="patch_46">
    <path clip-path="url(#p5c9ee258d2)" d="M 458.670313 318.292887 
L 465.645313 318.292887 
L 465.645313 299.576942 
L 458.670313 299.576942 
z
" style="fill:#9467bd;"/>
   </g>
   <g id="patch_47">
    <path clip-path="url(#p5c9ee258d2)" d="M 570.270313 318.292887 
L 577.245313 318.292887 
L 577.245313 322.856343 
L 570.270313 322.856343 
z
" style="fill:#9467bd;"/>
   </g>
   <g id="patch_48">
    <path clip-path="url(#p5c9ee258d2)" d="M 681.870312 318.292887 
L 688.845312 318.292887 
L 688.845312 321.392956 
L 681.870312 321.392956 
z
" style="fill:#9467bd;"/>
   </g>
   <g id="patch_49">
    <path clip-path="url(#p5c9ee258d2)" d="M 793.470313 318.292887 
L 800.445313 318.292887 
L 800.445313 333.273345 
L 793.470313 333.273345 
z
" style="fill:#9467bd;"/>
   </g>
   <g id="patch_50">
    <path clip-path="url(#p5c9ee258d2)" d="M 905.070312 318.292887 
L 912.045313 318.292887 
L 912.045313 311.438076 
L 905.070312 311.438076 
z
" style="fill:#9467bd;"/>
   </g>
   <g id="patch_51">
    <path clip-path="url(#p5c9ee258d2)" d="M 1016.670313 318.292887 
L 1023.645313 318.292887 
L 1023.645313 320.199141 
L 1016.670313 320.199141 
z
" style="fill:#9467bd;"/>
   </g>
   <g id="patch_52">
    <path clip-path="url(#p5c9ee258d2)" d="M 1128.270313 318.292887 
L 1135.245312 318.292887 
L 1135.245312 313.999003 
L 1128.270313 313.999003 
z
" style="fill:#9467bd;"/>
   </g>
   <g id="patch_53">
    <path clip-path="url(#p5c9ee258d2)" d="M 130.845313 318.292887 
L 137.820312 318.292887 
L 137.820312 261.124533 
L 130.845313 261.124533 
z
" style="fill:#8c564b;"/>
   </g>
   <g id="patch_54">
    <path clip-path="url(#p5c9ee258d2)" d="M 242.445312 318.292887 
L 249.420312 318.292887 
L 249.420312 332.541652 
L 242.445312 332.541652 
z
" style="fill:#8c564b;"/>
   </g>
   <g id="patch_55">
    <path clip-path="url(#p5c9ee258d2)" d="M 354.045313 318.292887 
L 361.020313 318.292887 
L 361.020313 305.160918 
L 354.045313 305.160918 
z
" style="fill:#8c564b;"/>
   </g>
   <g id="patch_56">
    <path clip-path="url(#p5c9ee258d2)" d="M 465.645313 318.292887 
L 472.620313 318.292887 
L 472.620313 323.472506 
L 465.645313 323.472506 
z
" style="fill:#8c564b;"/>
   </g>
   <g id="patch_57">
    <path clip-path="url(#p5c9ee258d2)" d="M 577.245313 318.292887 
L 584.220313 318.292887 
L 584.220313 319.602233 
L 577.245313 319.602233 
z
" style="fill:#8c564b;"/>
   </g>
   <g id="patch_58">
    <path clip-path="url(#p5c9ee258d2)" d="M 688.845313 318.292887 
L 695.820313 318.292887 
L 695.820313 345.692877 
L 688.845313 345.692877 
z
" style="fill:#8c564b;"/>
   </g>
   <g id="patch_59">
    <path clip-path="url(#p5c9ee258d2)" d="M 800.445312 318.292887 
L 807.420313 318.292887 
L 807.420313 318.755009 
L 800.445312 318.755009 
z
" style="fill:#8c564b;"/>
   </g>
   <g id="patch_60">
    <path clip-path="url(#p5c9ee258d2)" d="M 912.045313 318.292887 
L 919.020313 318.292887 
L 919.020313 353.471932 
L 912.045313 353.471932 
z
" style="fill:#8c564b;"/>
   </g>
   <g id="patch_61">
    <path clip-path="url(#p5c9ee258d2)" d="M 1023.645313 318.292887 
L 1030.620312 318.292887 
L 1030.620312 317.099072 
L 1023.645313 317.099072 
z
" style="fill:#8c564b;"/>
   </g>
   <g id="patch_62">
    <path clip-path="url(#p5c9ee258d2)" d="M 1135.245313 318.292887 
L 1142.220313 318.292887 
L 1142.220313 312.092749 
L 1135.245313 312.092749 
z
" style="fill:#8c564b;"/>
   </g>
   <g id="patch_63">
    <path clip-path="url(#p5c9ee258d2)" d="M 137.820312 318.292887 
L 144.795312 318.292887 
L 144.795312 352.258861 
L 137.820312 352.258861 
z
" style="fill:#e377c2;"/>
   </g>
   <g id="patch_64">
    <path clip-path="url(#p5c9ee258d2)" d="M 249.420313 318.292887 
L 256.395313 318.292887 
L 256.395313 301.849043 
L 249.420313 301.849043 
z
" style="fill:#e377c2;"/>
   </g>
   <g id="patch_65">
    <path clip-path="url(#p5c9ee258d2)" d="M 361.020313 318.292887 
L 367.995313 318.292887 
L 367.995313 310.263516 
L 361.020313 310.263516 
z
" style="fill:#e377c2;"/>
   </g>
   <g id="patch_66">
    <path clip-path="url(#p5c9ee258d2)" d="M 472.620313 318.292887 
L 479.595313 318.292887 
L 479.595313 311.784668 
L 472.620313 311.784668 
z
" style="fill:#e377c2;"/>
   </g>
   <g id="patch_67">
    <path clip-path="url(#p5c9ee258d2)" d="M 584.220313 318.292887 
L 591.195313 318.292887 
L 591.195313 316.617695 
L 584.220313 316.617695 
z
" style="fill:#e377c2;"/>
   </g>
   <g id="patch_68">
    <path clip-path="url(#p5c9ee258d2)" d="M 695.820312 318.292887 
L 702.795313 318.292887 
L 702.795313 283.498944 
L 695.820312 283.498944 
z
" style="fill:#e377c2;"/>
   </g>
   <g id="patch_69">
    <path clip-path="url(#p5c9ee258d2)" d="M 807.420313 318.292887 
L 814.395313 318.292887 
L 814.395313 323.395485 
L 807.420313 323.395485 
z
" style="fill:#e377c2;"/>
   </g>
   <g id="patch_70">
    <path clip-path="url(#p5c9ee258d2)" d="M 919.020313 318.292887 
L 925.995313 318.292887 
L 925.995313 375.596027 
L 919.020313 375.596027 
z
" style="fill:#e377c2;"/>
   </g>
   <g id="patch_71">
    <path clip-path="url(#p5c9ee258d2)" d="M 1030.620313 318.292887 
L 1037.595313 318.292887 
L 1037.595313 322.837088 
L 1030.620313 322.837088 
z
" style="fill:#e377c2;"/>
   </g>
   <g id="patch_72">
    <path clip-path="url(#p5c9ee258d2)" d="M 1142.220313 318.292887 
L 1149.195312 318.292887 
L 1149.195312 309.608843 
L 1142.220313 309.608843 
z
" style="fill:#e377c2;"/>
   </g>
   <g id="patch_73">
    <path clip-path="url(#p5c9ee258d2)" d="M 144.795313 318.292887 
L 151.770313 318.292887 
L 151.770313 487.391065 
L 144.795313 487.391065 
z
" style="fill:#7f7f7f;"/>
   </g>
   <g id="patch_74">
    <path clip-path="url(#p5c9ee258d2)" d="M 256.395313 318.292887 
L 263.370313 318.292887 
L 263.370313 416.705639 
L 256.395313 416.705639 
z
" style="fill:#7f7f7f;"/>
   </g>
   <g id="patch_75">
    <path clip-path="url(#p5c9ee258d2)" d="M 367.995313 318.292887 
L 374.970313 318.292887 
L 374.970313 462.436472 
L 367.995313 462.436472 
z
" style="fill:#7f7f7f;"/>
   </g>
   <g id="patch_76">
    <path clip-path="url(#p5c9ee258d2)" d="M 479.595313 318.292887 
L 486.570313 318.292887 
L 486.570313 351.91227 
L 479.595313 351.91227 
z
" style="fill:#7f7f7f;"/>
   </g>
   <g id="patch_77">
    <path clip-path="url(#p5c9ee258d2)" d="M 591.195312 318.292887 
L 598.170313 318.292887 
L 598.170313 310.590852 
L 591.195312 310.590852 
z
" style="fill:#7f7f7f;"/>
   </g>
   <g id="patch_78">
    <path clip-path="url(#p5c9ee258d2)" d="M 702.795313 318.292887 
L 709.770313 318.292887 
L 709.770313 301.637237 
L 702.795313 301.637237 
z
" style="fill:#7f7f7f;"/>
   </g>
   <g id="patch_79">
    <path clip-path="url(#p5c9ee258d2)" d="M 814.395313 318.292887 
L 821.370313 318.292887 
L 821.370313 299.981299 
L 814.395313 299.981299 
z
" style="fill:#7f7f7f;"/>
   </g>
   <g id="patch_80">
    <path clip-path="url(#p5c9ee258d2)" d="M 925.995313 318.292887 
L 932.970313 318.292887 
L 932.970313 201.703333 
L 925.995313 201.703333 
z
" style="fill:#7f7f7f;"/>
   </g>
   <g id="patch_81">
    <path clip-path="url(#p5c9ee258d2)" d="M 1037.595313 318.292887 
L 1044.570312 318.292887 
L 1044.570312 305.757825 
L 1037.595313 305.757825 
z
" style="fill:#7f7f7f;"/>
   </g>
   <g id="patch_82">
    <path clip-path="url(#p5c9ee258d2)" d="M 1149.195312 318.292887 
L 1156.170312 318.292887 
L 1156.170312 227.755466 
L 1149.195312 227.755466 
z
" style="fill:#7f7f7f;"/>
   </g>
   <g id="matplotlib.axis_1">
    <g id="xtick_1">
     <g id="line2d_1">
      <defs>
       <path d="M 0 0 
L 0 3.5 
" id="me083d8d639" style="stroke:#000000;stroke-width:0.8;"/>
      </defs>
      <g>
       <use style="stroke:#000000;stroke-width:0.8;" x="123.870313" xlink:href="#me083d8d639" y="565.918125"/>
      </g>
     </g>
     <g id="text_1">
      <!-- First: Priority workers -->
      <g transform="translate(88.461388 653.011226)rotate(-45)scale(0.1 -0.1)">
       <defs>
        <path d="M 628 4666 
L 3309 4666 
L 3309 4134 
L 1259 4134 
L 1259 2759 
L 3109 2759 
L 3109 2228 
L 1259 2228 
L 1259 0 
L 628 0 
L 628 4666 
z
" id="DejaVuSans-46" transform="scale(0.015625)"/>
        <path d="M 603 3500 
L 1178 3500 
L 1178 0 
L 603 0 
L 603 3500 
z
M 603 4863 
L 1178 4863 
L 1178 4134 
L 603 4134 
L 603 4863 
z
" id="DejaVuSans-69" transform="scale(0.015625)"/>
        <path d="M 2631 2963 
Q 2534 3019 2420 3045 
Q 2306 3072 2169 3072 
Q 1681 3072 1420 2755 
Q 1159 2438 1159 1844 
L 1159 0 
L 581 0 
L 581 3500 
L 1159 3500 
L 1159 2956 
Q 1341 3275 1631 3429 
Q 1922 3584 2338 3584 
Q 2397 3584 2469 3576 
Q 2541 3569 2628 3553 
L 2631 2963 
z
" id="DejaVuSans-72" transform="scale(0.015625)"/>
        <path d="M 2834 3397 
L 2834 2853 
Q 2591 2978 2328 3040 
Q 2066 3103 1784 3103 
Q 1356 3103 1142 2972 
Q 928 2841 928 2578 
Q 928 2378 1081 2264 
Q 1234 2150 1697 2047 
L 1894 2003 
Q 2506 1872 2764 1633 
Q 3022 1394 3022 966 
Q 3022 478 2636 193 
Q 2250 -91 1575 -91 
Q 1294 -91 989 -36 
Q 684 19 347 128 
L 347 722 
Q 666 556 975 473 
Q 1284 391 1588 391 
Q 1994 391 2212 530 
Q 2431 669 2431 922 
Q 2431 1156 2273 1281 
Q 2116 1406 1581 1522 
L 1381 1569 
Q 847 1681 609 1914 
Q 372 2147 372 2553 
Q 372 3047 722 3315 
Q 1072 3584 1716 3584 
Q 2034 3584 2315 3537 
Q 2597 3491 2834 3397 
z
" id="DejaVuSans-73" transform="scale(0.015625)"/>
        <path d="M 1172 4494 
L 1172 3500 
L 2356 3500 
L 2356 3053 
L 1172 3053 
L 1172 1153 
Q 1172 725 1289 603 
Q 1406 481 1766 481 
L 2356 481 
L 2356 0 
L 1766 0 
Q 1100 0 847 248 
Q 594 497 594 1153 
L 594 3053 
L 172 3053 
L 172 3500 
L 594 3500 
L 594 4494 
L 1172 4494 
z
" id="DejaVuSans-74" transform="scale(0.015625)"/>
        <path d="M 750 794 
L 1409 794 
L 1409 0 
L 750 0 
L 750 794 
z
M 750 3309 
L 1409 3309 
L 1409 2516 
L 750 2516 
L 750 3309 
z
" id="DejaVuSans-3a" transform="scale(0.015625)"/>
        <path id="DejaVuSans-20" transform="scale(0.015625)"/>
        <path d="M 1259 4147 
L 1259 2394 
L 2053 2394 
Q 2494 2394 2734 2622 
Q 2975 2850 2975 3272 
Q 2975 3691 2734 3919 
Q 2494 4147 2053 4147 
L 1259 4147 
z
M 628 4666 
L 2053 4666 
Q 2838 4666 3239 4311 
Q 3641 3956 3641 3272 
Q 3641 2581 3239 2228 
Q 2838 1875 2053 1875 
L 1259 1875 
L 1259 0 
L 628 0 
L 628 4666 
z
" id="DejaVuSans-50" transform="scale(0.015625)"/>
        <path d="M 1959 3097 
Q 1497 3097 1228 2736 
Q 959 2375 959 1747 
Q 959 1119 1226 758 
Q 1494 397 1959 397 
Q 2419 397 2687 759 
Q 2956 1122 2956 1747 
Q 2956 2369 2687 2733 
Q 2419 3097 1959 3097 
z
M 1959 3584 
Q 2709 3584 3137 3096 
Q 3566 2609 3566 1747 
Q 3566 888 3137 398 
Q 2709 -91 1959 -91 
Q 1206 -91 779 398 
Q 353 888 353 1747 
Q 353 2609 779 3096 
Q 1206 3584 1959 3584 
z
" id="DejaVuSans-6f" transform="scale(0.015625)"/>
        <path d="M 2059 -325 
Q 1816 -950 1584 -1140 
Q 1353 -1331 966 -1331 
L 506 -1331 
L 506 -850 
L 844 -850 
Q 1081 -850 1212 -737 
Q 1344 -625 1503 -206 
L 1606 56 
L 191 3500 
L 800 3500 
L 1894 763 
L 2988 3500 
L 3597 3500 
L 2059 -325 
z
" id="DejaVuSans-79" transform="scale(0.015625)"/>
        <path d="M 269 3500 
L 844 3500 
L 1563 769 
L 2278 3500 
L 2956 3500 
L 3675 769 
L 4391 3500 
L 4966 3500 
L 4050 0 
L 3372 0 
L 2619 2869 
L 1863 0 
L 1184 0 
L 269 3500 
z
" id="DejaVuSans-77" transform="scale(0.015625)"/>
        <path d="M 581 4863 
L 1159 4863 
L 1159 1991 
L 2875 3500 
L 3609 3500 
L 1753 1863 
L 3688 0 
L 2938 0 
L 1159 1709 
L 1159 0 
L 581 0 
L 581 4863 
z
" id="DejaVuSans-6b" transform="scale(0.015625)"/>
        <path d="M 3597 1894 
L 3597 1613 
L 953 1613 
Q 991 1019 1311 708 
Q 1631 397 2203 397 
Q 2534 397 2845 478 
Q 3156 559 3463 722 
L 3463 178 
Q 3153 47 2828 -22 
Q 2503 -91 2169 -91 
Q 1331 -91 842 396 
Q 353 884 353 1716 
Q 353 2575 817 3079 
Q 1281 3584 2069 3584 
Q 2775 3584 3186 3129 
Q 3597 2675 3597 1894 
z
M 3022 2063 
Q 3016 2534 2758 2815 
Q 2500 3097 2075 3097 
Q 1594 3097 1305 2825 
Q 1016 2553 972 2059 
L 3022 2063 
z
" id="DejaVuSans-65" transform="scale(0.015625)"/>
       </defs>
       <use xlink:href="#DejaVuSans-46"/>
       <use x="50.269531" xlink:href="#DejaVuSans-69"/>
       <use x="78.052734" xlink:href="#DejaVuSans-72"/>
       <use x="119.166016" xlink:href="#DejaVuSans-73"/>
       <use x="171.265625" xlink:href="#DejaVuSans-74"/>
       <use x="210.474609" xlink:href="#DejaVuSans-3a"/>
       <use x="244.166016" xlink:href="#DejaVuSans-20"/>
       <use x="275.953125" xlink:href="#DejaVuSans-50"/>
       <use x="334.505859" xlink:href="#DejaVuSans-72"/>
       <use x="375.619141" xlink:href="#DejaVuSans-69"/>
       <use x="403.402344" xlink:href="#DejaVuSans-6f"/>
       <use x="464.583984" xlink:href="#DejaVuSans-72"/>
       <use x="505.697266" xlink:href="#DejaVuSans-69"/>
       <use x="533.480469" xlink:href="#DejaVuSans-74"/>
       <use x="572.689453" xlink:href="#DejaVuSans-79"/>
       <use x="631.869141" xlink:href="#DejaVuSans-20"/>
       <use x="663.65625" xlink:href="#DejaVuSans-77"/>
       <use x="745.443359" xlink:href="#DejaVuSans-6f"/>
       <use x="806.625" xlink:href="#DejaVuSans-72"/>
       <use x="847.738281" xlink:href="#DejaVuSans-6b"/>
       <use x="902.023438" xlink:href="#DejaVuSans-65"/>
       <use x="963.546875" xlink:href="#DejaVuSans-72"/>
       <use x="1004.660156" xlink:href="#DejaVuSans-73"/>
      </g>
     </g>
    </g>
    <g id="xtick_2">
     <g id="line2d_2">
      <g>
       <use style="stroke:#000000;stroke-width:0.8;" x="235.470313" xlink:href="#me083d8d639" y="565.918125"/>
      </g>
     </g>
     <g id="text_2">
      <!-- Second: Professionals with advanced degrees or aliens of exceptional ability -->
      <g transform="translate(102.332049 848.469904)rotate(-45)scale(0.1 -0.1)">
       <defs>
        <path d="M 3425 4513 
L 3425 3897 
Q 3066 4069 2747 4153 
Q 2428 4238 2131 4238 
Q 1616 4238 1336 4038 
Q 1056 3838 1056 3469 
Q 1056 3159 1242 3001 
Q 1428 2844 1947 2747 
L 2328 2669 
Q 3034 2534 3370 2195 
Q 3706 1856 3706 1288 
Q 3706 609 3251 259 
Q 2797 -91 1919 -91 
Q 1588 -91 1214 -16 
Q 841 59 441 206 
L 441 856 
Q 825 641 1194 531 
Q 1563 422 1919 422 
Q 2459 422 2753 634 
Q 3047 847 3047 1241 
Q 3047 1584 2836 1778 
Q 2625 1972 2144 2069 
L 1759 2144 
Q 1053 2284 737 2584 
Q 422 2884 422 3419 
Q 422 4038 858 4394 
Q 1294 4750 2059 4750 
Q 2388 4750 2728 4690 
Q 3069 4631 3425 4513 
z
" id="DejaVuSans-53" transform="scale(0.015625)"/>
        <path d="M 3122 3366 
L 3122 2828 
Q 2878 2963 2633 3030 
Q 2388 3097 2138 3097 
Q 1578 3097 1268 2742 
Q 959 2388 959 1747 
Q 959 1106 1268 751 
Q 1578 397 2138 397 
Q 2388 397 2633 464 
Q 2878 531 3122 666 
L 3122 134 
Q 2881 22 2623 -34 
Q 2366 -91 2075 -91 
Q 1284 -91 818 406 
Q 353 903 353 1747 
Q 353 2603 823 3093 
Q 1294 3584 2113 3584 
Q 2378 3584 2631 3529 
Q 2884 3475 3122 3366 
z
" id="DejaVuSans-63" transform="scale(0.015625)"/>
        <path d="M 3513 2113 
L 3513 0 
L 2938 0 
L 2938 2094 
Q 2938 2591 2744 2837 
Q 2550 3084 2163 3084 
Q 1697 3084 1428 2787 
Q 1159 2491 1159 1978 
L 1159 0 
L 581 0 
L 581 3500 
L 1159 3500 
L 1159 2956 
Q 1366 3272 1645 3428 
Q 1925 3584 2291 3584 
Q 2894 3584 3203 3211 
Q 3513 2838 3513 2113 
z
" id="DejaVuSans-6e" transform="scale(0.015625)"/>
        <path d="M 2906 2969 
L 2906 4863 
L 3481 4863 
L 3481 0 
L 2906 0 
L 2906 525 
Q 2725 213 2448 61 
Q 2172 -91 1784 -91 
Q 1150 -91 751 415 
Q 353 922 353 1747 
Q 353 2572 751 3078 
Q 1150 3584 1784 3584 
Q 2172 3584 2448 3432 
Q 2725 3281 2906 2969 
z
M 947 1747 
Q 947 1113 1208 752 
Q 1469 391 1925 391 
Q 2381 391 2643 752 
Q 2906 1113 2906 1747 
Q 2906 2381 2643 2742 
Q 2381 3103 1925 3103 
Q 1469 3103 1208 2742 
Q 947 2381 947 1747 
z
" id="DejaVuSans-64" transform="scale(0.015625)"/>
        <path d="M 2375 4863 
L 2375 4384 
L 1825 4384 
Q 1516 4384 1395 4259 
Q 1275 4134 1275 3809 
L 1275 3500 
L 2222 3500 
L 2222 3053 
L 1275 3053 
L 1275 0 
L 697 0 
L 697 3053 
L 147 3053 
L 147 3500 
L 697 3500 
L 697 3744 
Q 697 4328 969 4595 
Q 1241 4863 1831 4863 
L 2375 4863 
z
" id="DejaVuSans-66" transform="scale(0.015625)"/>
        <path d="M 2194 1759 
Q 1497 1759 1228 1600 
Q 959 1441 959 1056 
Q 959 750 1161 570 
Q 1363 391 1709 391 
Q 2188 391 2477 730 
Q 2766 1069 2766 1631 
L 2766 1759 
L 2194 1759 
z
M 3341 1997 
L 3341 0 
L 2766 0 
L 2766 531 
Q 2569 213 2275 61 
Q 1981 -91 1556 -91 
Q 1019 -91 701 211 
Q 384 513 384 1019 
Q 384 1609 779 1909 
Q 1175 2209 1959 2209 
L 2766 2209 
L 2766 2266 
Q 2766 2663 2505 2880 
Q 2244 3097 1772 3097 
Q 1472 3097 1187 3025 
Q 903 2953 641 2809 
L 641 3341 
Q 956 3463 1253 3523 
Q 1550 3584 1831 3584 
Q 2591 3584 2966 3190 
Q 3341 2797 3341 1997 
z
" id="DejaVuSans-61" transform="scale(0.015625)"/>
        <path d="M 603 4863 
L 1178 4863 
L 1178 0 
L 603 0 
L 603 4863 
z
" id="DejaVuSans-6c" transform="scale(0.015625)"/>
        <path d="M 3513 2113 
L 3513 0 
L 2938 0 
L 2938 2094 
Q 2938 2591 2744 2837 
Q 2550 3084 2163 3084 
Q 1697 3084 1428 2787 
Q 1159 2491 1159 1978 
L 1159 0 
L 581 0 
L 581 4863 
L 1159 4863 
L 1159 2956 
Q 1366 3272 1645 3428 
Q 1925 3584 2291 3584 
Q 2894 3584 3203 3211 
Q 3513 2838 3513 2113 
z
" id="DejaVuSans-68" transform="scale(0.015625)"/>
        <path d="M 191 3500 
L 800 3500 
L 1894 563 
L 2988 3500 
L 3597 3500 
L 2284 0 
L 1503 0 
L 191 3500 
z
" id="DejaVuSans-76" transform="scale(0.015625)"/>
        <path d="M 2906 1791 
Q 2906 2416 2648 2759 
Q 2391 3103 1925 3103 
Q 1463 3103 1205 2759 
Q 947 2416 947 1791 
Q 947 1169 1205 825 
Q 1463 481 1925 481 
Q 2391 481 2648 825 
Q 2906 1169 2906 1791 
z
M 3481 434 
Q 3481 -459 3084 -895 
Q 2688 -1331 1869 -1331 
Q 1566 -1331 1297 -1286 
Q 1028 -1241 775 -1147 
L 775 -588 
Q 1028 -725 1275 -790 
Q 1522 -856 1778 -856 
Q 2344 -856 2625 -561 
Q 2906 -266 2906 331 
L 2906 616 
Q 2728 306 2450 153 
Q 2172 0 1784 0 
Q 1141 0 747 490 
Q 353 981 353 1791 
Q 353 2603 747 3093 
Q 1141 3584 1784 3584 
Q 2172 3584 2450 3431 
Q 2728 3278 2906 2969 
L 2906 3500 
L 3481 3500 
L 3481 434 
z
" id="DejaVuSans-67" transform="scale(0.015625)"/>
        <path d="M 3513 3500 
L 2247 1797 
L 3578 0 
L 2900 0 
L 1881 1375 
L 863 0 
L 184 0 
L 1544 1831 
L 300 3500 
L 978 3500 
L 1906 2253 
L 2834 3500 
L 3513 3500 
z
" id="DejaVuSans-78" transform="scale(0.015625)"/>
        <path d="M 1159 525 
L 1159 -1331 
L 581 -1331 
L 581 3500 
L 1159 3500 
L 1159 2969 
Q 1341 3281 1617 3432 
Q 1894 3584 2278 3584 
Q 2916 3584 3314 3078 
Q 3713 2572 3713 1747 
Q 3713 922 3314 415 
Q 2916 -91 2278 -91 
Q 1894 -91 1617 61 
Q 1341 213 1159 525 
z
M 3116 1747 
Q 3116 2381 2855 2742 
Q 2594 3103 2138 3103 
Q 1681 3103 1420 2742 
Q 1159 2381 1159 1747 
Q 1159 1113 1420 752 
Q 1681 391 2138 391 
Q 2594 391 2855 752 
Q 3116 1113 3116 1747 
z
" id="DejaVuSans-70" transform="scale(0.015625)"/>
        <path d="M 3116 1747 
Q 3116 2381 2855 2742 
Q 2594 3103 2138 3103 
Q 1681 3103 1420 2742 
Q 1159 2381 1159 1747 
Q 1159 1113 1420 752 
Q 1681 391 2138 391 
Q 2594 391 2855 752 
Q 3116 1113 3116 1747 
z
M 1159 2969 
Q 1341 3281 1617 3432 
Q 1894 3584 2278 3584 
Q 2916 3584 3314 3078 
Q 3713 2572 3713 1747 
Q 3713 922 3314 415 
Q 2916 -91 2278 -91 
Q 1894 -91 1617 61 
Q 1341 213 1159 525 
L 1159 0 
L 581 0 
L 581 4863 
L 1159 4863 
L 1159 2969 
z
" id="DejaVuSans-62" transform="scale(0.015625)"/>
       </defs>
       <use xlink:href="#DejaVuSans-53"/>
       <use x="63.476562" xlink:href="#DejaVuSans-65"/>
       <use x="125" xlink:href="#DejaVuSans-63"/>
       <use x="179.980469" xlink:href="#DejaVuSans-6f"/>
       <use x="241.162109" xlink:href="#DejaVuSans-6e"/>
       <use x="304.541016" xlink:href="#DejaVuSans-64"/>
       <use x="368.017578" xlink:href="#DejaVuSans-3a"/>
       <use x="401.708984" xlink:href="#DejaVuSans-20"/>
       <use x="433.496094" xlink:href="#DejaVuSans-50"/>
       <use x="492.048828" xlink:href="#DejaVuSans-72"/>
       <use x="530.912109" xlink:href="#DejaVuSans-6f"/>
       <use x="592.09375" xlink:href="#DejaVuSans-66"/>
       <use x="627.298828" xlink:href="#DejaVuSans-65"/>
       <use x="688.822266" xlink:href="#DejaVuSans-73"/>
       <use x="740.921875" xlink:href="#DejaVuSans-73"/>
       <use x="793.021484" xlink:href="#DejaVuSans-69"/>
       <use x="820.804688" xlink:href="#DejaVuSans-6f"/>
       <use x="881.986328" xlink:href="#DejaVuSans-6e"/>
       <use x="945.365234" xlink:href="#DejaVuSans-61"/>
       <use x="1006.644531" xlink:href="#DejaVuSans-6c"/>
       <use x="1034.427734" xlink:href="#DejaVuSans-73"/>
       <use x="1086.527344" xlink:href="#DejaVuSans-20"/>
       <use x="1118.314453" xlink:href="#DejaVuSans-77"/>
       <use x="1200.101562" xlink:href="#DejaVuSans-69"/>
       <use x="1227.884766" xlink:href="#DejaVuSans-74"/>
       <use x="1267.09375" xlink:href="#DejaVuSans-68"/>
       <use x="1330.472656" xlink:href="#DejaVuSans-20"/>
       <use x="1362.259766" xlink:href="#DejaVuSans-61"/>
       <use x="1423.539062" xlink:href="#DejaVuSans-64"/>
       <use x="1487.015625" xlink:href="#DejaVuSans-76"/>
       <use x="1546.195312" xlink:href="#DejaVuSans-61"/>
       <use x="1607.474609" xlink:href="#DejaVuSans-6e"/>
       <use x="1670.853516" xlink:href="#DejaVuSans-63"/>
       <use x="1725.833984" xlink:href="#DejaVuSans-65"/>
       <use x="1787.357422" xlink:href="#DejaVuSans-64"/>
       <use x="1850.833984" xlink:href="#DejaVuSans-20"/>
       <use x="1882.621094" xlink:href="#DejaVuSans-64"/>
       <use x="1946.097656" xlink:href="#DejaVuSans-65"/>
       <use x="2007.621094" xlink:href="#DejaVuSans-67"/>
       <use x="2071.097656" xlink:href="#DejaVuSans-72"/>
       <use x="2109.960938" xlink:href="#DejaVuSans-65"/>
       <use x="2171.484375" xlink:href="#DejaVuSans-65"/>
       <use x="2233.007812" xlink:href="#DejaVuSans-73"/>
       <use x="2285.107422" xlink:href="#DejaVuSans-20"/>
       <use x="2316.894531" xlink:href="#DejaVuSans-6f"/>
       <use x="2378.076172" xlink:href="#DejaVuSans-72"/>
       <use x="2419.189453" xlink:href="#DejaVuSans-20"/>
       <use x="2450.976562" xlink:href="#DejaVuSans-61"/>
       <use x="2512.255859" xlink:href="#DejaVuSans-6c"/>
       <use x="2540.039062" xlink:href="#DejaVuSans-69"/>
       <use x="2567.822266" xlink:href="#DejaVuSans-65"/>
       <use x="2629.345703" xlink:href="#DejaVuSans-6e"/>
       <use x="2692.724609" xlink:href="#DejaVuSans-73"/>
       <use x="2744.824219" xlink:href="#DejaVuSans-20"/>
       <use x="2776.611328" xlink:href="#DejaVuSans-6f"/>
       <use x="2837.792969" xlink:href="#DejaVuSans-66"/>
       <use x="2872.998047" xlink:href="#DejaVuSans-20"/>
       <use x="2904.785156" xlink:href="#DejaVuSans-65"/>
       <use x="2964.558594" xlink:href="#DejaVuSans-78"/>
       <use x="3021.988281" xlink:href="#DejaVuSans-63"/>
       <use x="3076.96875" xlink:href="#DejaVuSans-65"/>
       <use x="3138.492188" xlink:href="#DejaVuSans-70"/>
       <use x="3201.96875" xlink:href="#DejaVuSans-74"/>
       <use x="3241.177734" xlink:href="#DejaVuSans-69"/>
       <use x="3268.960938" xlink:href="#DejaVuSans-6f"/>
       <use x="3330.142578" xlink:href="#DejaVuSans-6e"/>
       <use x="3393.521484" xlink:href="#DejaVuSans-61"/>
       <use x="3454.800781" xlink:href="#DejaVuSans-6c"/>
       <use x="3482.583984" xlink:href="#DejaVuSans-20"/>
       <use x="3514.371094" xlink:href="#DejaVuSans-61"/>
       <use x="3575.650391" xlink:href="#DejaVuSans-62"/>
       <use x="3639.126953" xlink:href="#DejaVuSans-69"/>
       <use x="3666.910156" xlink:href="#DejaVuSans-6c"/>
       <use x="3694.693359" xlink:href="#DejaVuSans-69"/>
       <use x="3722.476562" xlink:href="#DejaVuSans-74"/>
       <use x="3761.685547" xlink:href="#DejaVuSans-79"/>
      </g>
     </g>
    </g>
    <g id="xtick_3">
     <g id="line2d_3">
      <g>
       <use style="stroke:#000000;stroke-width:0.8;" x="347.070312" xlink:href="#me083d8d639" y="565.918125"/>
      </g>
     </g>
     <g id="text_3">
      <!-- Third: Skilled workers professionals and unskilled workers -->
      <g transform="translate(246.964985 782.404033)rotate(-45)scale(0.1 -0.1)">
       <defs>
        <path d="M -19 4666 
L 3928 4666 
L 3928 4134 
L 2272 4134 
L 2272 0 
L 1638 0 
L 1638 4134 
L -19 4134 
L -19 4666 
z
" id="DejaVuSans-54" transform="scale(0.015625)"/>
        <path d="M 544 1381 
L 544 3500 
L 1119 3500 
L 1119 1403 
Q 1119 906 1312 657 
Q 1506 409 1894 409 
Q 2359 409 2629 706 
Q 2900 1003 2900 1516 
L 2900 3500 
L 3475 3500 
L 3475 0 
L 2900 0 
L 2900 538 
Q 2691 219 2414 64 
Q 2138 -91 1772 -91 
Q 1169 -91 856 284 
Q 544 659 544 1381 
z
M 1991 3584 
L 1991 3584 
z
" id="DejaVuSans-75" transform="scale(0.015625)"/>
       </defs>
       <use xlink:href="#DejaVuSans-54"/>
       <use x="61.083984" xlink:href="#DejaVuSans-68"/>
       <use x="124.462891" xlink:href="#DejaVuSans-69"/>
       <use x="152.246094" xlink:href="#DejaVuSans-72"/>
       <use x="191.609375" xlink:href="#DejaVuSans-64"/>
       <use x="255.085938" xlink:href="#DejaVuSans-3a"/>
       <use x="288.777344" xlink:href="#DejaVuSans-20"/>
       <use x="320.564453" xlink:href="#DejaVuSans-53"/>
       <use x="384.041016" xlink:href="#DejaVuSans-6b"/>
       <use x="441.951172" xlink:href="#DejaVuSans-69"/>
       <use x="469.734375" xlink:href="#DejaVuSans-6c"/>
       <use x="497.517578" xlink:href="#DejaVuSans-6c"/>
       <use x="525.300781" xlink:href="#DejaVuSans-65"/>
       <use x="586.824219" xlink:href="#DejaVuSans-64"/>
       <use x="650.300781" xlink:href="#DejaVuSans-20"/>
       <use x="682.087891" xlink:href="#DejaVuSans-77"/>
       <use x="763.875" xlink:href="#DejaVuSans-6f"/>
       <use x="825.056641" xlink:href="#DejaVuSans-72"/>
       <use x="866.169922" xlink:href="#DejaVuSans-6b"/>
       <use x="920.455078" xlink:href="#DejaVuSans-65"/>
       <use x="981.978516" xlink:href="#DejaVuSans-72"/>
       <use x="1023.091797" xlink:href="#DejaVuSans-73"/>
       <use x="1075.191406" xlink:href="#DejaVuSans-20"/>
       <use x="1106.978516" xlink:href="#DejaVuSans-70"/>
       <use x="1170.455078" xlink:href="#DejaVuSans-72"/>
       <use x="1209.318359" xlink:href="#DejaVuSans-6f"/>
       <use x="1270.5" xlink:href="#DejaVuSans-66"/>
       <use x="1305.705078" xlink:href="#DejaVuSans-65"/>
       <use x="1367.228516" xlink:href="#DejaVuSans-73"/>
       <use x="1419.328125" xlink:href="#DejaVuSans-73"/>
       <use x="1471.427734" xlink:href="#DejaVuSans-69"/>
       <use x="1499.210938" xlink:href="#DejaVuSans-6f"/>
       <use x="1560.392578" xlink:href="#DejaVuSans-6e"/>
       <use x="1623.771484" xlink:href="#DejaVuSans-61"/>
       <use x="1685.050781" xlink:href="#DejaVuSans-6c"/>
       <use x="1712.833984" xlink:href="#DejaVuSans-73"/>
       <use x="1764.933594" xlink:href="#DejaVuSans-20"/>
       <use x="1796.720703" xlink:href="#DejaVuSans-61"/>
       <use x="1858" xlink:href="#DejaVuSans-6e"/>
       <use x="1921.378906" xlink:href="#DejaVuSans-64"/>
       <use x="1984.855469" xlink:href="#DejaVuSans-20"/>
       <use x="2016.642578" xlink:href="#DejaVuSans-75"/>
       <use x="2080.021484" xlink:href="#DejaVuSans-6e"/>
       <use x="2143.400391" xlink:href="#DejaVuSans-73"/>
       <use x="2195.5" xlink:href="#DejaVuSans-6b"/>
       <use x="2253.410156" xlink:href="#DejaVuSans-69"/>
       <use x="2281.193359" xlink:href="#DejaVuSans-6c"/>
       <use x="2308.976562" xlink:href="#DejaVuSans-6c"/>
       <use x="2336.759766" xlink:href="#DejaVuSans-65"/>
       <use x="2398.283203" xlink:href="#DejaVuSans-64"/>
       <use x="2461.759766" xlink:href="#DejaVuSans-20"/>
       <use x="2493.546875" xlink:href="#DejaVuSans-77"/>
       <use x="2575.333984" xlink:href="#DejaVuSans-6f"/>
       <use x="2636.515625" xlink:href="#DejaVuSans-72"/>
       <use x="2677.628906" xlink:href="#DejaVuSans-6b"/>
       <use x="2731.914062" xlink:href="#DejaVuSans-65"/>
       <use x="2793.4375" xlink:href="#DejaVuSans-72"/>
       <use x="2834.550781" xlink:href="#DejaVuSans-73"/>
      </g>
     </g>
    </g>
    <g id="xtick_4">
     <g id="line2d_4">
      <g>
       <use style="stroke:#000000;stroke-width:0.8;" x="458.670313" xlink:href="#me083d8d639" y="565.918125"/>
      </g>
     </g>
     <g id="text_4">
      <!-- Fourth: Certain special immigrants -->
      <g transform="translate(399.275 700.984002)rotate(-45)scale(0.1 -0.1)">
       <defs>
        <path d="M 4122 4306 
L 4122 3641 
Q 3803 3938 3442 4084 
Q 3081 4231 2675 4231 
Q 1875 4231 1450 3742 
Q 1025 3253 1025 2328 
Q 1025 1406 1450 917 
Q 1875 428 2675 428 
Q 3081 428 3442 575 
Q 3803 722 4122 1019 
L 4122 359 
Q 3791 134 3420 21 
Q 3050 -91 2638 -91 
Q 1578 -91 968 557 
Q 359 1206 359 2328 
Q 359 3453 968 4101 
Q 1578 4750 2638 4750 
Q 3056 4750 3426 4639 
Q 3797 4528 4122 4306 
z
" id="DejaVuSans-43" transform="scale(0.015625)"/>
        <path d="M 3328 2828 
Q 3544 3216 3844 3400 
Q 4144 3584 4550 3584 
Q 5097 3584 5394 3201 
Q 5691 2819 5691 2113 
L 5691 0 
L 5113 0 
L 5113 2094 
Q 5113 2597 4934 2840 
Q 4756 3084 4391 3084 
Q 3944 3084 3684 2787 
Q 3425 2491 3425 1978 
L 3425 0 
L 2847 0 
L 2847 2094 
Q 2847 2600 2669 2842 
Q 2491 3084 2119 3084 
Q 1678 3084 1418 2786 
Q 1159 2488 1159 1978 
L 1159 0 
L 581 0 
L 581 3500 
L 1159 3500 
L 1159 2956 
Q 1356 3278 1631 3431 
Q 1906 3584 2284 3584 
Q 2666 3584 2933 3390 
Q 3200 3197 3328 2828 
z
" id="DejaVuSans-6d" transform="scale(0.015625)"/>
       </defs>
       <use xlink:href="#DejaVuSans-46"/>
       <use x="53.894531" xlink:href="#DejaVuSans-6f"/>
       <use x="115.076172" xlink:href="#DejaVuSans-75"/>
       <use x="178.455078" xlink:href="#DejaVuSans-72"/>
       <use x="219.568359" xlink:href="#DejaVuSans-74"/>
       <use x="258.777344" xlink:href="#DejaVuSans-68"/>
       <use x="322.15625" xlink:href="#DejaVuSans-3a"/>
       <use x="355.847656" xlink:href="#DejaVuSans-20"/>
       <use x="387.634766" xlink:href="#DejaVuSans-43"/>
       <use x="457.458984" xlink:href="#DejaVuSans-65"/>
       <use x="518.982422" xlink:href="#DejaVuSans-72"/>
       <use x="560.095703" xlink:href="#DejaVuSans-74"/>
       <use x="599.304688" xlink:href="#DejaVuSans-61"/>
       <use x="660.583984" xlink:href="#DejaVuSans-69"/>
       <use x="688.367188" xlink:href="#DejaVuSans-6e"/>
       <use x="751.746094" xlink:href="#DejaVuSans-20"/>
       <use x="783.533203" xlink:href="#DejaVuSans-73"/>
       <use x="835.632812" xlink:href="#DejaVuSans-70"/>
       <use x="899.109375" xlink:href="#DejaVuSans-65"/>
       <use x="960.632812" xlink:href="#DejaVuSans-63"/>
       <use x="1015.613281" xlink:href="#DejaVuSans-69"/>
       <use x="1043.396484" xlink:href="#DejaVuSans-61"/>
       <use x="1104.675781" xlink:href="#DejaVuSans-6c"/>
       <use x="1132.458984" xlink:href="#DejaVuSans-20"/>
       <use x="1164.246094" xlink:href="#DejaVuSans-69"/>
       <use x="1192.029297" xlink:href="#DejaVuSans-6d"/>
       <use x="1289.441406" xlink:href="#DejaVuSans-6d"/>
       <use x="1386.853516" xlink:href="#DejaVuSans-69"/>
       <use x="1414.636719" xlink:href="#DejaVuSans-67"/>
       <use x="1478.113281" xlink:href="#DejaVuSans-72"/>
       <use x="1519.226562" xlink:href="#DejaVuSans-61"/>
       <use x="1580.505859" xlink:href="#DejaVuSans-6e"/>
       <use x="1643.884766" xlink:href="#DejaVuSans-74"/>
       <use x="1683.09375" xlink:href="#DejaVuSans-73"/>
      </g>
     </g>
    </g>
    <g id="xtick_5">
     <g id="line2d_5">
      <g>
       <use style="stroke:#000000;stroke-width:0.8;" x="570.270313" xlink:href="#me083d8d639" y="565.918125"/>
      </g>
     </g>
     <g id="text_5">
      <!-- Fifth: Employment creation (investors) -->
      <g transform="translate(504.316032 714.101938)rotate(-45)scale(0.1 -0.1)">
       <defs>
        <path d="M 628 4666 
L 3578 4666 
L 3578 4134 
L 1259 4134 
L 1259 2753 
L 3481 2753 
L 3481 2222 
L 1259 2222 
L 1259 531 
L 3634 531 
L 3634 0 
L 628 0 
L 628 4666 
z
" id="DejaVuSans-45" transform="scale(0.015625)"/>
        <path d="M 1984 4856 
Q 1566 4138 1362 3434 
Q 1159 2731 1159 2009 
Q 1159 1288 1364 580 
Q 1569 -128 1984 -844 
L 1484 -844 
Q 1016 -109 783 600 
Q 550 1309 550 2009 
Q 550 2706 781 3412 
Q 1013 4119 1484 4856 
L 1984 4856 
z
" id="DejaVuSans-28" transform="scale(0.015625)"/>
        <path d="M 513 4856 
L 1013 4856 
Q 1481 4119 1714 3412 
Q 1947 2706 1947 2009 
Q 1947 1309 1714 600 
Q 1481 -109 1013 -844 
L 513 -844 
Q 928 -128 1133 580 
Q 1338 1288 1338 2009 
Q 1338 2731 1133 3434 
Q 928 4138 513 4856 
z
" id="DejaVuSans-29" transform="scale(0.015625)"/>
       </defs>
       <use xlink:href="#DejaVuSans-46"/>
       <use x="50.269531" xlink:href="#DejaVuSans-69"/>
       <use x="78.052734" xlink:href="#DejaVuSans-66"/>
       <use x="111.507812" xlink:href="#DejaVuSans-74"/>
       <use x="150.716797" xlink:href="#DejaVuSans-68"/>
       <use x="214.095703" xlink:href="#DejaVuSans-3a"/>
       <use x="247.787109" xlink:href="#DejaVuSans-20"/>
       <use x="279.574219" xlink:href="#DejaVuSans-45"/>
       <use x="342.757812" xlink:href="#DejaVuSans-6d"/>
       <use x="440.169922" xlink:href="#DejaVuSans-70"/>
       <use x="503.646484" xlink:href="#DejaVuSans-6c"/>
       <use x="531.429688" xlink:href="#DejaVuSans-6f"/>
       <use x="592.611328" xlink:href="#DejaVuSans-79"/>
       <use x="651.791016" xlink:href="#DejaVuSans-6d"/>
       <use x="749.203125" xlink:href="#DejaVuSans-65"/>
       <use x="810.726562" xlink:href="#DejaVuSans-6e"/>
       <use x="874.105469" xlink:href="#DejaVuSans-74"/>
       <use x="913.314453" xlink:href="#DejaVuSans-20"/>
       <use x="945.101562" xlink:href="#DejaVuSans-63"/>
       <use x="1000.082031" xlink:href="#DejaVuSans-72"/>
       <use x="1038.945312" xlink:href="#DejaVuSans-65"/>
       <use x="1100.46875" xlink:href="#DejaVuSans-61"/>
       <use x="1161.748047" xlink:href="#DejaVuSans-74"/>
       <use x="1200.957031" xlink:href="#DejaVuSans-69"/>
       <use x="1228.740234" xlink:href="#DejaVuSans-6f"/>
       <use x="1289.921875" xlink:href="#DejaVuSans-6e"/>
       <use x="1353.300781" xlink:href="#DejaVuSans-20"/>
       <use x="1385.087891" xlink:href="#DejaVuSans-28"/>
       <use x="1424.101562" xlink:href="#DejaVuSans-69"/>
       <use x="1451.884766" xlink:href="#DejaVuSans-6e"/>
       <use x="1515.263672" xlink:href="#DejaVuSans-76"/>
       <use x="1574.443359" xlink:href="#DejaVuSans-65"/>
       <use x="1635.966797" xlink:href="#DejaVuSans-73"/>
       <use x="1688.066406" xlink:href="#DejaVuSans-74"/>
       <use x="1727.275391" xlink:href="#DejaVuSans-6f"/>
       <use x="1788.457031" xlink:href="#DejaVuSans-72"/>
       <use x="1829.570312" xlink:href="#DejaVuSans-73"/>
       <use x="1881.669922" xlink:href="#DejaVuSans-29"/>
      </g>
     </g>
    </g>
    <g id="xtick_6">
     <g id="line2d_6">
      <g>
       <use style="stroke:#000000;stroke-width:0.8;" x="681.870312" xlink:href="#me083d8d639" y="565.918125"/>
      </g>
     </g>
     <g id="text_6">
      <!-- First: Priority workers -->
      <g transform="translate(646.461388 653.011226)rotate(-45)scale(0.1 -0.1)">
       <use xlink:href="#DejaVuSans-46"/>
       <use x="50.269531" xlink:href="#DejaVuSans-69"/>
       <use x="78.052734" xlink:href="#DejaVuSans-72"/>
       <use x="119.166016" xlink:href="#DejaVuSans-73"/>
       <use x="171.265625" xlink:href="#DejaVuSans-74"/>
       <use x="210.474609" xlink:href="#DejaVuSans-3a"/>
       <use x="244.166016" xlink:href="#DejaVuSans-20"/>
       <use x="275.953125" xlink:href="#DejaVuSans-50"/>
       <use x="334.505859" xlink:href="#DejaVuSans-72"/>
       <use x="375.619141" xlink:href="#DejaVuSans-69"/>
       <use x="403.402344" xlink:href="#DejaVuSans-6f"/>
       <use x="464.583984" xlink:href="#DejaVuSans-72"/>
       <use x="505.697266" xlink:href="#DejaVuSans-69"/>
       <use x="533.480469" xlink:href="#DejaVuSans-74"/>
       <use x="572.689453" xlink:href="#DejaVuSans-79"/>
       <use x="631.869141" xlink:href="#DejaVuSans-20"/>
       <use x="663.65625" xlink:href="#DejaVuSans-77"/>
       <use x="745.443359" xlink:href="#DejaVuSans-6f"/>
       <use x="806.625" xlink:href="#DejaVuSans-72"/>
       <use x="847.738281" xlink:href="#DejaVuSans-6b"/>
       <use x="902.023438" xlink:href="#DejaVuSans-65"/>
       <use x="963.546875" xlink:href="#DejaVuSans-72"/>
       <use x="1004.660156" xlink:href="#DejaVuSans-73"/>
      </g>
     </g>
    </g>
    <g id="xtick_7">
     <g id="line2d_7">
      <g>
       <use style="stroke:#000000;stroke-width:0.8;" x="793.470313" xlink:href="#me083d8d639" y="565.918125"/>
      </g>
     </g>
     <g id="text_7">
      <!-- Second: Professionals with advanced degrees or aliens of exceptional ability -->
      <g transform="translate(660.332049 848.469904)rotate(-45)scale(0.1 -0.1)">
       <use xlink:href="#DejaVuSans-53"/>
       <use x="63.476562" xlink:href="#DejaVuSans-65"/>
       <use x="125" xlink:href="#DejaVuSans-63"/>
       <use x="179.980469" xlink:href="#DejaVuSans-6f"/>
       <use x="241.162109" xlink:href="#DejaVuSans-6e"/>
       <use x="304.541016" xlink:href="#DejaVuSans-64"/>
       <use x="368.017578" xlink:href="#DejaVuSans-3a"/>
       <use x="401.708984" xlink:href="#DejaVuSans-20"/>
       <use x="433.496094" xlink:href="#DejaVuSans-50"/>
       <use x="492.048828" xlink:href="#DejaVuSans-72"/>
       <use x="530.912109" xlink:href="#DejaVuSans-6f"/>
       <use x="592.09375" xlink:href="#DejaVuSans-66"/>
       <use x="627.298828" xlink:href="#DejaVuSans-65"/>
       <use x="688.822266" xlink:href="#DejaVuSans-73"/>
       <use x="740.921875" xlink:href="#DejaVuSans-73"/>
       <use x="793.021484" xlink:href="#DejaVuSans-69"/>
       <use x="820.804688" xlink:href="#DejaVuSans-6f"/>
       <use x="881.986328" xlink:href="#DejaVuSans-6e"/>
       <use x="945.365234" xlink:href="#DejaVuSans-61"/>
       <use x="1006.644531" xlink:href="#DejaVuSans-6c"/>
       <use x="1034.427734" xlink:href="#DejaVuSans-73"/>
       <use x="1086.527344" xlink:href="#DejaVuSans-20"/>
       <use x="1118.314453" xlink:href="#DejaVuSans-77"/>
       <use x="1200.101562" xlink:href="#DejaVuSans-69"/>
       <use x="1227.884766" xlink:href="#DejaVuSans-74"/>
       <use x="1267.09375" xlink:href="#DejaVuSans-68"/>
       <use x="1330.472656" xlink:href="#DejaVuSans-20"/>
       <use x="1362.259766" xlink:href="#DejaVuSans-61"/>
       <use x="1423.539062" xlink:href="#DejaVuSans-64"/>
       <use x="1487.015625" xlink:href="#DejaVuSans-76"/>
       <use x="1546.195312" xlink:href="#DejaVuSans-61"/>
       <use x="1607.474609" xlink:href="#DejaVuSans-6e"/>
       <use x="1670.853516" xlink:href="#DejaVuSans-63"/>
       <use x="1725.833984" xlink:href="#DejaVuSans-65"/>
       <use x="1787.357422" xlink:href="#DejaVuSans-64"/>
       <use x="1850.833984" xlink:href="#DejaVuSans-20"/>
       <use x="1882.621094" xlink:href="#DejaVuSans-64"/>
       <use x="1946.097656" xlink:href="#DejaVuSans-65"/>
       <use x="2007.621094" xlink:href="#DejaVuSans-67"/>
       <use x="2071.097656" xlink:href="#DejaVuSans-72"/>
       <use x="2109.960938" xlink:href="#DejaVuSans-65"/>
       <use x="2171.484375" xlink:href="#DejaVuSans-65"/>
       <use x="2233.007812" xlink:href="#DejaVuSans-73"/>
       <use x="2285.107422" xlink:href="#DejaVuSans-20"/>
       <use x="2316.894531" xlink:href="#DejaVuSans-6f"/>
       <use x="2378.076172" xlink:href="#DejaVuSans-72"/>
       <use x="2419.189453" xlink:href="#DejaVuSans-20"/>
       <use x="2450.976562" xlink:href="#DejaVuSans-61"/>
       <use x="2512.255859" xlink:href="#DejaVuSans-6c"/>
       <use x="2540.039062" xlink:href="#DejaVuSans-69"/>
       <use x="2567.822266" xlink:href="#DejaVuSans-65"/>
       <use x="2629.345703" xlink:href="#DejaVuSans-6e"/>
       <use x="2692.724609" xlink:href="#DejaVuSans-73"/>
       <use x="2744.824219" xlink:href="#DejaVuSans-20"/>
       <use x="2776.611328" xlink:href="#DejaVuSans-6f"/>
       <use x="2837.792969" xlink:href="#DejaVuSans-66"/>
       <use x="2872.998047" xlink:href="#DejaVuSans-20"/>
       <use x="2904.785156" xlink:href="#DejaVuSans-65"/>
       <use x="2964.558594" xlink:href="#DejaVuSans-78"/>
       <use x="3021.988281" xlink:href="#DejaVuSans-63"/>
       <use x="3076.96875" xlink:href="#DejaVuSans-65"/>
       <use x="3138.492188" xlink:href="#DejaVuSans-70"/>
       <use x="3201.96875" xlink:href="#DejaVuSans-74"/>
       <use x="3241.177734" xlink:href="#DejaVuSans-69"/>
       <use x="3268.960938" xlink:href="#DejaVuSans-6f"/>
       <use x="3330.142578" xlink:href="#DejaVuSans-6e"/>
       <use x="3393.521484" xlink:href="#DejaVuSans-61"/>
       <use x="3454.800781" xlink:href="#DejaVuSans-6c"/>
       <use x="3482.583984" xlink:href="#DejaVuSans-20"/>
       <use x="3514.371094" xlink:href="#DejaVuSans-61"/>
       <use x="3575.650391" xlink:href="#DejaVuSans-62"/>
       <use x="3639.126953" xlink:href="#DejaVuSans-69"/>
       <use x="3666.910156" xlink:href="#DejaVuSans-6c"/>
       <use x="3694.693359" xlink:href="#DejaVuSans-69"/>
       <use x="3722.476562" xlink:href="#DejaVuSans-74"/>
       <use x="3761.685547" xlink:href="#DejaVuSans-79"/>
      </g>
     </g>
    </g>
    <g id="xtick_8">
     <g id="line2d_8">
      <g>
       <use style="stroke:#000000;stroke-width:0.8;" x="905.070312" xlink:href="#me083d8d639" y="565.918125"/>
      </g>
     </g>
     <g id="text_8">
      <!-- Third: Skilled workers professionals and unskilled workers -->
      <g transform="translate(804.964985 782.404033)rotate(-45)scale(0.1 -0.1)">
       <use xlink:href="#DejaVuSans-54"/>
       <use x="61.083984" xlink:href="#DejaVuSans-68"/>
       <use x="124.462891" xlink:href="#DejaVuSans-69"/>
       <use x="152.246094" xlink:href="#DejaVuSans-72"/>
       <use x="191.609375" xlink:href="#DejaVuSans-64"/>
       <use x="255.085938" xlink:href="#DejaVuSans-3a"/>
       <use x="288.777344" xlink:href="#DejaVuSans-20"/>
       <use x="320.564453" xlink:href="#DejaVuSans-53"/>
       <use x="384.041016" xlink:href="#DejaVuSans-6b"/>
       <use x="441.951172" xlink:href="#DejaVuSans-69"/>
       <use x="469.734375" xlink:href="#DejaVuSans-6c"/>
       <use x="497.517578" xlink:href="#DejaVuSans-6c"/>
       <use x="525.300781" xlink:href="#DejaVuSans-65"/>
       <use x="586.824219" xlink:href="#DejaVuSans-64"/>
       <use x="650.300781" xlink:href="#DejaVuSans-20"/>
       <use x="682.087891" xlink:href="#DejaVuSans-77"/>
       <use x="763.875" xlink:href="#DejaVuSans-6f"/>
       <use x="825.056641" xlink:href="#DejaVuSans-72"/>
       <use x="866.169922" xlink:href="#DejaVuSans-6b"/>
       <use x="920.455078" xlink:href="#DejaVuSans-65"/>
       <use x="981.978516" xlink:href="#DejaVuSans-72"/>
       <use x="1023.091797" xlink:href="#DejaVuSans-73"/>
       <use x="1075.191406" xlink:href="#DejaVuSans-20"/>
       <use x="1106.978516" xlink:href="#DejaVuSans-70"/>
       <use x="1170.455078" xlink:href="#DejaVuSans-72"/>
       <use x="1209.318359" xlink:href="#DejaVuSans-6f"/>
       <use x="1270.5" xlink:href="#DejaVuSans-66"/>
       <use x="1305.705078" xlink:href="#DejaVuSans-65"/>
       <use x="1367.228516" xlink:href="#DejaVuSans-73"/>
       <use x="1419.328125" xlink:href="#DejaVuSans-73"/>
       <use x="1471.427734" xlink:href="#DejaVuSans-69"/>
       <use x="1499.210938" xlink:href="#DejaVuSans-6f"/>
       <use x="1560.392578" xlink:href="#DejaVuSans-6e"/>
       <use x="1623.771484" xlink:href="#DejaVuSans-61"/>
       <use x="1685.050781" xlink:href="#DejaVuSans-6c"/>
       <use x="1712.833984" xlink:href="#DejaVuSans-73"/>
       <use x="1764.933594" xlink:href="#DejaVuSans-20"/>
       <use x="1796.720703" xlink:href="#DejaVuSans-61"/>
       <use x="1858" xlink:href="#DejaVuSans-6e"/>
       <use x="1921.378906" xlink:href="#DejaVuSans-64"/>
       <use x="1984.855469" xlink:href="#DejaVuSans-20"/>
       <use x="2016.642578" xlink:href="#DejaVuSans-75"/>
       <use x="2080.021484" xlink:href="#DejaVuSans-6e"/>
       <use x="2143.400391" xlink:href="#DejaVuSans-73"/>
       <use x="2195.5" xlink:href="#DejaVuSans-6b"/>
       <use x="2253.410156" xlink:href="#DejaVuSans-69"/>
       <use x="2281.193359" xlink:href="#DejaVuSans-6c"/>
       <use x="2308.976562" xlink:href="#DejaVuSans-6c"/>
       <use x="2336.759766" xlink:href="#DejaVuSans-65"/>
       <use x="2398.283203" xlink:href="#DejaVuSans-64"/>
       <use x="2461.759766" xlink:href="#DejaVuSans-20"/>
       <use x="2493.546875" xlink:href="#DejaVuSans-77"/>
       <use x="2575.333984" xlink:href="#DejaVuSans-6f"/>
       <use x="2636.515625" xlink:href="#DejaVuSans-72"/>
       <use x="2677.628906" xlink:href="#DejaVuSans-6b"/>
       <use x="2731.914062" xlink:href="#DejaVuSans-65"/>
       <use x="2793.4375" xlink:href="#DejaVuSans-72"/>
       <use x="2834.550781" xlink:href="#DejaVuSans-73"/>
      </g>
     </g>
    </g>
    <g id="xtick_9">
     <g id="line2d_9">
      <g>
       <use style="stroke:#000000;stroke-width:0.8;" x="1016.670313" xlink:href="#me083d8d639" y="565.918125"/>
      </g>
     </g>
     <g id="text_9">
      <!-- Fourth: Certain special immigrants -->
      <g transform="translate(957.275 700.984002)rotate(-45)scale(0.1 -0.1)">
       <use xlink:href="#DejaVuSans-46"/>
       <use x="53.894531" xlink:href="#DejaVuSans-6f"/>
       <use x="115.076172" xlink:href="#DejaVuSans-75"/>
       <use x="178.455078" xlink:href="#DejaVuSans-72"/>
       <use x="219.568359" xlink:href="#DejaVuSans-74"/>
       <use x="258.777344" xlink:href="#DejaVuSans-68"/>
       <use x="322.15625" xlink:href="#DejaVuSans-3a"/>
       <use x="355.847656" xlink:href="#DejaVuSans-20"/>
       <use x="387.634766" xlink:href="#DejaVuSans-43"/>
       <use x="457.458984" xlink:href="#DejaVuSans-65"/>
       <use x="518.982422" xlink:href="#DejaVuSans-72"/>
       <use x="560.095703" xlink:href="#DejaVuSans-74"/>
       <use x="599.304688" xlink:href="#DejaVuSans-61"/>
       <use x="660.583984" xlink:href="#DejaVuSans-69"/>
       <use x="688.367188" xlink:href="#DejaVuSans-6e"/>
       <use x="751.746094" xlink:href="#DejaVuSans-20"/>
       <use x="783.533203" xlink:href="#DejaVuSans-73"/>
       <use x="835.632812" xlink:href="#DejaVuSans-70"/>
       <use x="899.109375" xlink:href="#DejaVuSans-65"/>
       <use x="960.632812" xlink:href="#DejaVuSans-63"/>
       <use x="1015.613281" xlink:href="#DejaVuSans-69"/>
       <use x="1043.396484" xlink:href="#DejaVuSans-61"/>
       <use x="1104.675781" xlink:href="#DejaVuSans-6c"/>
       <use x="1132.458984" xlink:href="#DejaVuSans-20"/>
       <use x="1164.246094" xlink:href="#DejaVuSans-69"/>
       <use x="1192.029297" xlink:href="#DejaVuSans-6d"/>
       <use x="1289.441406" xlink:href="#DejaVuSans-6d"/>
       <use x="1386.853516" xlink:href="#DejaVuSans-69"/>
       <use x="1414.636719" xlink:href="#DejaVuSans-67"/>
       <use x="1478.113281" xlink:href="#DejaVuSans-72"/>
       <use x="1519.226562" xlink:href="#DejaVuSans-61"/>
       <use x="1580.505859" xlink:href="#DejaVuSans-6e"/>
       <use x="1643.884766" xlink:href="#DejaVuSans-74"/>
       <use x="1683.09375" xlink:href="#DejaVuSans-73"/>
      </g>
     </g>
    </g>
    <g id="xtick_10">
     <g id="line2d_10">
      <g>
       <use style="stroke:#000000;stroke-width:0.8;" x="1128.270313" xlink:href="#me083d8d639" y="565.918125"/>
      </g>
     </g>
     <g id="text_10">
      <!-- Fifth: Employment creation (investors) -->
      <g transform="translate(1062.316032 714.101938)rotate(-45)scale(0.1 -0.1)">
       <use xlink:href="#DejaVuSans-46"/>
       <use x="50.269531" xlink:href="#DejaVuSans-69"/>
       <use x="78.052734" xlink:href="#DejaVuSans-66"/>
       <use x="111.507812" xlink:href="#DejaVuSans-74"/>
       <use x="150.716797" xlink:href="#DejaVuSans-68"/>
       <use x="214.095703" xlink:href="#DejaVuSans-3a"/>
       <use x="247.787109" xlink:href="#DejaVuSans-20"/>
       <use x="279.574219" xlink:href="#DejaVuSans-45"/>
       <use x="342.757812" xlink:href="#DejaVuSans-6d"/>
       <use x="440.169922" xlink:href="#DejaVuSans-70"/>
       <use x="503.646484" xlink:href="#DejaVuSans-6c"/>
       <use x="531.429688" xlink:href="#DejaVuSans-6f"/>
       <use x="592.611328" xlink:href="#DejaVuSans-79"/>
       <use x="651.791016" xlink:href="#DejaVuSans-6d"/>
       <use x="749.203125" xlink:href="#DejaVuSans-65"/>
       <use x="810.726562" xlink:href="#DejaVuSans-6e"/>
       <use x="874.105469" xlink:href="#DejaVuSans-74"/>
       <use x="913.314453" xlink:href="#DejaVuSans-20"/>
       <use x="945.101562" xlink:href="#DejaVuSans-63"/>
       <use x="1000.082031" xlink:href="#DejaVuSans-72"/>
       <use x="1038.945312" xlink:href="#DejaVuSans-65"/>
       <use x="1100.46875" xlink:href="#DejaVuSans-61"/>
       <use x="1161.748047" xlink:href="#DejaVuSans-74"/>
       <use x="1200.957031" xlink:href="#DejaVuSans-69"/>
       <use x="1228.740234" xlink:href="#DejaVuSans-6f"/>
       <use x="1289.921875" xlink:href="#DejaVuSans-6e"/>
       <use x="1353.300781" xlink:href="#DejaVuSans-20"/>
       <use x="1385.087891" xlink:href="#DejaVuSans-28"/>
       <use x="1424.101562" xlink:href="#DejaVuSans-69"/>
       <use x="1451.884766" xlink:href="#DejaVuSans-6e"/>
       <use x="1515.263672" xlink:href="#DejaVuSans-76"/>
       <use x="1574.443359" xlink:href="#DejaVuSans-65"/>
       <use x="1635.966797" xlink:href="#DejaVuSans-73"/>
       <use x="1688.066406" xlink:href="#DejaVuSans-74"/>
       <use x="1727.275391" xlink:href="#DejaVuSans-6f"/>
       <use x="1788.457031" xlink:href="#DejaVuSans-72"/>
       <use x="1829.570312" xlink:href="#DejaVuSans-73"/>
       <use x="1881.669922" xlink:href="#DejaVuSans-29"/>
      </g>
     </g>
    </g>
    <g id="text_11">
     <!-- Type and class of admission -->
     <g transform="translate(556.26875 861.538902)scale(0.1 -0.1)">
      <use xlink:href="#DejaVuSans-54"/>
      <use x="45.458984" xlink:href="#DejaVuSans-79"/>
      <use x="104.638672" xlink:href="#DejaVuSans-70"/>
      <use x="168.115234" xlink:href="#DejaVuSans-65"/>
      <use x="229.638672" xlink:href="#DejaVuSans-20"/>
      <use x="261.425781" xlink:href="#DejaVuSans-61"/>
      <use x="322.705078" xlink:href="#DejaVuSans-6e"/>
      <use x="386.083984" xlink:href="#DejaVuSans-64"/>
      <use x="449.560547" xlink:href="#DejaVuSans-20"/>
      <use x="481.347656" xlink:href="#DejaVuSans-63"/>
      <use x="536.328125" xlink:href="#DejaVuSans-6c"/>
      <use x="564.111328" xlink:href="#DejaVuSans-61"/>
      <use x="625.390625" xlink:href="#DejaVuSans-73"/>
      <use x="677.490234" xlink:href="#DejaVuSans-73"/>
      <use x="729.589844" xlink:href="#DejaVuSans-20"/>
      <use x="761.376953" xlink:href="#DejaVuSans-6f"/>
      <use x="822.558594" xlink:href="#DejaVuSans-66"/>
      <use x="857.763672" xlink:href="#DejaVuSans-20"/>
      <use x="889.550781" xlink:href="#DejaVuSans-61"/>
      <use x="950.830078" xlink:href="#DejaVuSans-64"/>
      <use x="1014.306641" xlink:href="#DejaVuSans-6d"/>
      <use x="1111.71875" xlink:href="#DejaVuSans-69"/>
      <use x="1139.501953" xlink:href="#DejaVuSans-73"/>
      <use x="1191.601562" xlink:href="#DejaVuSans-73"/>
      <use x="1243.701172" xlink:href="#DejaVuSans-69"/>
      <use x="1271.484375" xlink:href="#DejaVuSans-6f"/>
      <use x="1332.666016" xlink:href="#DejaVuSans-6e"/>
     </g>
    </g>
   </g>
   <g id="matplotlib.axis_2">
    <g id="ytick_1">
     <g id="line2d_11">
      <defs>
       <path d="M 0 0 
L -3.5 0 
" id="m33b06667e1" style="stroke:#000000;stroke-width:0.8;"/>
      </defs>
      <g>
       <use style="stroke:#000000;stroke-width:0.8;" x="68.070313" xlink:href="#m33b06667e1" y="510.843761"/>
      </g>
     </g>
     <g id="text_12">
      <!-- 10000 -->
      <g transform="translate(20.878125 514.64298)scale(0.1 -0.1)">
       <defs>
        <path d="M 678 2272 
L 4684 2272 
L 4684 1741 
L 678 1741 
L 678 2272 
z
" id="DejaVuSans-2212" transform="scale(0.015625)"/>
        <path d="M 794 531 
L 1825 531 
L 1825 4091 
L 703 3866 
L 703 4441 
L 1819 4666 
L 2450 4666 
L 2450 531 
L 3481 531 
L 3481 0 
L 794 0 
L 794 531 
z
" id="DejaVuSans-31" transform="scale(0.015625)"/>
        <path d="M 2034 4250 
Q 1547 4250 1301 3770 
Q 1056 3291 1056 2328 
Q 1056 1369 1301 889 
Q 1547 409 2034 409 
Q 2525 409 2770 889 
Q 3016 1369 3016 2328 
Q 3016 3291 2770 3770 
Q 2525 4250 2034 4250 
z
M 2034 4750 
Q 2819 4750 3233 4129 
Q 3647 3509 3647 2328 
Q 3647 1150 3233 529 
Q 2819 -91 2034 -91 
Q 1250 -91 836 529 
Q 422 1150 422 2328 
Q 422 3509 836 4129 
Q 1250 4750 2034 4750 
z
" id="DejaVuSans-30" transform="scale(0.015625)"/>
       </defs>
       <use xlink:href="#DejaVuSans-2212"/>
       <use x="83.789062" xlink:href="#DejaVuSans-31"/>
       <use x="147.412109" xlink:href="#DejaVuSans-30"/>
       <use x="211.035156" xlink:href="#DejaVuSans-30"/>
       <use x="274.658203" xlink:href="#DejaVuSans-30"/>
       <use x="338.28125" xlink:href="#DejaVuSans-30"/>
      </g>
     </g>
    </g>
    <g id="ytick_2">
     <g id="line2d_12">
      <g>
       <use style="stroke:#000000;stroke-width:0.8;" x="68.070313" xlink:href="#m33b06667e1" y="414.568324"/>
      </g>
     </g>
     <g id="text_13">
      <!-- 5000 -->
      <g transform="translate(27.240625 418.367543)scale(0.1 -0.1)">
       <defs>
        <path d="M 691 4666 
L 3169 4666 
L 3169 4134 
L 1269 4134 
L 1269 2991 
Q 1406 3038 1543 3061 
Q 1681 3084 1819 3084 
Q 2600 3084 3056 2656 
Q 3513 2228 3513 1497 
Q 3513 744 3044 326 
Q 2575 -91 1722 -91 
Q 1428 -91 1123 -41 
Q 819 9 494 109 
L 494 744 
Q 775 591 1075 516 
Q 1375 441 1709 441 
Q 2250 441 2565 725 
Q 2881 1009 2881 1497 
Q 2881 1984 2565 2268 
Q 2250 2553 1709 2553 
Q 1456 2553 1204 2497 
Q 953 2441 691 2322 
L 691 4666 
z
" id="DejaVuSans-35" transform="scale(0.015625)"/>
       </defs>
       <use xlink:href="#DejaVuSans-2212"/>
       <use x="83.789062" xlink:href="#DejaVuSans-35"/>
       <use x="147.412109" xlink:href="#DejaVuSans-30"/>
       <use x="211.035156" xlink:href="#DejaVuSans-30"/>
       <use x="274.658203" xlink:href="#DejaVuSans-30"/>
      </g>
     </g>
    </g>
    <g id="ytick_3">
     <g id="line2d_13">
      <g>
       <use style="stroke:#000000;stroke-width:0.8;" x="68.070313" xlink:href="#m33b06667e1" y="318.292887"/>
      </g>
     </g>
     <g id="text_14">
      <!-- 0 -->
      <g transform="translate(54.707813 322.092106)scale(0.1 -0.1)">
       <use xlink:href="#DejaVuSans-30"/>
      </g>
     </g>
    </g>
    <g id="ytick_4">
     <g id="line2d_14">
      <g>
       <use style="stroke:#000000;stroke-width:0.8;" x="68.070313" xlink:href="#m33b06667e1" y="222.01745"/>
      </g>
     </g>
     <g id="text_15">
      <!-- 5000 -->
      <g transform="translate(35.620313 225.816669)scale(0.1 -0.1)">
       <use xlink:href="#DejaVuSans-35"/>
       <use x="63.623047" xlink:href="#DejaVuSans-30"/>
       <use x="127.246094" xlink:href="#DejaVuSans-30"/>
       <use x="190.869141" xlink:href="#DejaVuSans-30"/>
      </g>
     </g>
    </g>
    <g id="ytick_5">
     <g id="line2d_15">
      <g>
       <use style="stroke:#000000;stroke-width:0.8;" x="68.070313" xlink:href="#m33b06667e1" y="125.742013"/>
      </g>
     </g>
     <g id="text_16">
      <!-- 10000 -->
      <g transform="translate(29.257813 129.541232)scale(0.1 -0.1)">
       <use xlink:href="#DejaVuSans-31"/>
       <use x="63.623047" xlink:href="#DejaVuSans-30"/>
       <use x="127.246094" xlink:href="#DejaVuSans-30"/>
       <use x="190.869141" xlink:href="#DejaVuSans-30"/>
       <use x="254.492188" xlink:href="#DejaVuSans-30"/>
      </g>
     </g>
    </g>
    <g id="ytick_6">
     <g id="line2d_16">
      <g>
       <use style="stroke:#000000;stroke-width:0.8;" x="68.070313" xlink:href="#m33b06667e1" y="29.466576"/>
      </g>
     </g>
     <g id="text_17">
      <!-- 15000 -->
      <g transform="translate(29.257813 33.265795)scale(0.1 -0.1)">
       <use xlink:href="#DejaVuSans-31"/>
       <use x="63.623047" xlink:href="#DejaVuSans-35"/>
       <use x="127.246094" xlink:href="#DejaVuSans-30"/>
       <use x="190.869141" xlink:href="#DejaVuSans-30"/>
       <use x="254.492188" xlink:href="#DejaVuSans-30"/>
      </g>
     </g>
    </g>
    <g id="text_18">
     <!-- Change in Number of Addmissions -->
     <g transform="translate(14.798438 380.453281)rotate(-90)scale(0.1 -0.1)">
      <defs>
       <path d="M 628 4666 
L 1478 4666 
L 3547 763 
L 3547 4666 
L 4159 4666 
L 4159 0 
L 3309 0 
L 1241 3903 
L 1241 0 
L 628 0 
L 628 4666 
z
" id="DejaVuSans-4e" transform="scale(0.015625)"/>
       <path d="M 2188 4044 
L 1331 1722 
L 3047 1722 
L 2188 4044 
z
M 1831 4666 
L 2547 4666 
L 4325 0 
L 3669 0 
L 3244 1197 
L 1141 1197 
L 716 0 
L 50 0 
L 1831 4666 
z
" id="DejaVuSans-41" transform="scale(0.015625)"/>
      </defs>
      <use xlink:href="#DejaVuSans-43"/>
      <use x="69.824219" xlink:href="#DejaVuSans-68"/>
      <use x="133.203125" xlink:href="#DejaVuSans-61"/>
      <use x="194.482422" xlink:href="#DejaVuSans-6e"/>
      <use x="257.861328" xlink:href="#DejaVuSans-67"/>
      <use x="321.337891" xlink:href="#DejaVuSans-65"/>
      <use x="382.861328" xlink:href="#DejaVuSans-20"/>
      <use x="414.648438" xlink:href="#DejaVuSans-69"/>
      <use x="442.431641" xlink:href="#DejaVuSans-6e"/>
      <use x="505.810547" xlink:href="#DejaVuSans-20"/>
      <use x="537.597656" xlink:href="#DejaVuSans-4e"/>
      <use x="612.402344" xlink:href="#DejaVuSans-75"/>
      <use x="675.78125" xlink:href="#DejaVuSans-6d"/>
      <use x="773.193359" xlink:href="#DejaVuSans-62"/>
      <use x="836.669922" xlink:href="#DejaVuSans-65"/>
      <use x="898.193359" xlink:href="#DejaVuSans-72"/>
      <use x="939.306641" xlink:href="#DejaVuSans-20"/>
      <use x="971.09375" xlink:href="#DejaVuSans-6f"/>
      <use x="1032.275391" xlink:href="#DejaVuSans-66"/>
      <use x="1067.480469" xlink:href="#DejaVuSans-20"/>
      <use x="1099.267578" xlink:href="#DejaVuSans-41"/>
      <use x="1165.925781" xlink:href="#DejaVuSans-64"/>
      <use x="1229.402344" xlink:href="#DejaVuSans-64"/>
      <use x="1292.878906" xlink:href="#DejaVuSans-6d"/>
      <use x="1390.291016" xlink:href="#DejaVuSans-69"/>
      <use x="1418.074219" xlink:href="#DejaVuSans-73"/>
      <use x="1470.173828" xlink:href="#DejaVuSans-73"/>
      <use x="1522.273438" xlink:href="#DejaVuSans-69"/>
      <use x="1550.056641" xlink:href="#DejaVuSans-6f"/>
      <use x="1611.238281" xlink:href="#DejaVuSans-6e"/>
      <use x="1674.617188" xlink:href="#DejaVuSans-73"/>
     </g>
    </g>
   </g>
   <g id="patch_83">
    <path d="M 68.070313 565.918125 
L 68.070313 22.318125 
" style="fill:none;stroke:#000000;stroke-linecap:square;stroke-linejoin:miter;stroke-width:0.8;"/>
   </g>
   <g id="patch_84">
    <path d="M 1184.070312 565.918125 
L 1184.070312 22.318125 
" style="fill:none;stroke:#000000;stroke-linecap:square;stroke-linejoin:miter;stroke-width:0.8;"/>
   </g>
   <g id="patch_85">
    <path d="M 68.070312 565.918125 
L 1184.070312 565.918125 
" style="fill:none;stroke:#000000;stroke-linecap:square;stroke-linejoin:miter;stroke-width:0.8;"/>
   </g>
   <g id="patch_86">
    <path d="M 68.070312 22.318125 
L 1184.070312 22.318125 
" style="fill:none;stroke:#000000;stroke-linecap:square;stroke-linejoin:miter;stroke-width:0.8;"/>
   </g>
   <g id="text_19">
    <!-- Career Related Admission -->
    <g transform="translate(548.70875 16.318125)scale(0.12 -0.12)">
     <defs>
      <path d="M 2841 2188 
Q 3044 2119 3236 1894 
Q 3428 1669 3622 1275 
L 4263 0 
L 3584 0 
L 2988 1197 
Q 2756 1666 2539 1819 
Q 2322 1972 1947 1972 
L 1259 1972 
L 1259 0 
L 628 0 
L 628 4666 
L 2053 4666 
Q 2853 4666 3247 4331 
Q 3641 3997 3641 3322 
Q 3641 2881 3436 2590 
Q 3231 2300 2841 2188 
z
M 1259 4147 
L 1259 2491 
L 2053 2491 
Q 2509 2491 2742 2702 
Q 2975 2913 2975 3322 
Q 2975 3731 2742 3939 
Q 2509 4147 2053 4147 
L 1259 4147 
z
" id="DejaVuSans-52" transform="scale(0.015625)"/>
     </defs>
     <use xlink:href="#DejaVuSans-43"/>
     <use x="69.824219" xlink:href="#DejaVuSans-61"/>
     <use x="131.103516" xlink:href="#DejaVuSans-72"/>
     <use x="169.966797" xlink:href="#DejaVuSans-65"/>
     <use x="231.490234" xlink:href="#DejaVuSans-65"/>
     <use x="293.013672" xlink:href="#DejaVuSans-72"/>
     <use x="334.126953" xlink:href="#DejaVuSans-20"/>
     <use x="365.914062" xlink:href="#DejaVuSans-52"/>
     <use x="430.896484" xlink:href="#DejaVuSans-65"/>
     <use x="492.419922" xlink:href="#DejaVuSans-6c"/>
     <use x="520.203125" xlink:href="#DejaVuSans-61"/>
     <use x="581.482422" xlink:href="#DejaVuSans-74"/>
     <use x="620.691406" xlink:href="#DejaVuSans-65"/>
     <use x="682.214844" xlink:href="#DejaVuSans-64"/>
     <use x="745.691406" xlink:href="#DejaVuSans-20"/>
     <use x="777.478516" xlink:href="#DejaVuSans-41"/>
     <use x="844.136719" xlink:href="#DejaVuSans-64"/>
     <use x="907.613281" xlink:href="#DejaVuSans-6d"/>
     <use x="1005.025391" xlink:href="#DejaVuSans-69"/>
     <use x="1032.808594" xlink:href="#DejaVuSans-73"/>
     <use x="1084.908203" xlink:href="#DejaVuSans-73"/>
     <use x="1137.007812" xlink:href="#DejaVuSans-69"/>
     <use x="1164.791016" xlink:href="#DejaVuSans-6f"/>
     <use x="1225.972656" xlink:href="#DejaVuSans-6e"/>
    </g>
   </g>
   <g id="legend_1">
    <g id="patch_87">
     <path d="M 1077.775 147.743125 
L 1177.070312 147.743125 
Q 1179.070312 147.743125 1179.070312 145.743125 
L 1179.070312 29.318125 
Q 1179.070312 27.318125 1177.070312 27.318125 
L 1077.775 27.318125 
Q 1075.775 27.318125 1075.775 29.318125 
L 1075.775 145.743125 
Q 1075.775 147.743125 1077.775 147.743125 
z
" style="fill:#ffffff;opacity:0.8;stroke:#cccccc;stroke-linejoin:miter;"/>
    </g>
    <g id="patch_88">
     <path d="M 1079.775 38.916562 
L 1099.775 38.916562 
L 1099.775 31.916562 
L 1079.775 31.916562 
z
" style="fill:#1f77b4;"/>
    </g>
    <g id="text_20">
     <!-- 2012 to 2013 -->
     <g transform="translate(1107.775 38.916562)scale(0.1 -0.1)">
      <defs>
       <path d="M 1228 531 
L 3431 531 
L 3431 0 
L 469 0 
L 469 531 
Q 828 903 1448 1529 
Q 2069 2156 2228 2338 
Q 2531 2678 2651 2914 
Q 2772 3150 2772 3378 
Q 2772 3750 2511 3984 
Q 2250 4219 1831 4219 
Q 1534 4219 1204 4116 
Q 875 4013 500 3803 
L 500 4441 
Q 881 4594 1212 4672 
Q 1544 4750 1819 4750 
Q 2544 4750 2975 4387 
Q 3406 4025 3406 3419 
Q 3406 3131 3298 2873 
Q 3191 2616 2906 2266 
Q 2828 2175 2409 1742 
Q 1991 1309 1228 531 
z
" id="DejaVuSans-32" transform="scale(0.015625)"/>
       <path d="M 2597 2516 
Q 3050 2419 3304 2112 
Q 3559 1806 3559 1356 
Q 3559 666 3084 287 
Q 2609 -91 1734 -91 
Q 1441 -91 1130 -33 
Q 819 25 488 141 
L 488 750 
Q 750 597 1062 519 
Q 1375 441 1716 441 
Q 2309 441 2620 675 
Q 2931 909 2931 1356 
Q 2931 1769 2642 2001 
Q 2353 2234 1838 2234 
L 1294 2234 
L 1294 2753 
L 1863 2753 
Q 2328 2753 2575 2939 
Q 2822 3125 2822 3475 
Q 2822 3834 2567 4026 
Q 2313 4219 1838 4219 
Q 1578 4219 1281 4162 
Q 984 4106 628 3988 
L 628 4550 
Q 988 4650 1302 4700 
Q 1616 4750 1894 4750 
Q 2613 4750 3031 4423 
Q 3450 4097 3450 3541 
Q 3450 3153 3228 2886 
Q 3006 2619 2597 2516 
z
" id="DejaVuSans-33" transform="scale(0.015625)"/>
      </defs>
      <use xlink:href="#DejaVuSans-32"/>
      <use x="63.623047" xlink:href="#DejaVuSans-30"/>
      <use x="127.246094" xlink:href="#DejaVuSans-31"/>
      <use x="190.869141" xlink:href="#DejaVuSans-32"/>
      <use x="254.492188" xlink:href="#DejaVuSans-20"/>
      <use x="286.279297" xlink:href="#DejaVuSans-74"/>
      <use x="325.488281" xlink:href="#DejaVuSans-6f"/>
      <use x="386.669922" xlink:href="#DejaVuSans-20"/>
      <use x="418.457031" xlink:href="#DejaVuSans-32"/>
      <use x="482.080078" xlink:href="#DejaVuSans-30"/>
      <use x="545.703125" xlink:href="#DejaVuSans-31"/>
      <use x="609.326172" xlink:href="#DejaVuSans-33"/>
     </g>
    </g>
    <g id="patch_89">
     <path d="M 1079.775 53.594687 
L 1099.775 53.594687 
L 1099.775 46.594687 
L 1079.775 46.594687 
z
" style="fill:#ff7f0e;"/>
    </g>
    <g id="text_21">
     <!-- 2013 to 2014 -->
     <g transform="translate(1107.775 53.594687)scale(0.1 -0.1)">
      <defs>
       <path d="M 2419 4116 
L 825 1625 
L 2419 1625 
L 2419 4116 
z
M 2253 4666 
L 3047 4666 
L 3047 1625 
L 3713 1625 
L 3713 1100 
L 3047 1100 
L 3047 0 
L 2419 0 
L 2419 1100 
L 313 1100 
L 313 1709 
L 2253 4666 
z
" id="DejaVuSans-34" transform="scale(0.015625)"/>
      </defs>
      <use xlink:href="#DejaVuSans-32"/>
      <use x="63.623047" xlink:href="#DejaVuSans-30"/>
      <use x="127.246094" xlink:href="#DejaVuSans-31"/>
      <use x="190.869141" xlink:href="#DejaVuSans-33"/>
      <use x="254.492188" xlink:href="#DejaVuSans-20"/>
      <use x="286.279297" xlink:href="#DejaVuSans-74"/>
      <use x="325.488281" xlink:href="#DejaVuSans-6f"/>
      <use x="386.669922" xlink:href="#DejaVuSans-20"/>
      <use x="418.457031" xlink:href="#DejaVuSans-32"/>
      <use x="482.080078" xlink:href="#DejaVuSans-30"/>
      <use x="545.703125" xlink:href="#DejaVuSans-31"/>
      <use x="609.326172" xlink:href="#DejaVuSans-34"/>
     </g>
    </g>
    <g id="patch_90">
     <path d="M 1079.775 68.272812 
L 1099.775 68.272812 
L 1099.775 61.272812 
L 1079.775 61.272812 
z
" style="fill:#2ca02c;"/>
    </g>
    <g id="text_22">
     <!-- 2014 to 2015 -->
     <g transform="translate(1107.775 68.272812)scale(0.1 -0.1)">
      <use xlink:href="#DejaVuSans-32"/>
      <use x="63.623047" xlink:href="#DejaVuSans-30"/>
      <use x="127.246094" xlink:href="#DejaVuSans-31"/>
      <use x="190.869141" xlink:href="#DejaVuSans-34"/>
      <use x="254.492188" xlink:href="#DejaVuSans-20"/>
      <use x="286.279297" xlink:href="#DejaVuSans-74"/>
      <use x="325.488281" xlink:href="#DejaVuSans-6f"/>
      <use x="386.669922" xlink:href="#DejaVuSans-20"/>
      <use x="418.457031" xlink:href="#DejaVuSans-32"/>
      <use x="482.080078" xlink:href="#DejaVuSans-30"/>
      <use x="545.703125" xlink:href="#DejaVuSans-31"/>
      <use x="609.326172" xlink:href="#DejaVuSans-35"/>
     </g>
    </g>
    <g id="patch_91">
     <path d="M 1079.775 82.950937 
L 1099.775 82.950937 
L 1099.775 75.950937 
L 1079.775 75.950937 
z
" style="fill:#d62728;"/>
    </g>
    <g id="text_23">
     <!-- 2015 to 2016 -->
     <g transform="translate(1107.775 82.950937)scale(0.1 -0.1)">
      <defs>
       <path d="M 2113 2584 
Q 1688 2584 1439 2293 
Q 1191 2003 1191 1497 
Q 1191 994 1439 701 
Q 1688 409 2113 409 
Q 2538 409 2786 701 
Q 3034 994 3034 1497 
Q 3034 2003 2786 2293 
Q 2538 2584 2113 2584 
z
M 3366 4563 
L 3366 3988 
Q 3128 4100 2886 4159 
Q 2644 4219 2406 4219 
Q 1781 4219 1451 3797 
Q 1122 3375 1075 2522 
Q 1259 2794 1537 2939 
Q 1816 3084 2150 3084 
Q 2853 3084 3261 2657 
Q 3669 2231 3669 1497 
Q 3669 778 3244 343 
Q 2819 -91 2113 -91 
Q 1303 -91 875 529 
Q 447 1150 447 2328 
Q 447 3434 972 4092 
Q 1497 4750 2381 4750 
Q 2619 4750 2861 4703 
Q 3103 4656 3366 4563 
z
" id="DejaVuSans-36" transform="scale(0.015625)"/>
      </defs>
      <use xlink:href="#DejaVuSans-32"/>
      <use x="63.623047" xlink:href="#DejaVuSans-30"/>
      <use x="127.246094" xlink:href="#DejaVuSans-31"/>
      <use x="190.869141" xlink:href="#DejaVuSans-35"/>
      <use x="254.492188" xlink:href="#DejaVuSans-20"/>
      <use x="286.279297" xlink:href="#DejaVuSans-74"/>
      <use x="325.488281" xlink:href="#DejaVuSans-6f"/>
      <use x="386.669922" xlink:href="#DejaVuSans-20"/>
      <use x="418.457031" xlink:href="#DejaVuSans-32"/>
      <use x="482.080078" xlink:href="#DejaVuSans-30"/>
      <use x="545.703125" xlink:href="#DejaVuSans-31"/>
      <use x="609.326172" xlink:href="#DejaVuSans-36"/>
     </g>
    </g>
    <g id="patch_92">
     <path d="M 1079.775 97.629062 
L 1099.775 97.629062 
L 1099.775 90.629062 
L 1079.775 90.629062 
z
" style="fill:#9467bd;"/>
    </g>
    <g id="text_24">
     <!-- 2016 to 2017 -->
     <g transform="translate(1107.775 97.629062)scale(0.1 -0.1)">
      <defs>
       <path d="M 525 4666 
L 3525 4666 
L 3525 4397 
L 1831 0 
L 1172 0 
L 2766 4134 
L 525 4134 
L 525 4666 
z
" id="DejaVuSans-37" transform="scale(0.015625)"/>
      </defs>
      <use xlink:href="#DejaVuSans-32"/>
      <use x="63.623047" xlink:href="#DejaVuSans-30"/>
      <use x="127.246094" xlink:href="#DejaVuSans-31"/>
      <use x="190.869141" xlink:href="#DejaVuSans-36"/>
      <use x="254.492188" xlink:href="#DejaVuSans-20"/>
      <use x="286.279297" xlink:href="#DejaVuSans-74"/>
      <use x="325.488281" xlink:href="#DejaVuSans-6f"/>
      <use x="386.669922" xlink:href="#DejaVuSans-20"/>
      <use x="418.457031" xlink:href="#DejaVuSans-32"/>
      <use x="482.080078" xlink:href="#DejaVuSans-30"/>
      <use x="545.703125" xlink:href="#DejaVuSans-31"/>
      <use x="609.326172" xlink:href="#DejaVuSans-37"/>
     </g>
    </g>
    <g id="patch_93">
     <path d="M 1079.775 112.307187 
L 1099.775 112.307187 
L 1099.775 105.307187 
L 1079.775 105.307187 
z
" style="fill:#8c564b;"/>
    </g>
    <g id="text_25">
     <!-- 2017 to 2018 -->
     <g transform="translate(1107.775 112.307187)scale(0.1 -0.1)">
      <defs>
       <path d="M 2034 2216 
Q 1584 2216 1326 1975 
Q 1069 1734 1069 1313 
Q 1069 891 1326 650 
Q 1584 409 2034 409 
Q 2484 409 2743 651 
Q 3003 894 3003 1313 
Q 3003 1734 2745 1975 
Q 2488 2216 2034 2216 
z
M 1403 2484 
Q 997 2584 770 2862 
Q 544 3141 544 3541 
Q 544 4100 942 4425 
Q 1341 4750 2034 4750 
Q 2731 4750 3128 4425 
Q 3525 4100 3525 3541 
Q 3525 3141 3298 2862 
Q 3072 2584 2669 2484 
Q 3125 2378 3379 2068 
Q 3634 1759 3634 1313 
Q 3634 634 3220 271 
Q 2806 -91 2034 -91 
Q 1263 -91 848 271 
Q 434 634 434 1313 
Q 434 1759 690 2068 
Q 947 2378 1403 2484 
z
M 1172 3481 
Q 1172 3119 1398 2916 
Q 1625 2713 2034 2713 
Q 2441 2713 2670 2916 
Q 2900 3119 2900 3481 
Q 2900 3844 2670 4047 
Q 2441 4250 2034 4250 
Q 1625 4250 1398 4047 
Q 1172 3844 1172 3481 
z
" id="DejaVuSans-38" transform="scale(0.015625)"/>
      </defs>
      <use xlink:href="#DejaVuSans-32"/>
      <use x="63.623047" xlink:href="#DejaVuSans-30"/>
      <use x="127.246094" xlink:href="#DejaVuSans-31"/>
      <use x="190.869141" xlink:href="#DejaVuSans-37"/>
      <use x="254.492188" xlink:href="#DejaVuSans-20"/>
      <use x="286.279297" xlink:href="#DejaVuSans-74"/>
      <use x="325.488281" xlink:href="#DejaVuSans-6f"/>
      <use x="386.669922" xlink:href="#DejaVuSans-20"/>
      <use x="418.457031" xlink:href="#DejaVuSans-32"/>
      <use x="482.080078" xlink:href="#DejaVuSans-30"/>
      <use x="545.703125" xlink:href="#DejaVuSans-31"/>
      <use x="609.326172" xlink:href="#DejaVuSans-38"/>
     </g>
    </g>
    <g id="patch_94">
     <path d="M 1079.775 126.985312 
L 1099.775 126.985312 
L 1099.775 119.985312 
L 1079.775 119.985312 
z
" style="fill:#e377c2;"/>
    </g>
    <g id="text_26">
     <!-- 2018 to 2019 -->
     <g transform="translate(1107.775 126.985312)scale(0.1 -0.1)">
      <defs>
       <path d="M 703 97 
L 703 672 
Q 941 559 1184 500 
Q 1428 441 1663 441 
Q 2288 441 2617 861 
Q 2947 1281 2994 2138 
Q 2813 1869 2534 1725 
Q 2256 1581 1919 1581 
Q 1219 1581 811 2004 
Q 403 2428 403 3163 
Q 403 3881 828 4315 
Q 1253 4750 1959 4750 
Q 2769 4750 3195 4129 
Q 3622 3509 3622 2328 
Q 3622 1225 3098 567 
Q 2575 -91 1691 -91 
Q 1453 -91 1209 -44 
Q 966 3 703 97 
z
M 1959 2075 
Q 2384 2075 2632 2365 
Q 2881 2656 2881 3163 
Q 2881 3666 2632 3958 
Q 2384 4250 1959 4250 
Q 1534 4250 1286 3958 
Q 1038 3666 1038 3163 
Q 1038 2656 1286 2365 
Q 1534 2075 1959 2075 
z
" id="DejaVuSans-39" transform="scale(0.015625)"/>
      </defs>
      <use xlink:href="#DejaVuSans-32"/>
      <use x="63.623047" xlink:href="#DejaVuSans-30"/>
      <use x="127.246094" xlink:href="#DejaVuSans-31"/>
      <use x="190.869141" xlink:href="#DejaVuSans-38"/>
      <use x="254.492188" xlink:href="#DejaVuSans-20"/>
      <use x="286.279297" xlink:href="#DejaVuSans-74"/>
      <use x="325.488281" xlink:href="#DejaVuSans-6f"/>
      <use x="386.669922" xlink:href="#DejaVuSans-20"/>
      <use x="418.457031" xlink:href="#DejaVuSans-32"/>
      <use x="482.080078" xlink:href="#DejaVuSans-30"/>
      <use x="545.703125" xlink:href="#DejaVuSans-31"/>
      <use x="609.326172" xlink:href="#DejaVuSans-39"/>
     </g>
    </g>
    <g id="patch_95">
     <path d="M 1079.775 141.663437 
L 1099.775 141.663437 
L 1099.775 134.663437 
L 1079.775 134.663437 
z
" style="fill:#7f7f7f;"/>
    </g>
    <g id="text_27">
     <!-- 2019 to 2020 -->
     <g transform="translate(1107.775 141.663437)scale(0.1 -0.1)">
      <use xlink:href="#DejaVuSans-32"/>
      <use x="63.623047" xlink:href="#DejaVuSans-30"/>
      <use x="127.246094" xlink:href="#DejaVuSans-31"/>
      <use x="190.869141" xlink:href="#DejaVuSans-39"/>
      <use x="254.492188" xlink:href="#DejaVuSans-20"/>
      <use x="286.279297" xlink:href="#DejaVuSans-74"/>
      <use x="325.488281" xlink:href="#DejaVuSans-6f"/>
      <use x="386.669922" xlink:href="#DejaVuSans-20"/>
      <use x="418.457031" xlink:href="#DejaVuSans-32"/>
      <use x="482.080078" xlink:href="#DejaVuSans-30"/>
      <use x="545.703125" xlink:href="#DejaVuSans-32"/>
      <use x="609.326172" xlink:href="#DejaVuSans-30"/>
     </g>
    </g>
   </g>
  </g>
 </g>
 <defs>
  <clipPath id="p5c9ee258d2">
   <rect height="543.6" width="1116" x="68.070313" y="22.318125"/>
  </clipPath>
 </defs>
</svg>
