<?xml version="1.0" encoding="utf-8" standalone="no"?>
<!DOCTYPE svg PUBLIC "-//W3C//DTD SVG 1.1//EN"
  "http://www.w3.org/Graphics/SVG/1.1/DTD/svg11.dtd">
<svg height="1584.488438pt" version="1.1" viewBox="0 0 910.253125 1584.488438" width="910.253125pt" xmlns="http://www.w3.org/2000/svg" xmlns:xlink="http://www.w3.org/1999/xlink">
 <metadata>
  <rdf:RDF xmlns:cc="http://creativecommons.org/ns#" xmlns:dc="http://purl.org/dc/elements/1.1/" xmlns:rdf="http://www.w3.org/1999/02/22-rdf-syntax-ns#">
   <cc:Work>
    <dc:type rdf:resource="http://purl.org/dc/dcmitype/StillImage"/>
    <dc:date>2022-03-13T14:57:21.250191</dc:date>
    <dc:format>image/svg+xml</dc:format>
    <dc:creator>
     <cc:Agent>
      <dc:title>Matplotlib v3.4.3, https://matplotlib.org/</dc:title>
     </cc:Agent>
    </dc:creator>
   </cc:Work>
  </rdf:RDF>
 </metadata>
 <defs>
  <style type="text/css">*{stroke-linecap:butt;stroke-linejoin:round;}</style>
 </defs>
 <g id="figure_1">
  <g id="patch_1">
   <path d="M 0 1584.488438 
L 910.253125 1584.488438 
L 910.253125 0 
L 0 0 
z
" style="fill:none;"/>
  </g>
  <g id="axes_1">
   <g id="patch_2">
    <path d="M 66.053125 1109.518125 
L 903.053125 1109.518125 
L 903.053125 22.318125 
L 66.053125 22.318125 
z
" style="fill:#ffffff;"/>
   </g>
   <g id="patch_3">
    <path clip-path="url(#peebc65bf1c)" d="M 89.303125 1109.518125 
L 93.953125 1109.518125 
L 93.953125 357.915887 
L 89.303125 357.915887 
z
" style="fill:#1f77b4;"/>
   </g>
   <g id="patch_4">
    <path clip-path="url(#peebc65bf1c)" d="M 182.303125 1109.518125 
L 186.953125 1109.518125 
L 186.953125 741.080441 
L 182.303125 741.080441 
z
" style="fill:#1f77b4;"/>
   </g>
   <g id="patch_5">
    <path clip-path="url(#peebc65bf1c)" d="M 275.303125 1109.518125 
L 279.953125 1109.518125 
L 279.953125 1101.892067 
L 275.303125 1101.892067 
z
" style="fill:#1f77b4;"/>
   </g>
   <g id="patch_6">
    <path clip-path="url(#peebc65bf1c)" d="M 368.303125 1109.518125 
L 372.953125 1109.518125 
L 372.953125 1105.309498 
L 368.303125 1105.309498 
z
" style="fill:#1f77b4;"/>
   </g>
   <g id="patch_7">
    <path clip-path="url(#peebc65bf1c)" d="M 461.303125 1109.518125 
L 465.953125 1109.518125 
L 465.953125 1104.418572 
L 461.303125 1104.418572 
z
" style="fill:#1f77b4;"/>
   </g>
   <g id="patch_8">
    <path clip-path="url(#peebc65bf1c)" d="M 554.303125 1109.518125 
L 558.953125 1109.518125 
L 558.953125 1060.118288 
L 554.303125 1060.118288 
z
" style="fill:#1f77b4;"/>
   </g>
   <g id="patch_9">
    <path clip-path="url(#peebc65bf1c)" d="M 647.303125 1109.518125 
L 651.953125 1109.518125 
L 651.953125 1106.333398 
L 647.303125 1106.333398 
z
" style="fill:#1f77b4;"/>
   </g>
   <g id="patch_10">
    <path clip-path="url(#peebc65bf1c)" d="M 740.303125 1109.518125 
L 744.953125 1109.518125 
L 744.953125 1081.866184 
L 740.303125 1081.866184 
z
" style="fill:#1f77b4;"/>
   </g>
   <g id="patch_11">
    <path clip-path="url(#peebc65bf1c)" d="M 833.303125 1109.518125 
L 837.953125 1109.518125 
L 837.953125 1099.98389 
L 833.303125 1099.98389 
z
" style="fill:#1f77b4;"/>
   </g>
   <g id="patch_12">
    <path clip-path="url(#peebc65bf1c)" d="M 93.953125 1109.518125 
L 98.603125 1109.518125 
L 98.603125 407.894162 
L 93.953125 407.894162 
z
" style="fill:#ff7f0e;"/>
   </g>
   <g id="patch_13">
    <path clip-path="url(#peebc65bf1c)" d="M 186.953125 1109.518125 
L 191.603125 1109.518125 
L 191.603125 809.754858 
L 186.953125 809.754858 
z
" style="fill:#ff7f0e;"/>
   </g>
   <g id="patch_14">
    <path clip-path="url(#peebc65bf1c)" d="M 279.953125 1109.518125 
L 284.603125 1109.518125 
L 284.603125 1104.478411 
L 279.953125 1104.478411 
z
" style="fill:#ff7f0e;"/>
   </g>
   <g id="patch_15">
    <path clip-path="url(#peebc65bf1c)" d="M 372.953125 1109.518125 
L 377.603125 1109.518125 
L 377.603125 1105.243011 
L 372.953125 1105.243011 
z
" style="fill:#ff7f0e;"/>
   </g>
   <g id="patch_16">
    <path clip-path="url(#peebc65bf1c)" d="M 465.953125 1109.518125 
L 470.603125 1109.518125 
L 470.603125 1084.95118 
L 465.953125 1084.95118 
z
" style="fill:#ff7f0e;"/>
   </g>
   <g id="patch_17">
    <path clip-path="url(#peebc65bf1c)" d="M 558.953125 1109.518125 
L 563.603125 1109.518125 
L 563.603125 1064.187292 
L 558.953125 1064.187292 
z
" style="fill:#ff7f0e;"/>
   </g>
   <g id="patch_18">
    <path clip-path="url(#peebc65bf1c)" d="M 651.953125 1109.518125 
L 656.603125 1109.518125 
L 656.603125 1106.393236 
L 651.953125 1106.393236 
z
" style="fill:#ff7f0e;"/>
   </g>
   <g id="patch_19">
    <path clip-path="url(#peebc65bf1c)" d="M 744.953125 1109.518125 
L 749.603125 1109.518125 
L 749.603125 1094.92423 
L 744.953125 1094.92423 
z
" style="fill:#ff7f0e;"/>
   </g>
   <g id="patch_20">
    <path clip-path="url(#peebc65bf1c)" d="M 837.953125 1109.518125 
L 842.603125 1109.518125 
L 842.603125 1100.735193 
L 837.953125 1100.735193 
z
" style="fill:#ff7f0e;"/>
   </g>
   <g id="patch_21">
    <path clip-path="url(#peebc65bf1c)" d="M 98.603125 1109.518125 
L 103.253125 1109.518125 
L 103.253125 594.942025 
L 98.603125 594.942025 
z
" style="fill:#2ca02c;"/>
   </g>
   <g id="patch_22">
    <path clip-path="url(#peebc65bf1c)" d="M 191.603125 1109.518125 
L 196.253125 1109.518125 
L 196.253125 828.710301 
L 191.603125 828.710301 
z
" style="fill:#2ca02c;"/>
   </g>
   <g id="patch_23">
    <path clip-path="url(#peebc65bf1c)" d="M 284.603125 1109.518125 
L 289.253125 1109.518125 
L 289.253125 1105.821448 
L 284.603125 1105.821448 
z
" style="fill:#2ca02c;"/>
   </g>
   <g id="patch_24">
    <path clip-path="url(#peebc65bf1c)" d="M 377.603125 1109.518125 
L 382.253125 1109.518125 
L 382.253125 1105.243011 
L 377.603125 1105.243011 
z
" style="fill:#2ca02c;"/>
   </g>
   <g id="patch_25">
    <path clip-path="url(#peebc65bf1c)" d="M 470.603125 1109.518125 
L 475.253125 1109.518125 
L 475.253125 1094.92423 
L 470.603125 1094.92423 
z
" style="fill:#2ca02c;"/>
   </g>
   <g id="patch_26">
    <path clip-path="url(#peebc65bf1c)" d="M 563.603125 1109.518125 
L 568.253125 1109.518125 
L 568.253125 1071.20167 
L 563.603125 1071.20167 
z
" style="fill:#2ca02c;"/>
   </g>
   <g id="patch_27">
    <path clip-path="url(#peebc65bf1c)" d="M 656.603125 1109.518125 
L 661.253125 1109.518125 
L 661.253125 1105.475716 
L 656.603125 1105.475716 
z
" style="fill:#2ca02c;"/>
   </g>
   <g id="patch_28">
    <path clip-path="url(#peebc65bf1c)" d="M 749.603125 1109.518125 
L 754.253125 1109.518125 
L 754.253125 1084.54561 
L 749.603125 1084.54561 
z
" style="fill:#2ca02c;"/>
   </g>
   <g id="patch_29">
    <path clip-path="url(#peebc65bf1c)" d="M 842.603125 1109.518125 
L 847.253125 1109.518125 
L 847.253125 1103.46116 
L 842.603125 1103.46116 
z
" style="fill:#2ca02c;"/>
   </g>
   <g id="patch_30">
    <path clip-path="url(#peebc65bf1c)" d="M 103.253125 1109.518125 
L 107.903125 1109.518125 
L 107.903125 470.804157 
L 103.253125 470.804157 
z
" style="fill:#d62728;"/>
   </g>
   <g id="patch_31">
    <path clip-path="url(#peebc65bf1c)" d="M 196.253125 1109.518125 
L 200.903125 1109.518125 
L 200.903125 855.697372 
L 196.253125 855.697372 
z
" style="fill:#d62728;"/>
   </g>
   <g id="patch_32">
    <path clip-path="url(#peebc65bf1c)" d="M 289.253125 1109.518125 
L 293.903125 1109.518125 
L 293.903125 1108.886499 
L 289.253125 1108.886499 
z
" style="fill:#d62728;"/>
   </g>
   <g id="patch_33">
    <path clip-path="url(#peebc65bf1c)" d="M 382.253125 1109.518125 
L 386.903125 1109.518125 
L 386.903125 1105.568797 
L 382.253125 1105.568797 
z
" style="fill:#d62728;"/>
   </g>
   <g id="patch_34">
    <path clip-path="url(#peebc65bf1c)" d="M 475.253125 1109.518125 
L 479.903125 1109.518125 
L 479.903125 1030.578116 
L 475.253125 1030.578116 
z
" style="fill:#d62728;"/>
   </g>
   <g id="patch_35">
    <path clip-path="url(#peebc65bf1c)" d="M 568.253125 1109.518125 
L 572.903125 1109.518125 
L 572.903125 1074.62575 
L 568.253125 1074.62575 
z
" style="fill:#d62728;"/>
   </g>
   <g id="patch_36">
    <path clip-path="url(#peebc65bf1c)" d="M 661.253125 1109.518125 
L 665.903125 1109.518125 
L 665.903125 1101.878769 
L 661.253125 1101.878769 
z
" style="fill:#d62728;"/>
   </g>
   <g id="patch_37">
    <path clip-path="url(#peebc65bf1c)" d="M 754.253125 1109.518125 
L 758.903125 1109.518125 
L 758.903125 1031.62861 
L 754.253125 1031.62861 
z
" style="fill:#d62728;"/>
   </g>
   <g id="patch_38">
    <path clip-path="url(#peebc65bf1c)" d="M 847.253125 1109.518125 
L 851.903125 1109.518125 
L 851.903125 1103.161968 
L 847.253125 1103.161968 
z
" style="fill:#d62728;"/>
   </g>
   <g id="patch_39">
    <path clip-path="url(#peebc65bf1c)" d="M 107.903125 1109.518125 
L 112.553125 1109.518125 
L 112.553125 322.105992 
L 107.903125 322.105992 
z
" style="fill:#9467bd;"/>
   </g>
   <g id="patch_40">
    <path clip-path="url(#peebc65bf1c)" d="M 200.903125 1109.518125 
L 205.553125 1109.518125 
L 205.553125 886.361174 
L 200.903125 886.361174 
z
" style="fill:#9467bd;"/>
   </g>
   <g id="patch_41">
    <path clip-path="url(#peebc65bf1c)" d="M 293.903125 1109.518125 
L 298.553125 1109.518125 
L 298.553125 1109.365205 
L 293.903125 1109.365205 
z
" style="fill:#9467bd;"/>
   </g>
   <g id="patch_42">
    <path clip-path="url(#peebc65bf1c)" d="M 386.903125 1109.518125 
L 391.553125 1109.518125 
L 391.553125 1106.838699 
L 386.903125 1106.838699 
z
" style="fill:#9467bd;"/>
   </g>
   <g id="patch_43">
    <path clip-path="url(#peebc65bf1c)" d="M 479.903125 1109.518125 
L 484.553125 1109.518125 
L 484.553125 1062.658091 
L 479.903125 1062.658091 
z
" style="fill:#9467bd;"/>
   </g>
   <g id="patch_44">
    <path clip-path="url(#peebc65bf1c)" d="M 572.903125 1109.518125 
L 577.553125 1109.518125 
L 577.553125 1078.182804 
L 572.903125 1078.182804 
z
" style="fill:#9467bd;"/>
   </g>
   <g id="patch_45">
    <path clip-path="url(#peebc65bf1c)" d="M 665.903125 1109.518125 
L 670.553125 1109.518125 
L 670.553125 1103.068886 
L 665.903125 1103.068886 
z
" style="fill:#9467bd;"/>
   </g>
   <g id="patch_46">
    <path clip-path="url(#peebc65bf1c)" d="M 758.903125 1109.518125 
L 763.553125 1109.518125 
L 763.553125 1015.518811 
L 758.903125 1015.518811 
z
" style="fill:#9467bd;"/>
   </g>
   <g id="patch_47">
    <path clip-path="url(#peebc65bf1c)" d="M 851.903125 1109.518125 
L 856.553125 1109.518125 
L 856.553125 1104.318842 
L 851.903125 1104.318842 
z
" style="fill:#9467bd;"/>
   </g>
   <g id="patch_48">
    <path clip-path="url(#peebc65bf1c)" d="M 112.553125 1109.518125 
L 117.203125 1109.518125 
L 117.203125 310.238063 
L 112.553125 310.238063 
z
" style="fill:#8c564b;"/>
   </g>
   <g id="patch_49">
    <path clip-path="url(#peebc65bf1c)" d="M 205.553125 1109.518125 
L 210.203125 1109.518125 
L 210.203125 862.126664 
L 205.553125 862.126664 
z
" style="fill:#8c564b;"/>
   </g>
   <g id="patch_50">
    <path clip-path="url(#peebc65bf1c)" d="M 298.553125 1109.518125 
L 303.203125 1109.518125 
L 303.203125 1109.418395 
L 298.553125 1109.418395 
z
" style="fill:#8c564b;"/>
   </g>
   <g id="patch_51">
    <path clip-path="url(#peebc65bf1c)" d="M 391.553125 1109.518125 
L 396.203125 1109.518125 
L 396.203125 1108.906445 
L 391.553125 1108.906445 
z
" style="fill:#8c564b;"/>
   </g>
   <g id="patch_52">
    <path clip-path="url(#peebc65bf1c)" d="M 484.553125 1109.518125 
L 489.203125 1109.518125 
L 489.203125 1028.729777 
L 484.553125 1028.729777 
z
" style="fill:#8c564b;"/>
   </g>
   <g id="patch_53">
    <path clip-path="url(#peebc65bf1c)" d="M 577.553125 1109.518125 
L 582.203125 1109.518125 
L 582.203125 1086.560166 
L 577.553125 1086.560166 
z
" style="fill:#8c564b;"/>
   </g>
   <g id="patch_54">
    <path clip-path="url(#peebc65bf1c)" d="M 670.553125 1109.518125 
L 675.203125 1109.518125 
L 675.203125 1102.410665 
L 670.553125 1102.410665 
z
" style="fill:#8c564b;"/>
   </g>
   <g id="patch_55">
    <path clip-path="url(#peebc65bf1c)" d="M 763.553125 1109.518125 
L 768.203125 1109.518125 
L 768.203125 1001.915572 
L 763.553125 1001.915572 
z
" style="fill:#8c564b;"/>
   </g>
   <g id="patch_56">
    <path clip-path="url(#peebc65bf1c)" d="M 856.553125 1109.518125 
L 861.203125 1109.518125 
L 861.203125 1105.76161 
L 856.553125 1105.76161 
z
" style="fill:#8c564b;"/>
   </g>
   <g id="patch_57">
    <path clip-path="url(#peebc65bf1c)" d="M 117.203125 1109.518125 
L 121.853125 1109.518125 
L 121.853125 309.307245 
L 117.203125 309.307245 
z
" style="fill:#e377c2;"/>
   </g>
   <g id="patch_58">
    <path clip-path="url(#peebc65bf1c)" d="M 210.203125 1109.518125 
L 214.853125 1109.518125 
L 214.853125 938.998928 
L 210.203125 938.998928 
z
" style="fill:#e377c2;"/>
   </g>
   <g id="patch_59">
    <path clip-path="url(#peebc65bf1c)" d="M 303.203125 1109.518125 
L 307.853125 1109.518125 
L 307.853125 1109.345259 
L 303.203125 1109.345259 
z
" style="fill:#e377c2;"/>
   </g>
   <g id="patch_60">
    <path clip-path="url(#peebc65bf1c)" d="M 396.203125 1109.518125 
L 400.853125 1109.518125 
L 400.853125 1109.019473 
L 396.203125 1109.019473 
z
" style="fill:#e377c2;"/>
   </g>
   <g id="patch_61">
    <path clip-path="url(#peebc65bf1c)" d="M 489.203125 1109.518125 
L 493.853125 1109.518125 
L 493.853125 981.922932 
L 489.203125 981.922932 
z
" style="fill:#e377c2;"/>
   </g>
   <g id="patch_62">
    <path clip-path="url(#peebc65bf1c)" d="M 582.203125 1109.518125 
L 586.853125 1109.518125 
L 586.853125 1085.988377 
L 582.203125 1085.988377 
z
" style="fill:#e377c2;"/>
   </g>
   <g id="patch_63">
    <path clip-path="url(#peebc65bf1c)" d="M 675.203125 1109.518125 
L 679.853125 1109.518125 
L 679.853125 1100.761788 
L 675.203125 1100.761788 
z
" style="fill:#e377c2;"/>
   </g>
   <g id="patch_64">
    <path clip-path="url(#peebc65bf1c)" d="M 768.203125 1109.518125 
L 772.853125 1109.518125 
L 772.853125 989.409368 
L 768.203125 989.409368 
z
" style="fill:#e377c2;"/>
   </g>
   <g id="patch_65">
    <path clip-path="url(#peebc65bf1c)" d="M 861.203125 1109.518125 
L 865.853125 1109.518125 
L 865.853125 1104.478411 
L 861.203125 1104.478411 
z
" style="fill:#e377c2;"/>
   </g>
   <g id="patch_66">
    <path clip-path="url(#peebc65bf1c)" d="M 121.853125 1109.518125 
L 126.503125 1109.518125 
L 126.503125 74.089554 
L 121.853125 74.089554 
z
" style="fill:#7f7f7f;"/>
   </g>
   <g id="patch_67">
    <path clip-path="url(#peebc65bf1c)" d="M 214.853125 1109.518125 
L 219.503125 1109.518125 
L 219.503125 908.893617 
L 214.853125 908.893617 
z
" style="fill:#7f7f7f;"/>
   </g>
   <g id="patch_68">
    <path clip-path="url(#peebc65bf1c)" d="M 307.853125 1109.518125 
L 312.503125 1109.518125 
L 312.503125 1109.425043 
L 307.853125 1109.425043 
z
" style="fill:#7f7f7f;"/>
   </g>
   <g id="patch_69">
    <path clip-path="url(#peebc65bf1c)" d="M 400.853125 1109.518125 
L 405.503125 1109.518125 
L 405.503125 1109.059365 
L 400.853125 1109.059365 
z
" style="fill:#7f7f7f;"/>
   </g>
   <g id="patch_70">
    <path clip-path="url(#peebc65bf1c)" d="M 493.853125 1109.518125 
L 498.503125 1109.518125 
L 498.503125 1041.056466 
L 493.853125 1041.056466 
z
" style="fill:#7f7f7f;"/>
   </g>
   <g id="patch_71">
    <path clip-path="url(#peebc65bf1c)" d="M 586.853125 1109.518125 
L 591.503125 1109.518125 
L 591.503125 1080.124224 
L 586.853125 1080.124224 
z
" style="fill:#7f7f7f;"/>
   </g>
   <g id="patch_72">
    <path clip-path="url(#peebc65bf1c)" d="M 679.853125 1109.518125 
L 684.503125 1109.518125 
L 684.503125 1101.486496 
L 679.853125 1101.486496 
z
" style="fill:#7f7f7f;"/>
   </g>
   <g id="patch_73">
    <path clip-path="url(#peebc65bf1c)" d="M 772.853125 1109.518125 
L 777.503125 1109.518125 
L 777.503125 1009.707848 
L 772.853125 1009.707848 
z
" style="fill:#7f7f7f;"/>
   </g>
   <g id="patch_74">
    <path clip-path="url(#peebc65bf1c)" d="M 865.853125 1109.518125 
L 870.503125 1109.518125 
L 870.503125 1105.289552 
L 865.853125 1105.289552 
z
" style="fill:#7f7f7f;"/>
   </g>
   <g id="patch_75">
    <path clip-path="url(#peebc65bf1c)" d="M 126.503125 1109.518125 
L 131.153125 1109.518125 
L 131.153125 571.585144 
L 126.503125 571.585144 
z
" style="fill:#bcbd22;"/>
   </g>
   <g id="patch_76">
    <path clip-path="url(#peebc65bf1c)" d="M 219.503125 1109.518125 
L 224.153125 1109.518125 
L 224.153125 936.631991 
L 219.503125 936.631991 
z
" style="fill:#bcbd22;"/>
   </g>
   <g id="patch_77">
    <path clip-path="url(#peebc65bf1c)" d="M 312.503125 1109.518125 
L 317.153125 1109.518125 
L 317.153125 1109.411746 
L 312.503125 1109.411746 
z
" style="fill:#bcbd22;"/>
   </g>
   <g id="patch_78">
    <path clip-path="url(#peebc65bf1c)" d="M 405.503125 1109.518125 
L 410.153125 1109.518125 
L 410.153125 1109.119203 
L 405.503125 1109.119203 
z
" style="fill:#bcbd22;"/>
   </g>
   <g id="patch_79">
    <path clip-path="url(#peebc65bf1c)" d="M 498.503125 1109.518125 
L 503.153125 1109.518125 
L 503.153125 1055.789984 
L 498.503125 1055.789984 
z
" style="fill:#bcbd22;"/>
   </g>
   <g id="patch_80">
    <path clip-path="url(#peebc65bf1c)" d="M 591.503125 1109.518125 
L 596.153125 1109.518125 
L 596.153125 1082.70392 
L 591.503125 1082.70392 
z
" style="fill:#bcbd22;"/>
   </g>
   <g id="patch_81">
    <path clip-path="url(#peebc65bf1c)" d="M 684.503125 1109.518125 
L 689.153125 1109.518125 
L 689.153125 1104.079489 
L 684.503125 1104.079489 
z
" style="fill:#bcbd22;"/>
   </g>
   <g id="patch_82">
    <path clip-path="url(#peebc65bf1c)" d="M 777.503125 1109.518125 
L 782.153125 1109.518125 
L 782.153125 986.902808 
L 777.503125 986.902808 
z
" style="fill:#bcbd22;"/>
   </g>
   <g id="patch_83">
    <path clip-path="url(#peebc65bf1c)" d="M 870.503125 1109.518125 
L 875.153125 1109.518125 
L 875.153125 1105.668528 
L 870.503125 1105.668528 
z
" style="fill:#bcbd22;"/>
   </g>
   <g id="patch_84">
    <path clip-path="url(#peebc65bf1c)" d="M 131.153125 1109.518125 
L 135.803125 1109.518125 
L 135.803125 814.289271 
L 131.153125 814.289271 
z
" style="fill:#17becf;"/>
   </g>
   <g id="patch_85">
    <path clip-path="url(#peebc65bf1c)" d="M 224.153125 1109.518125 
L 228.803125 1109.518125 
L 228.803125 980.061297 
L 224.153125 980.061297 
z
" style="fill:#17becf;"/>
   </g>
   <g id="patch_86">
    <path clip-path="url(#peebc65bf1c)" d="M 317.153125 1109.518125 
L 321.803125 1109.518125 
L 321.803125 1109.431692 
L 317.153125 1109.431692 
z
" style="fill:#17becf;"/>
   </g>
   <g id="patch_87">
    <path clip-path="url(#peebc65bf1c)" d="M 410.153125 1109.518125 
L 414.803125 1109.518125 
L 414.803125 1109.318664 
L 410.153125 1109.318664 
z
" style="fill:#17becf;"/>
   </g>
   <g id="patch_88">
    <path clip-path="url(#peebc65bf1c)" d="M 503.153125 1109.518125 
L 507.803125 1109.518125 
L 507.803125 1044.846225 
L 503.153125 1044.846225 
z
" style="fill:#17becf;"/>
   </g>
   <g id="patch_89">
    <path clip-path="url(#peebc65bf1c)" d="M 596.153125 1109.518125 
L 600.803125 1109.518125 
L 600.803125 1085.017667 
L 596.153125 1085.017667 
z
" style="fill:#17becf;"/>
   </g>
   <g id="patch_90">
    <path clip-path="url(#peebc65bf1c)" d="M 689.153125 1109.518125 
L 693.803125 1109.518125 
L 693.803125 1103.760351 
L 689.153125 1103.760351 
z
" style="fill:#17becf;"/>
   </g>
   <g id="patch_91">
    <path clip-path="url(#peebc65bf1c)" d="M 782.153125 1109.518125 
L 786.803125 1109.518125 
L 786.803125 1030.152599 
L 782.153125 1030.152599 
z
" style="fill:#17becf;"/>
   </g>
   <g id="patch_92">
    <path clip-path="url(#peebc65bf1c)" d="M 875.153125 1109.518125 
L 879.803125 1109.518125 
L 879.803125 1105.967719 
L 875.153125 1105.967719 
z
" style="fill:#17becf;"/>
   </g>
   <g id="matplotlib.axis_1">
    <g id="xtick_1">
     <g id="line2d_1">
      <defs>
       <path d="M 0 0 
L 0 3.5 
" id="mabebb246c3" style="stroke:#000000;stroke-width:0.8;"/>
      </defs>
      <g>
       <use style="stroke:#000000;stroke-width:0.8;" x="112.553125" xlink:href="#mabebb246c3" y="1109.518125"/>
      </g>
     </g>
     <g id="text_1">
      <!-- Refugees -->
      <g transform="translate(115.3125 1162.891563)rotate(-90)scale(0.1 -0.1)">
       <defs>
        <path d="M 2841 2188 
Q 3044 2119 3236 1894 
Q 3428 1669 3622 1275 
L 4263 0 
L 3584 0 
L 2988 1197 
Q 2756 1666 2539 1819 
Q 2322 1972 1947 1972 
L 1259 1972 
L 1259 0 
L 628 0 
L 628 4666 
L 2053 4666 
Q 2853 4666 3247 4331 
Q 3641 3997 3641 3322 
Q 3641 2881 3436 2590 
Q 3231 2300 2841 2188 
z
M 1259 4147 
L 1259 2491 
L 2053 2491 
Q 2509 2491 2742 2702 
Q 2975 2913 2975 3322 
Q 2975 3731 2742 3939 
Q 2509 4147 2053 4147 
L 1259 4147 
z
" id="DejaVuSans-52" transform="scale(0.015625)"/>
        <path d="M 3597 1894 
L 3597 1613 
L 953 1613 
Q 991 1019 1311 708 
Q 1631 397 2203 397 
Q 2534 397 2845 478 
Q 3156 559 3463 722 
L 3463 178 
Q 3153 47 2828 -22 
Q 2503 -91 2169 -91 
Q 1331 -91 842 396 
Q 353 884 353 1716 
Q 353 2575 817 3079 
Q 1281 3584 2069 3584 
Q 2775 3584 3186 3129 
Q 3597 2675 3597 1894 
z
M 3022 2063 
Q 3016 2534 2758 2815 
Q 2500 3097 2075 3097 
Q 1594 3097 1305 2825 
Q 1016 2553 972 2059 
L 3022 2063 
z
" id="DejaVuSans-65" transform="scale(0.015625)"/>
        <path d="M 2375 4863 
L 2375 4384 
L 1825 4384 
Q 1516 4384 1395 4259 
Q 1275 4134 1275 3809 
L 1275 3500 
L 2222 3500 
L 2222 3053 
L 1275 3053 
L 1275 0 
L 697 0 
L 697 3053 
L 147 3053 
L 147 3500 
L 697 3500 
L 697 3744 
Q 697 4328 969 4595 
Q 1241 4863 1831 4863 
L 2375 4863 
z
" id="DejaVuSans-66" transform="scale(0.015625)"/>
        <path d="M 544 1381 
L 544 3500 
L 1119 3500 
L 1119 1403 
Q 1119 906 1312 657 
Q 1506 409 1894 409 
Q 2359 409 2629 706 
Q 2900 1003 2900 1516 
L 2900 3500 
L 3475 3500 
L 3475 0 
L 2900 0 
L 2900 538 
Q 2691 219 2414 64 
Q 2138 -91 1772 -91 
Q 1169 -91 856 284 
Q 544 659 544 1381 
z
M 1991 3584 
L 1991 3584 
z
" id="DejaVuSans-75" transform="scale(0.015625)"/>
        <path d="M 2906 1791 
Q 2906 2416 2648 2759 
Q 2391 3103 1925 3103 
Q 1463 3103 1205 2759 
Q 947 2416 947 1791 
Q 947 1169 1205 825 
Q 1463 481 1925 481 
Q 2391 481 2648 825 
Q 2906 1169 2906 1791 
z
M 3481 434 
Q 3481 -459 3084 -895 
Q 2688 -1331 1869 -1331 
Q 1566 -1331 1297 -1286 
Q 1028 -1241 775 -1147 
L 775 -588 
Q 1028 -725 1275 -790 
Q 1522 -856 1778 -856 
Q 2344 -856 2625 -561 
Q 2906 -266 2906 331 
L 2906 616 
Q 2728 306 2450 153 
Q 2172 0 1784 0 
Q 1141 0 747 490 
Q 353 981 353 1791 
Q 353 2603 747 3093 
Q 1141 3584 1784 3584 
Q 2172 3584 2450 3431 
Q 2728 3278 2906 2969 
L 2906 3500 
L 3481 3500 
L 3481 434 
z
" id="DejaVuSans-67" transform="scale(0.015625)"/>
        <path d="M 2834 3397 
L 2834 2853 
Q 2591 2978 2328 3040 
Q 2066 3103 1784 3103 
Q 1356 3103 1142 2972 
Q 928 2841 928 2578 
Q 928 2378 1081 2264 
Q 1234 2150 1697 2047 
L 1894 2003 
Q 2506 1872 2764 1633 
Q 3022 1394 3022 966 
Q 3022 478 2636 193 
Q 2250 -91 1575 -91 
Q 1294 -91 989 -36 
Q 684 19 347 128 
L 347 722 
Q 666 556 975 473 
Q 1284 391 1588 391 
Q 1994 391 2212 530 
Q 2431 669 2431 922 
Q 2431 1156 2273 1281 
Q 2116 1406 1581 1522 
L 1381 1569 
Q 847 1681 609 1914 
Q 372 2147 372 2553 
Q 372 3047 722 3315 
Q 1072 3584 1716 3584 
Q 2034 3584 2315 3537 
Q 2597 3491 2834 3397 
z
" id="DejaVuSans-73" transform="scale(0.015625)"/>
       </defs>
       <use xlink:href="#DejaVuSans-52"/>
       <use x="64.982422" xlink:href="#DejaVuSans-65"/>
       <use x="126.505859" xlink:href="#DejaVuSans-66"/>
       <use x="161.710938" xlink:href="#DejaVuSans-75"/>
       <use x="225.089844" xlink:href="#DejaVuSans-67"/>
       <use x="288.566406" xlink:href="#DejaVuSans-65"/>
       <use x="350.089844" xlink:href="#DejaVuSans-65"/>
       <use x="411.613281" xlink:href="#DejaVuSans-73"/>
      </g>
     </g>
    </g>
    <g id="xtick_2">
     <g id="line2d_2">
      <g>
       <use style="stroke:#000000;stroke-width:0.8;" x="205.553125" xlink:href="#mabebb246c3" y="1109.518125"/>
      </g>
     </g>
     <g id="text_2">
      <!-- Asylees -->
      <g transform="translate(208.3125 1154.780625)rotate(-90)scale(0.1 -0.1)">
       <defs>
        <path d="M 2188 4044 
L 1331 1722 
L 3047 1722 
L 2188 4044 
z
M 1831 4666 
L 2547 4666 
L 4325 0 
L 3669 0 
L 3244 1197 
L 1141 1197 
L 716 0 
L 50 0 
L 1831 4666 
z
" id="DejaVuSans-41" transform="scale(0.015625)"/>
        <path d="M 2059 -325 
Q 1816 -950 1584 -1140 
Q 1353 -1331 966 -1331 
L 506 -1331 
L 506 -850 
L 844 -850 
Q 1081 -850 1212 -737 
Q 1344 -625 1503 -206 
L 1606 56 
L 191 3500 
L 800 3500 
L 1894 763 
L 2988 3500 
L 3597 3500 
L 2059 -325 
z
" id="DejaVuSans-79" transform="scale(0.015625)"/>
        <path d="M 603 4863 
L 1178 4863 
L 1178 0 
L 603 0 
L 603 4863 
z
" id="DejaVuSans-6c" transform="scale(0.015625)"/>
       </defs>
       <use xlink:href="#DejaVuSans-41"/>
       <use x="68.408203" xlink:href="#DejaVuSans-73"/>
       <use x="120.507812" xlink:href="#DejaVuSans-79"/>
       <use x="179.6875" xlink:href="#DejaVuSans-6c"/>
       <use x="207.470703" xlink:href="#DejaVuSans-65"/>
       <use x="268.994141" xlink:href="#DejaVuSans-65"/>
       <use x="330.517578" xlink:href="#DejaVuSans-73"/>
      </g>
     </g>
    </g>
    <g id="xtick_3">
     <g id="line2d_3">
      <g>
       <use style="stroke:#000000;stroke-width:0.8;" x="298.553125" xlink:href="#mabebb246c3" y="1109.518125"/>
      </g>
     </g>
     <g id="text_3">
      <!-- Parolees -->
      <g transform="translate(301.3125 1158.524375)rotate(-90)scale(0.1 -0.1)">
       <defs>
        <path d="M 1259 4147 
L 1259 2394 
L 2053 2394 
Q 2494 2394 2734 2622 
Q 2975 2850 2975 3272 
Q 2975 3691 2734 3919 
Q 2494 4147 2053 4147 
L 1259 4147 
z
M 628 4666 
L 2053 4666 
Q 2838 4666 3239 4311 
Q 3641 3956 3641 3272 
Q 3641 2581 3239 2228 
Q 2838 1875 2053 1875 
L 1259 1875 
L 1259 0 
L 628 0 
L 628 4666 
z
" id="DejaVuSans-50" transform="scale(0.015625)"/>
        <path d="M 2194 1759 
Q 1497 1759 1228 1600 
Q 959 1441 959 1056 
Q 959 750 1161 570 
Q 1363 391 1709 391 
Q 2188 391 2477 730 
Q 2766 1069 2766 1631 
L 2766 1759 
L 2194 1759 
z
M 3341 1997 
L 3341 0 
L 2766 0 
L 2766 531 
Q 2569 213 2275 61 
Q 1981 -91 1556 -91 
Q 1019 -91 701 211 
Q 384 513 384 1019 
Q 384 1609 779 1909 
Q 1175 2209 1959 2209 
L 2766 2209 
L 2766 2266 
Q 2766 2663 2505 2880 
Q 2244 3097 1772 3097 
Q 1472 3097 1187 3025 
Q 903 2953 641 2809 
L 641 3341 
Q 956 3463 1253 3523 
Q 1550 3584 1831 3584 
Q 2591 3584 2966 3190 
Q 3341 2797 3341 1997 
z
" id="DejaVuSans-61" transform="scale(0.015625)"/>
        <path d="M 2631 2963 
Q 2534 3019 2420 3045 
Q 2306 3072 2169 3072 
Q 1681 3072 1420 2755 
Q 1159 2438 1159 1844 
L 1159 0 
L 581 0 
L 581 3500 
L 1159 3500 
L 1159 2956 
Q 1341 3275 1631 3429 
Q 1922 3584 2338 3584 
Q 2397 3584 2469 3576 
Q 2541 3569 2628 3553 
L 2631 2963 
z
" id="DejaVuSans-72" transform="scale(0.015625)"/>
        <path d="M 1959 3097 
Q 1497 3097 1228 2736 
Q 959 2375 959 1747 
Q 959 1119 1226 758 
Q 1494 397 1959 397 
Q 2419 397 2687 759 
Q 2956 1122 2956 1747 
Q 2956 2369 2687 2733 
Q 2419 3097 1959 3097 
z
M 1959 3584 
Q 2709 3584 3137 3096 
Q 3566 2609 3566 1747 
Q 3566 888 3137 398 
Q 2709 -91 1959 -91 
Q 1206 -91 779 398 
Q 353 888 353 1747 
Q 353 2609 779 3096 
Q 1206 3584 1959 3584 
z
" id="DejaVuSans-6f" transform="scale(0.015625)"/>
       </defs>
       <use xlink:href="#DejaVuSans-50"/>
       <use x="55.802734" xlink:href="#DejaVuSans-61"/>
       <use x="117.082031" xlink:href="#DejaVuSans-72"/>
       <use x="155.945312" xlink:href="#DejaVuSans-6f"/>
       <use x="217.126953" xlink:href="#DejaVuSans-6c"/>
       <use x="244.910156" xlink:href="#DejaVuSans-65"/>
       <use x="306.433594" xlink:href="#DejaVuSans-65"/>
       <use x="367.957031" xlink:href="#DejaVuSans-73"/>
      </g>
     </g>
    </g>
    <g id="xtick_4">
     <g id="line2d_4">
      <g>
       <use style="stroke:#000000;stroke-width:0.8;" x="391.553125" xlink:href="#mabebb246c3" y="1109.518125"/>
      </g>
     </g>
     <g id="text_4">
      <!-- Children born abroad to alien residents -->
      <g transform="translate(394.3125 1311.918125)rotate(-90)scale(0.1 -0.1)">
       <defs>
        <path d="M 4122 4306 
L 4122 3641 
Q 3803 3938 3442 4084 
Q 3081 4231 2675 4231 
Q 1875 4231 1450 3742 
Q 1025 3253 1025 2328 
Q 1025 1406 1450 917 
Q 1875 428 2675 428 
Q 3081 428 3442 575 
Q 3803 722 4122 1019 
L 4122 359 
Q 3791 134 3420 21 
Q 3050 -91 2638 -91 
Q 1578 -91 968 557 
Q 359 1206 359 2328 
Q 359 3453 968 4101 
Q 1578 4750 2638 4750 
Q 3056 4750 3426 4639 
Q 3797 4528 4122 4306 
z
" id="DejaVuSans-43" transform="scale(0.015625)"/>
        <path d="M 3513 2113 
L 3513 0 
L 2938 0 
L 2938 2094 
Q 2938 2591 2744 2837 
Q 2550 3084 2163 3084 
Q 1697 3084 1428 2787 
Q 1159 2491 1159 1978 
L 1159 0 
L 581 0 
L 581 4863 
L 1159 4863 
L 1159 2956 
Q 1366 3272 1645 3428 
Q 1925 3584 2291 3584 
Q 2894 3584 3203 3211 
Q 3513 2838 3513 2113 
z
" id="DejaVuSans-68" transform="scale(0.015625)"/>
        <path d="M 603 3500 
L 1178 3500 
L 1178 0 
L 603 0 
L 603 3500 
z
M 603 4863 
L 1178 4863 
L 1178 4134 
L 603 4134 
L 603 4863 
z
" id="DejaVuSans-69" transform="scale(0.015625)"/>
        <path d="M 2906 2969 
L 2906 4863 
L 3481 4863 
L 3481 0 
L 2906 0 
L 2906 525 
Q 2725 213 2448 61 
Q 2172 -91 1784 -91 
Q 1150 -91 751 415 
Q 353 922 353 1747 
Q 353 2572 751 3078 
Q 1150 3584 1784 3584 
Q 2172 3584 2448 3432 
Q 2725 3281 2906 2969 
z
M 947 1747 
Q 947 1113 1208 752 
Q 1469 391 1925 391 
Q 2381 391 2643 752 
Q 2906 1113 2906 1747 
Q 2906 2381 2643 2742 
Q 2381 3103 1925 3103 
Q 1469 3103 1208 2742 
Q 947 2381 947 1747 
z
" id="DejaVuSans-64" transform="scale(0.015625)"/>
        <path d="M 3513 2113 
L 3513 0 
L 2938 0 
L 2938 2094 
Q 2938 2591 2744 2837 
Q 2550 3084 2163 3084 
Q 1697 3084 1428 2787 
Q 1159 2491 1159 1978 
L 1159 0 
L 581 0 
L 581 3500 
L 1159 3500 
L 1159 2956 
Q 1366 3272 1645 3428 
Q 1925 3584 2291 3584 
Q 2894 3584 3203 3211 
Q 3513 2838 3513 2113 
z
" id="DejaVuSans-6e" transform="scale(0.015625)"/>
        <path id="DejaVuSans-20" transform="scale(0.015625)"/>
        <path d="M 3116 1747 
Q 3116 2381 2855 2742 
Q 2594 3103 2138 3103 
Q 1681 3103 1420 2742 
Q 1159 2381 1159 1747 
Q 1159 1113 1420 752 
Q 1681 391 2138 391 
Q 2594 391 2855 752 
Q 3116 1113 3116 1747 
z
M 1159 2969 
Q 1341 3281 1617 3432 
Q 1894 3584 2278 3584 
Q 2916 3584 3314 3078 
Q 3713 2572 3713 1747 
Q 3713 922 3314 415 
Q 2916 -91 2278 -91 
Q 1894 -91 1617 61 
Q 1341 213 1159 525 
L 1159 0 
L 581 0 
L 581 4863 
L 1159 4863 
L 1159 2969 
z
" id="DejaVuSans-62" transform="scale(0.015625)"/>
        <path d="M 1172 4494 
L 1172 3500 
L 2356 3500 
L 2356 3053 
L 1172 3053 
L 1172 1153 
Q 1172 725 1289 603 
Q 1406 481 1766 481 
L 2356 481 
L 2356 0 
L 1766 0 
Q 1100 0 847 248 
Q 594 497 594 1153 
L 594 3053 
L 172 3053 
L 172 3500 
L 594 3500 
L 594 4494 
L 1172 4494 
z
" id="DejaVuSans-74" transform="scale(0.015625)"/>
       </defs>
       <use xlink:href="#DejaVuSans-43"/>
       <use x="69.824219" xlink:href="#DejaVuSans-68"/>
       <use x="133.203125" xlink:href="#DejaVuSans-69"/>
       <use x="160.986328" xlink:href="#DejaVuSans-6c"/>
       <use x="188.769531" xlink:href="#DejaVuSans-64"/>
       <use x="252.246094" xlink:href="#DejaVuSans-72"/>
       <use x="291.109375" xlink:href="#DejaVuSans-65"/>
       <use x="352.632812" xlink:href="#DejaVuSans-6e"/>
       <use x="416.011719" xlink:href="#DejaVuSans-20"/>
       <use x="447.798828" xlink:href="#DejaVuSans-62"/>
       <use x="511.275391" xlink:href="#DejaVuSans-6f"/>
       <use x="572.457031" xlink:href="#DejaVuSans-72"/>
       <use x="611.820312" xlink:href="#DejaVuSans-6e"/>
       <use x="675.199219" xlink:href="#DejaVuSans-20"/>
       <use x="706.986328" xlink:href="#DejaVuSans-61"/>
       <use x="768.265625" xlink:href="#DejaVuSans-62"/>
       <use x="831.742188" xlink:href="#DejaVuSans-72"/>
       <use x="870.605469" xlink:href="#DejaVuSans-6f"/>
       <use x="931.787109" xlink:href="#DejaVuSans-61"/>
       <use x="993.066406" xlink:href="#DejaVuSans-64"/>
       <use x="1056.542969" xlink:href="#DejaVuSans-20"/>
       <use x="1088.330078" xlink:href="#DejaVuSans-74"/>
       <use x="1127.539062" xlink:href="#DejaVuSans-6f"/>
       <use x="1188.720703" xlink:href="#DejaVuSans-20"/>
       <use x="1220.507812" xlink:href="#DejaVuSans-61"/>
       <use x="1281.787109" xlink:href="#DejaVuSans-6c"/>
       <use x="1309.570312" xlink:href="#DejaVuSans-69"/>
       <use x="1337.353516" xlink:href="#DejaVuSans-65"/>
       <use x="1398.876953" xlink:href="#DejaVuSans-6e"/>
       <use x="1462.255859" xlink:href="#DejaVuSans-20"/>
       <use x="1494.042969" xlink:href="#DejaVuSans-72"/>
       <use x="1532.90625" xlink:href="#DejaVuSans-65"/>
       <use x="1594.429688" xlink:href="#DejaVuSans-73"/>
       <use x="1646.529297" xlink:href="#DejaVuSans-69"/>
       <use x="1674.3125" xlink:href="#DejaVuSans-64"/>
       <use x="1737.789062" xlink:href="#DejaVuSans-65"/>
       <use x="1799.3125" xlink:href="#DejaVuSans-6e"/>
       <use x="1862.691406" xlink:href="#DejaVuSans-74"/>
       <use x="1901.900391" xlink:href="#DejaVuSans-73"/>
      </g>
     </g>
    </g>
    <g id="xtick_5">
     <g id="line2d_5">
      <g>
       <use style="stroke:#000000;stroke-width:0.8;" x="484.553125" xlink:href="#mabebb246c3" y="1109.518125"/>
      </g>
     </g>
     <g id="text_5">
      <!-- Certain Iraqis and Afghans employed by U.S. Government and their spouses and children -->
      <g transform="translate(487.3125 1563.610313)rotate(-90)scale(0.1 -0.1)">
       <defs>
        <path d="M 628 4666 
L 1259 4666 
L 1259 0 
L 628 0 
L 628 4666 
z
" id="DejaVuSans-49" transform="scale(0.015625)"/>
        <path d="M 947 1747 
Q 947 1113 1208 752 
Q 1469 391 1925 391 
Q 2381 391 2643 752 
Q 2906 1113 2906 1747 
Q 2906 2381 2643 2742 
Q 2381 3103 1925 3103 
Q 1469 3103 1208 2742 
Q 947 2381 947 1747 
z
M 2906 525 
Q 2725 213 2448 61 
Q 2172 -91 1784 -91 
Q 1150 -91 751 415 
Q 353 922 353 1747 
Q 353 2572 751 3078 
Q 1150 3584 1784 3584 
Q 2172 3584 2448 3432 
Q 2725 3281 2906 2969 
L 2906 3500 
L 3481 3500 
L 3481 -1331 
L 2906 -1331 
L 2906 525 
z
" id="DejaVuSans-71" transform="scale(0.015625)"/>
        <path d="M 3328 2828 
Q 3544 3216 3844 3400 
Q 4144 3584 4550 3584 
Q 5097 3584 5394 3201 
Q 5691 2819 5691 2113 
L 5691 0 
L 5113 0 
L 5113 2094 
Q 5113 2597 4934 2840 
Q 4756 3084 4391 3084 
Q 3944 3084 3684 2787 
Q 3425 2491 3425 1978 
L 3425 0 
L 2847 0 
L 2847 2094 
Q 2847 2600 2669 2842 
Q 2491 3084 2119 3084 
Q 1678 3084 1418 2786 
Q 1159 2488 1159 1978 
L 1159 0 
L 581 0 
L 581 3500 
L 1159 3500 
L 1159 2956 
Q 1356 3278 1631 3431 
Q 1906 3584 2284 3584 
Q 2666 3584 2933 3390 
Q 3200 3197 3328 2828 
z
" id="DejaVuSans-6d" transform="scale(0.015625)"/>
        <path d="M 1159 525 
L 1159 -1331 
L 581 -1331 
L 581 3500 
L 1159 3500 
L 1159 2969 
Q 1341 3281 1617 3432 
Q 1894 3584 2278 3584 
Q 2916 3584 3314 3078 
Q 3713 2572 3713 1747 
Q 3713 922 3314 415 
Q 2916 -91 2278 -91 
Q 1894 -91 1617 61 
Q 1341 213 1159 525 
z
M 3116 1747 
Q 3116 2381 2855 2742 
Q 2594 3103 2138 3103 
Q 1681 3103 1420 2742 
Q 1159 2381 1159 1747 
Q 1159 1113 1420 752 
Q 1681 391 2138 391 
Q 2594 391 2855 752 
Q 3116 1113 3116 1747 
z
" id="DejaVuSans-70" transform="scale(0.015625)"/>
        <path d="M 556 4666 
L 1191 4666 
L 1191 1831 
Q 1191 1081 1462 751 
Q 1734 422 2344 422 
Q 2950 422 3222 751 
Q 3494 1081 3494 1831 
L 3494 4666 
L 4128 4666 
L 4128 1753 
Q 4128 841 3676 375 
Q 3225 -91 2344 -91 
Q 1459 -91 1007 375 
Q 556 841 556 1753 
L 556 4666 
z
" id="DejaVuSans-55" transform="scale(0.015625)"/>
        <path d="M 684 794 
L 1344 794 
L 1344 0 
L 684 0 
L 684 794 
z
" id="DejaVuSans-2e" transform="scale(0.015625)"/>
        <path d="M 3425 4513 
L 3425 3897 
Q 3066 4069 2747 4153 
Q 2428 4238 2131 4238 
Q 1616 4238 1336 4038 
Q 1056 3838 1056 3469 
Q 1056 3159 1242 3001 
Q 1428 2844 1947 2747 
L 2328 2669 
Q 3034 2534 3370 2195 
Q 3706 1856 3706 1288 
Q 3706 609 3251 259 
Q 2797 -91 1919 -91 
Q 1588 -91 1214 -16 
Q 841 59 441 206 
L 441 856 
Q 825 641 1194 531 
Q 1563 422 1919 422 
Q 2459 422 2753 634 
Q 3047 847 3047 1241 
Q 3047 1584 2836 1778 
Q 2625 1972 2144 2069 
L 1759 2144 
Q 1053 2284 737 2584 
Q 422 2884 422 3419 
Q 422 4038 858 4394 
Q 1294 4750 2059 4750 
Q 2388 4750 2728 4690 
Q 3069 4631 3425 4513 
z
" id="DejaVuSans-53" transform="scale(0.015625)"/>
        <path d="M 3809 666 
L 3809 1919 
L 2778 1919 
L 2778 2438 
L 4434 2438 
L 4434 434 
Q 4069 175 3628 42 
Q 3188 -91 2688 -91 
Q 1594 -91 976 548 
Q 359 1188 359 2328 
Q 359 3472 976 4111 
Q 1594 4750 2688 4750 
Q 3144 4750 3555 4637 
Q 3966 4525 4313 4306 
L 4313 3634 
Q 3963 3931 3569 4081 
Q 3175 4231 2741 4231 
Q 1884 4231 1454 3753 
Q 1025 3275 1025 2328 
Q 1025 1384 1454 906 
Q 1884 428 2741 428 
Q 3075 428 3337 486 
Q 3600 544 3809 666 
z
" id="DejaVuSans-47" transform="scale(0.015625)"/>
        <path d="M 191 3500 
L 800 3500 
L 1894 563 
L 2988 3500 
L 3597 3500 
L 2284 0 
L 1503 0 
L 191 3500 
z
" id="DejaVuSans-76" transform="scale(0.015625)"/>
        <path d="M 3122 3366 
L 3122 2828 
Q 2878 2963 2633 3030 
Q 2388 3097 2138 3097 
Q 1578 3097 1268 2742 
Q 959 2388 959 1747 
Q 959 1106 1268 751 
Q 1578 397 2138 397 
Q 2388 397 2633 464 
Q 2878 531 3122 666 
L 3122 134 
Q 2881 22 2623 -34 
Q 2366 -91 2075 -91 
Q 1284 -91 818 406 
Q 353 903 353 1747 
Q 353 2603 823 3093 
Q 1294 3584 2113 3584 
Q 2378 3584 2631 3529 
Q 2884 3475 3122 3366 
z
" id="DejaVuSans-63" transform="scale(0.015625)"/>
       </defs>
       <use xlink:href="#DejaVuSans-43"/>
       <use x="69.824219" xlink:href="#DejaVuSans-65"/>
       <use x="131.347656" xlink:href="#DejaVuSans-72"/>
       <use x="172.460938" xlink:href="#DejaVuSans-74"/>
       <use x="211.669922" xlink:href="#DejaVuSans-61"/>
       <use x="272.949219" xlink:href="#DejaVuSans-69"/>
       <use x="300.732422" xlink:href="#DejaVuSans-6e"/>
       <use x="364.111328" xlink:href="#DejaVuSans-20"/>
       <use x="395.898438" xlink:href="#DejaVuSans-49"/>
       <use x="425.390625" xlink:href="#DejaVuSans-72"/>
       <use x="466.503906" xlink:href="#DejaVuSans-61"/>
       <use x="527.783203" xlink:href="#DejaVuSans-71"/>
       <use x="591.259766" xlink:href="#DejaVuSans-69"/>
       <use x="619.042969" xlink:href="#DejaVuSans-73"/>
       <use x="671.142578" xlink:href="#DejaVuSans-20"/>
       <use x="702.929688" xlink:href="#DejaVuSans-61"/>
       <use x="764.208984" xlink:href="#DejaVuSans-6e"/>
       <use x="827.587891" xlink:href="#DejaVuSans-64"/>
       <use x="891.064453" xlink:href="#DejaVuSans-20"/>
       <use x="922.851562" xlink:href="#DejaVuSans-41"/>
       <use x="987.634766" xlink:href="#DejaVuSans-66"/>
       <use x="1022.839844" xlink:href="#DejaVuSans-67"/>
       <use x="1086.316406" xlink:href="#DejaVuSans-68"/>
       <use x="1149.695312" xlink:href="#DejaVuSans-61"/>
       <use x="1210.974609" xlink:href="#DejaVuSans-6e"/>
       <use x="1274.353516" xlink:href="#DejaVuSans-73"/>
       <use x="1326.453125" xlink:href="#DejaVuSans-20"/>
       <use x="1358.240234" xlink:href="#DejaVuSans-65"/>
       <use x="1419.763672" xlink:href="#DejaVuSans-6d"/>
       <use x="1517.175781" xlink:href="#DejaVuSans-70"/>
       <use x="1580.652344" xlink:href="#DejaVuSans-6c"/>
       <use x="1608.435547" xlink:href="#DejaVuSans-6f"/>
       <use x="1669.617188" xlink:href="#DejaVuSans-79"/>
       <use x="1728.796875" xlink:href="#DejaVuSans-65"/>
       <use x="1790.320312" xlink:href="#DejaVuSans-64"/>
       <use x="1853.796875" xlink:href="#DejaVuSans-20"/>
       <use x="1885.583984" xlink:href="#DejaVuSans-62"/>
       <use x="1949.060547" xlink:href="#DejaVuSans-79"/>
       <use x="2008.240234" xlink:href="#DejaVuSans-20"/>
       <use x="2040.027344" xlink:href="#DejaVuSans-55"/>
       <use x="2113.220703" xlink:href="#DejaVuSans-2e"/>
       <use x="2145.007812" xlink:href="#DejaVuSans-53"/>
       <use x="2208.484375" xlink:href="#DejaVuSans-2e"/>
       <use x="2240.271484" xlink:href="#DejaVuSans-20"/>
       <use x="2272.058594" xlink:href="#DejaVuSans-47"/>
       <use x="2349.548828" xlink:href="#DejaVuSans-6f"/>
       <use x="2410.730469" xlink:href="#DejaVuSans-76"/>
       <use x="2469.910156" xlink:href="#DejaVuSans-65"/>
       <use x="2531.433594" xlink:href="#DejaVuSans-72"/>
       <use x="2570.796875" xlink:href="#DejaVuSans-6e"/>
       <use x="2634.175781" xlink:href="#DejaVuSans-6d"/>
       <use x="2731.587891" xlink:href="#DejaVuSans-65"/>
       <use x="2793.111328" xlink:href="#DejaVuSans-6e"/>
       <use x="2856.490234" xlink:href="#DejaVuSans-74"/>
       <use x="2895.699219" xlink:href="#DejaVuSans-20"/>
       <use x="2927.486328" xlink:href="#DejaVuSans-61"/>
       <use x="2988.765625" xlink:href="#DejaVuSans-6e"/>
       <use x="3052.144531" xlink:href="#DejaVuSans-64"/>
       <use x="3115.621094" xlink:href="#DejaVuSans-20"/>
       <use x="3147.408203" xlink:href="#DejaVuSans-74"/>
       <use x="3186.617188" xlink:href="#DejaVuSans-68"/>
       <use x="3249.996094" xlink:href="#DejaVuSans-65"/>
       <use x="3311.519531" xlink:href="#DejaVuSans-69"/>
       <use x="3339.302734" xlink:href="#DejaVuSans-72"/>
       <use x="3380.416016" xlink:href="#DejaVuSans-20"/>
       <use x="3412.203125" xlink:href="#DejaVuSans-73"/>
       <use x="3464.302734" xlink:href="#DejaVuSans-70"/>
       <use x="3527.779297" xlink:href="#DejaVuSans-6f"/>
       <use x="3588.960938" xlink:href="#DejaVuSans-75"/>
       <use x="3652.339844" xlink:href="#DejaVuSans-73"/>
       <use x="3704.439453" xlink:href="#DejaVuSans-65"/>
       <use x="3765.962891" xlink:href="#DejaVuSans-73"/>
       <use x="3818.0625" xlink:href="#DejaVuSans-20"/>
       <use x="3849.849609" xlink:href="#DejaVuSans-61"/>
       <use x="3911.128906" xlink:href="#DejaVuSans-6e"/>
       <use x="3974.507812" xlink:href="#DejaVuSans-64"/>
       <use x="4037.984375" xlink:href="#DejaVuSans-20"/>
       <use x="4069.771484" xlink:href="#DejaVuSans-63"/>
       <use x="4124.751953" xlink:href="#DejaVuSans-68"/>
       <use x="4188.130859" xlink:href="#DejaVuSans-69"/>
       <use x="4215.914062" xlink:href="#DejaVuSans-6c"/>
       <use x="4243.697266" xlink:href="#DejaVuSans-64"/>
       <use x="4307.173828" xlink:href="#DejaVuSans-72"/>
       <use x="4346.037109" xlink:href="#DejaVuSans-65"/>
       <use x="4407.560547" xlink:href="#DejaVuSans-6e"/>
      </g>
     </g>
    </g>
    <g id="xtick_6">
     <g id="line2d_6">
      <g>
       <use style="stroke:#000000;stroke-width:0.8;" x="577.553125" xlink:href="#mabebb246c3" y="1109.518125"/>
      </g>
     </g>
     <g id="text_6">
      <!-- Cancellation of removal -->
      <g transform="translate(580.3125 1235.175938)rotate(-90)scale(0.1 -0.1)">
       <use xlink:href="#DejaVuSans-43"/>
       <use x="69.824219" xlink:href="#DejaVuSans-61"/>
       <use x="131.103516" xlink:href="#DejaVuSans-6e"/>
       <use x="194.482422" xlink:href="#DejaVuSans-63"/>
       <use x="249.462891" xlink:href="#DejaVuSans-65"/>
       <use x="310.986328" xlink:href="#DejaVuSans-6c"/>
       <use x="338.769531" xlink:href="#DejaVuSans-6c"/>
       <use x="366.552734" xlink:href="#DejaVuSans-61"/>
       <use x="427.832031" xlink:href="#DejaVuSans-74"/>
       <use x="467.041016" xlink:href="#DejaVuSans-69"/>
       <use x="494.824219" xlink:href="#DejaVuSans-6f"/>
       <use x="556.005859" xlink:href="#DejaVuSans-6e"/>
       <use x="619.384766" xlink:href="#DejaVuSans-20"/>
       <use x="651.171875" xlink:href="#DejaVuSans-6f"/>
       <use x="712.353516" xlink:href="#DejaVuSans-66"/>
       <use x="747.558594" xlink:href="#DejaVuSans-20"/>
       <use x="779.345703" xlink:href="#DejaVuSans-72"/>
       <use x="818.208984" xlink:href="#DejaVuSans-65"/>
       <use x="879.732422" xlink:href="#DejaVuSans-6d"/>
       <use x="977.144531" xlink:href="#DejaVuSans-6f"/>
       <use x="1038.326172" xlink:href="#DejaVuSans-76"/>
       <use x="1097.505859" xlink:href="#DejaVuSans-61"/>
       <use x="1158.785156" xlink:href="#DejaVuSans-6c"/>
      </g>
     </g>
    </g>
    <g id="xtick_7">
     <g id="line2d_7">
      <g>
       <use style="stroke:#000000;stroke-width:0.8;" x="670.553125" xlink:href="#mabebb246c3" y="1109.518125"/>
      </g>
     </g>
     <g id="text_7">
      <!-- Victims of human trafficking -->
      <g transform="translate(673.3125 1257.844688)rotate(-90)scale(0.1 -0.1)">
       <defs>
        <path d="M 1831 0 
L 50 4666 
L 709 4666 
L 2188 738 
L 3669 4666 
L 4325 4666 
L 2547 0 
L 1831 0 
z
" id="DejaVuSans-56" transform="scale(0.015625)"/>
        <path d="M 581 4863 
L 1159 4863 
L 1159 1991 
L 2875 3500 
L 3609 3500 
L 1753 1863 
L 3688 0 
L 2938 0 
L 1159 1709 
L 1159 0 
L 581 0 
L 581 4863 
z
" id="DejaVuSans-6b" transform="scale(0.015625)"/>
       </defs>
       <use xlink:href="#DejaVuSans-56"/>
       <use x="66.158203" xlink:href="#DejaVuSans-69"/>
       <use x="93.941406" xlink:href="#DejaVuSans-63"/>
       <use x="148.921875" xlink:href="#DejaVuSans-74"/>
       <use x="188.130859" xlink:href="#DejaVuSans-69"/>
       <use x="215.914062" xlink:href="#DejaVuSans-6d"/>
       <use x="313.326172" xlink:href="#DejaVuSans-73"/>
       <use x="365.425781" xlink:href="#DejaVuSans-20"/>
       <use x="397.212891" xlink:href="#DejaVuSans-6f"/>
       <use x="458.394531" xlink:href="#DejaVuSans-66"/>
       <use x="493.599609" xlink:href="#DejaVuSans-20"/>
       <use x="525.386719" xlink:href="#DejaVuSans-68"/>
       <use x="588.765625" xlink:href="#DejaVuSans-75"/>
       <use x="652.144531" xlink:href="#DejaVuSans-6d"/>
       <use x="749.556641" xlink:href="#DejaVuSans-61"/>
       <use x="810.835938" xlink:href="#DejaVuSans-6e"/>
       <use x="874.214844" xlink:href="#DejaVuSans-20"/>
       <use x="906.001953" xlink:href="#DejaVuSans-74"/>
       <use x="945.210938" xlink:href="#DejaVuSans-72"/>
       <use x="986.324219" xlink:href="#DejaVuSans-61"/>
       <use x="1047.603516" xlink:href="#DejaVuSans-66"/>
       <use x="1082.808594" xlink:href="#DejaVuSans-66"/>
       <use x="1118.013672" xlink:href="#DejaVuSans-69"/>
       <use x="1145.796875" xlink:href="#DejaVuSans-63"/>
       <use x="1200.777344" xlink:href="#DejaVuSans-6b"/>
       <use x="1258.6875" xlink:href="#DejaVuSans-69"/>
       <use x="1286.470703" xlink:href="#DejaVuSans-6e"/>
       <use x="1349.849609" xlink:href="#DejaVuSans-67"/>
      </g>
     </g>
    </g>
    <g id="xtick_8">
     <g id="line2d_8">
      <g>
       <use style="stroke:#000000;stroke-width:0.8;" x="763.553125" xlink:href="#mabebb246c3" y="1109.518125"/>
      </g>
     </g>
     <g id="text_8">
      <!-- Victims of crimes and their spouses and children -->
      <g transform="translate(766.3125 1360.066563)rotate(-90)scale(0.1 -0.1)">
       <use xlink:href="#DejaVuSans-56"/>
       <use x="66.158203" xlink:href="#DejaVuSans-69"/>
       <use x="93.941406" xlink:href="#DejaVuSans-63"/>
       <use x="148.921875" xlink:href="#DejaVuSans-74"/>
       <use x="188.130859" xlink:href="#DejaVuSans-69"/>
       <use x="215.914062" xlink:href="#DejaVuSans-6d"/>
       <use x="313.326172" xlink:href="#DejaVuSans-73"/>
       <use x="365.425781" xlink:href="#DejaVuSans-20"/>
       <use x="397.212891" xlink:href="#DejaVuSans-6f"/>
       <use x="458.394531" xlink:href="#DejaVuSans-66"/>
       <use x="493.599609" xlink:href="#DejaVuSans-20"/>
       <use x="525.386719" xlink:href="#DejaVuSans-63"/>
       <use x="580.367188" xlink:href="#DejaVuSans-72"/>
       <use x="621.480469" xlink:href="#DejaVuSans-69"/>
       <use x="649.263672" xlink:href="#DejaVuSans-6d"/>
       <use x="746.675781" xlink:href="#DejaVuSans-65"/>
       <use x="808.199219" xlink:href="#DejaVuSans-73"/>
       <use x="860.298828" xlink:href="#DejaVuSans-20"/>
       <use x="892.085938" xlink:href="#DejaVuSans-61"/>
       <use x="953.365234" xlink:href="#DejaVuSans-6e"/>
       <use x="1016.744141" xlink:href="#DejaVuSans-64"/>
       <use x="1080.220703" xlink:href="#DejaVuSans-20"/>
       <use x="1112.007812" xlink:href="#DejaVuSans-74"/>
       <use x="1151.216797" xlink:href="#DejaVuSans-68"/>
       <use x="1214.595703" xlink:href="#DejaVuSans-65"/>
       <use x="1276.119141" xlink:href="#DejaVuSans-69"/>
       <use x="1303.902344" xlink:href="#DejaVuSans-72"/>
       <use x="1345.015625" xlink:href="#DejaVuSans-20"/>
       <use x="1376.802734" xlink:href="#DejaVuSans-73"/>
       <use x="1428.902344" xlink:href="#DejaVuSans-70"/>
       <use x="1492.378906" xlink:href="#DejaVuSans-6f"/>
       <use x="1553.560547" xlink:href="#DejaVuSans-75"/>
       <use x="1616.939453" xlink:href="#DejaVuSans-73"/>
       <use x="1669.039062" xlink:href="#DejaVuSans-65"/>
       <use x="1730.5625" xlink:href="#DejaVuSans-73"/>
       <use x="1782.662109" xlink:href="#DejaVuSans-20"/>
       <use x="1814.449219" xlink:href="#DejaVuSans-61"/>
       <use x="1875.728516" xlink:href="#DejaVuSans-6e"/>
       <use x="1939.107422" xlink:href="#DejaVuSans-64"/>
       <use x="2002.583984" xlink:href="#DejaVuSans-20"/>
       <use x="2034.371094" xlink:href="#DejaVuSans-63"/>
       <use x="2089.351562" xlink:href="#DejaVuSans-68"/>
       <use x="2152.730469" xlink:href="#DejaVuSans-69"/>
       <use x="2180.513672" xlink:href="#DejaVuSans-6c"/>
       <use x="2208.296875" xlink:href="#DejaVuSans-64"/>
       <use x="2271.773438" xlink:href="#DejaVuSans-72"/>
       <use x="2310.636719" xlink:href="#DejaVuSans-65"/>
       <use x="2372.160156" xlink:href="#DejaVuSans-6e"/>
      </g>
     </g>
    </g>
    <g id="xtick_9">
     <g id="line2d_9">
      <g>
       <use style="stroke:#000000;stroke-width:0.8;" x="856.553125" xlink:href="#mabebb246c3" y="1109.518125"/>
      </g>
     </g>
     <g id="text_9">
      <!-- Other -->
      <g transform="translate(859.3125 1144.911875)rotate(-90)scale(0.1 -0.1)">
       <defs>
        <path d="M 2522 4238 
Q 1834 4238 1429 3725 
Q 1025 3213 1025 2328 
Q 1025 1447 1429 934 
Q 1834 422 2522 422 
Q 3209 422 3611 934 
Q 4013 1447 4013 2328 
Q 4013 3213 3611 3725 
Q 3209 4238 2522 4238 
z
M 2522 4750 
Q 3503 4750 4090 4092 
Q 4678 3434 4678 2328 
Q 4678 1225 4090 567 
Q 3503 -91 2522 -91 
Q 1538 -91 948 565 
Q 359 1222 359 2328 
Q 359 3434 948 4092 
Q 1538 4750 2522 4750 
z
" id="DejaVuSans-4f" transform="scale(0.015625)"/>
       </defs>
       <use xlink:href="#DejaVuSans-4f"/>
       <use x="78.710938" xlink:href="#DejaVuSans-74"/>
       <use x="117.919922" xlink:href="#DejaVuSans-68"/>
       <use x="181.298828" xlink:href="#DejaVuSans-65"/>
       <use x="242.822266" xlink:href="#DejaVuSans-72"/>
      </g>
     </g>
    </g>
    <g id="text_10">
     <!-- Type and class of admission -->
     <g transform="translate(414.751563 1575.20875)scale(0.1 -0.1)">
      <defs>
       <path d="M -19 4666 
L 3928 4666 
L 3928 4134 
L 2272 4134 
L 2272 0 
L 1638 0 
L 1638 4134 
L -19 4134 
L -19 4666 
z
" id="DejaVuSans-54" transform="scale(0.015625)"/>
      </defs>
      <use xlink:href="#DejaVuSans-54"/>
      <use x="45.458984" xlink:href="#DejaVuSans-79"/>
      <use x="104.638672" xlink:href="#DejaVuSans-70"/>
      <use x="168.115234" xlink:href="#DejaVuSans-65"/>
      <use x="229.638672" xlink:href="#DejaVuSans-20"/>
      <use x="261.425781" xlink:href="#DejaVuSans-61"/>
      <use x="322.705078" xlink:href="#DejaVuSans-6e"/>
      <use x="386.083984" xlink:href="#DejaVuSans-64"/>
      <use x="449.560547" xlink:href="#DejaVuSans-20"/>
      <use x="481.347656" xlink:href="#DejaVuSans-63"/>
      <use x="536.328125" xlink:href="#DejaVuSans-6c"/>
      <use x="564.111328" xlink:href="#DejaVuSans-61"/>
      <use x="625.390625" xlink:href="#DejaVuSans-73"/>
      <use x="677.490234" xlink:href="#DejaVuSans-73"/>
      <use x="729.589844" xlink:href="#DejaVuSans-20"/>
      <use x="761.376953" xlink:href="#DejaVuSans-6f"/>
      <use x="822.558594" xlink:href="#DejaVuSans-66"/>
      <use x="857.763672" xlink:href="#DejaVuSans-20"/>
      <use x="889.550781" xlink:href="#DejaVuSans-61"/>
      <use x="950.830078" xlink:href="#DejaVuSans-64"/>
      <use x="1014.306641" xlink:href="#DejaVuSans-6d"/>
      <use x="1111.71875" xlink:href="#DejaVuSans-69"/>
      <use x="1139.501953" xlink:href="#DejaVuSans-73"/>
      <use x="1191.601562" xlink:href="#DejaVuSans-73"/>
      <use x="1243.701172" xlink:href="#DejaVuSans-69"/>
      <use x="1271.484375" xlink:href="#DejaVuSans-6f"/>
      <use x="1332.666016" xlink:href="#DejaVuSans-6e"/>
     </g>
    </g>
   </g>
   <g id="matplotlib.axis_2">
    <g id="ytick_1">
     <g id="line2d_10">
      <defs>
       <path d="M 0 0 
L -3.5 0 
" id="mb54a0e9863" style="stroke:#000000;stroke-width:0.8;"/>
      </defs>
      <g>
       <use style="stroke:#000000;stroke-width:0.8;" x="66.053125" xlink:href="#mb54a0e9863" y="1109.518125"/>
      </g>
     </g>
     <g id="text_11">
      <!-- 0 -->
      <g transform="translate(52.690625 1113.317344)scale(0.1 -0.1)">
       <defs>
        <path d="M 2034 4250 
Q 1547 4250 1301 3770 
Q 1056 3291 1056 2328 
Q 1056 1369 1301 889 
Q 1547 409 2034 409 
Q 2525 409 2770 889 
Q 3016 1369 3016 2328 
Q 3016 3291 2770 3770 
Q 2525 4250 2034 4250 
z
M 2034 4750 
Q 2819 4750 3233 4129 
Q 3647 3509 3647 2328 
Q 3647 1150 3233 529 
Q 2819 -91 2034 -91 
Q 1250 -91 836 529 
Q 422 1150 422 2328 
Q 422 3509 836 4129 
Q 1250 4750 2034 4750 
z
" id="DejaVuSans-30" transform="scale(0.015625)"/>
       </defs>
       <use xlink:href="#DejaVuSans-30"/>
      </g>
     </g>
    </g>
    <g id="ytick_2">
     <g id="line2d_11">
      <g>
       <use style="stroke:#000000;stroke-width:0.8;" x="66.053125" xlink:href="#mb54a0e9863" y="976.544135"/>
      </g>
     </g>
     <g id="text_12">
      <!-- 20000 -->
      <g transform="translate(27.240625 980.343353)scale(0.1 -0.1)">
       <defs>
        <path d="M 1228 531 
L 3431 531 
L 3431 0 
L 469 0 
L 469 531 
Q 828 903 1448 1529 
Q 2069 2156 2228 2338 
Q 2531 2678 2651 2914 
Q 2772 3150 2772 3378 
Q 2772 3750 2511 3984 
Q 2250 4219 1831 4219 
Q 1534 4219 1204 4116 
Q 875 4013 500 3803 
L 500 4441 
Q 881 4594 1212 4672 
Q 1544 4750 1819 4750 
Q 2544 4750 2975 4387 
Q 3406 4025 3406 3419 
Q 3406 3131 3298 2873 
Q 3191 2616 2906 2266 
Q 2828 2175 2409 1742 
Q 1991 1309 1228 531 
z
" id="DejaVuSans-32" transform="scale(0.015625)"/>
       </defs>
       <use xlink:href="#DejaVuSans-32"/>
       <use x="63.623047" xlink:href="#DejaVuSans-30"/>
       <use x="127.246094" xlink:href="#DejaVuSans-30"/>
       <use x="190.869141" xlink:href="#DejaVuSans-30"/>
       <use x="254.492188" xlink:href="#DejaVuSans-30"/>
      </g>
     </g>
    </g>
    <g id="ytick_3">
     <g id="line2d_12">
      <g>
       <use style="stroke:#000000;stroke-width:0.8;" x="66.053125" xlink:href="#mb54a0e9863" y="843.570144"/>
      </g>
     </g>
     <g id="text_13">
      <!-- 40000 -->
      <g transform="translate(27.240625 847.369363)scale(0.1 -0.1)">
       <defs>
        <path d="M 2419 4116 
L 825 1625 
L 2419 1625 
L 2419 4116 
z
M 2253 4666 
L 3047 4666 
L 3047 1625 
L 3713 1625 
L 3713 1100 
L 3047 1100 
L 3047 0 
L 2419 0 
L 2419 1100 
L 313 1100 
L 313 1709 
L 2253 4666 
z
" id="DejaVuSans-34" transform="scale(0.015625)"/>
       </defs>
       <use xlink:href="#DejaVuSans-34"/>
       <use x="63.623047" xlink:href="#DejaVuSans-30"/>
       <use x="127.246094" xlink:href="#DejaVuSans-30"/>
       <use x="190.869141" xlink:href="#DejaVuSans-30"/>
       <use x="254.492188" xlink:href="#DejaVuSans-30"/>
      </g>
     </g>
    </g>
    <g id="ytick_4">
     <g id="line2d_13">
      <g>
       <use style="stroke:#000000;stroke-width:0.8;" x="66.053125" xlink:href="#mb54a0e9863" y="710.596154"/>
      </g>
     </g>
     <g id="text_14">
      <!-- 60000 -->
      <g transform="translate(27.240625 714.395372)scale(0.1 -0.1)">
       <defs>
        <path d="M 2113 2584 
Q 1688 2584 1439 2293 
Q 1191 2003 1191 1497 
Q 1191 994 1439 701 
Q 1688 409 2113 409 
Q 2538 409 2786 701 
Q 3034 994 3034 1497 
Q 3034 2003 2786 2293 
Q 2538 2584 2113 2584 
z
M 3366 4563 
L 3366 3988 
Q 3128 4100 2886 4159 
Q 2644 4219 2406 4219 
Q 1781 4219 1451 3797 
Q 1122 3375 1075 2522 
Q 1259 2794 1537 2939 
Q 1816 3084 2150 3084 
Q 2853 3084 3261 2657 
Q 3669 2231 3669 1497 
Q 3669 778 3244 343 
Q 2819 -91 2113 -91 
Q 1303 -91 875 529 
Q 447 1150 447 2328 
Q 447 3434 972 4092 
Q 1497 4750 2381 4750 
Q 2619 4750 2861 4703 
Q 3103 4656 3366 4563 
z
" id="DejaVuSans-36" transform="scale(0.015625)"/>
       </defs>
       <use xlink:href="#DejaVuSans-36"/>
       <use x="63.623047" xlink:href="#DejaVuSans-30"/>
       <use x="127.246094" xlink:href="#DejaVuSans-30"/>
       <use x="190.869141" xlink:href="#DejaVuSans-30"/>
       <use x="254.492188" xlink:href="#DejaVuSans-30"/>
      </g>
     </g>
    </g>
    <g id="ytick_5">
     <g id="line2d_14">
      <g>
       <use style="stroke:#000000;stroke-width:0.8;" x="66.053125" xlink:href="#mb54a0e9863" y="577.622163"/>
      </g>
     </g>
     <g id="text_15">
      <!-- 80000 -->
      <g transform="translate(27.240625 581.421382)scale(0.1 -0.1)">
       <defs>
        <path d="M 2034 2216 
Q 1584 2216 1326 1975 
Q 1069 1734 1069 1313 
Q 1069 891 1326 650 
Q 1584 409 2034 409 
Q 2484 409 2743 651 
Q 3003 894 3003 1313 
Q 3003 1734 2745 1975 
Q 2488 2216 2034 2216 
z
M 1403 2484 
Q 997 2584 770 2862 
Q 544 3141 544 3541 
Q 544 4100 942 4425 
Q 1341 4750 2034 4750 
Q 2731 4750 3128 4425 
Q 3525 4100 3525 3541 
Q 3525 3141 3298 2862 
Q 3072 2584 2669 2484 
Q 3125 2378 3379 2068 
Q 3634 1759 3634 1313 
Q 3634 634 3220 271 
Q 2806 -91 2034 -91 
Q 1263 -91 848 271 
Q 434 634 434 1313 
Q 434 1759 690 2068 
Q 947 2378 1403 2484 
z
M 1172 3481 
Q 1172 3119 1398 2916 
Q 1625 2713 2034 2713 
Q 2441 2713 2670 2916 
Q 2900 3119 2900 3481 
Q 2900 3844 2670 4047 
Q 2441 4250 2034 4250 
Q 1625 4250 1398 4047 
Q 1172 3844 1172 3481 
z
" id="DejaVuSans-38" transform="scale(0.015625)"/>
       </defs>
       <use xlink:href="#DejaVuSans-38"/>
       <use x="63.623047" xlink:href="#DejaVuSans-30"/>
       <use x="127.246094" xlink:href="#DejaVuSans-30"/>
       <use x="190.869141" xlink:href="#DejaVuSans-30"/>
       <use x="254.492188" xlink:href="#DejaVuSans-30"/>
      </g>
     </g>
    </g>
    <g id="ytick_6">
     <g id="line2d_15">
      <g>
       <use style="stroke:#000000;stroke-width:0.8;" x="66.053125" xlink:href="#mb54a0e9863" y="444.648173"/>
      </g>
     </g>
     <g id="text_16">
      <!-- 100000 -->
      <g transform="translate(20.878125 448.447392)scale(0.1 -0.1)">
       <defs>
        <path d="M 794 531 
L 1825 531 
L 1825 4091 
L 703 3866 
L 703 4441 
L 1819 4666 
L 2450 4666 
L 2450 531 
L 3481 531 
L 3481 0 
L 794 0 
L 794 531 
z
" id="DejaVuSans-31" transform="scale(0.015625)"/>
       </defs>
       <use xlink:href="#DejaVuSans-31"/>
       <use x="63.623047" xlink:href="#DejaVuSans-30"/>
       <use x="127.246094" xlink:href="#DejaVuSans-30"/>
       <use x="190.869141" xlink:href="#DejaVuSans-30"/>
       <use x="254.492188" xlink:href="#DejaVuSans-30"/>
       <use x="318.115234" xlink:href="#DejaVuSans-30"/>
      </g>
     </g>
    </g>
    <g id="ytick_7">
     <g id="line2d_16">
      <g>
       <use style="stroke:#000000;stroke-width:0.8;" x="66.053125" xlink:href="#mb54a0e9863" y="311.674182"/>
      </g>
     </g>
     <g id="text_17">
      <!-- 120000 -->
      <g transform="translate(20.878125 315.473401)scale(0.1 -0.1)">
       <use xlink:href="#DejaVuSans-31"/>
       <use x="63.623047" xlink:href="#DejaVuSans-32"/>
       <use x="127.246094" xlink:href="#DejaVuSans-30"/>
       <use x="190.869141" xlink:href="#DejaVuSans-30"/>
       <use x="254.492188" xlink:href="#DejaVuSans-30"/>
       <use x="318.115234" xlink:href="#DejaVuSans-30"/>
      </g>
     </g>
    </g>
    <g id="ytick_8">
     <g id="line2d_17">
      <g>
       <use style="stroke:#000000;stroke-width:0.8;" x="66.053125" xlink:href="#mb54a0e9863" y="178.700192"/>
      </g>
     </g>
     <g id="text_18">
      <!-- 140000 -->
      <g transform="translate(20.878125 182.499411)scale(0.1 -0.1)">
       <use xlink:href="#DejaVuSans-31"/>
       <use x="63.623047" xlink:href="#DejaVuSans-34"/>
       <use x="127.246094" xlink:href="#DejaVuSans-30"/>
       <use x="190.869141" xlink:href="#DejaVuSans-30"/>
       <use x="254.492188" xlink:href="#DejaVuSans-30"/>
       <use x="318.115234" xlink:href="#DejaVuSans-30"/>
      </g>
     </g>
    </g>
    <g id="ytick_9">
     <g id="line2d_18">
      <g>
       <use style="stroke:#000000;stroke-width:0.8;" x="66.053125" xlink:href="#mb54a0e9863" y="45.726201"/>
      </g>
     </g>
     <g id="text_19">
      <!-- 160000 -->
      <g transform="translate(20.878125 49.52542)scale(0.1 -0.1)">
       <use xlink:href="#DejaVuSans-31"/>
       <use x="63.623047" xlink:href="#DejaVuSans-36"/>
       <use x="127.246094" xlink:href="#DejaVuSans-30"/>
       <use x="190.869141" xlink:href="#DejaVuSans-30"/>
       <use x="254.492188" xlink:href="#DejaVuSans-30"/>
       <use x="318.115234" xlink:href="#DejaVuSans-30"/>
      </g>
     </g>
    </g>
    <g id="text_20">
     <!-- Years 2012-2020 -->
     <g transform="translate(14.798438 607.953281)rotate(-90)scale(0.1 -0.1)">
      <defs>
       <path d="M -13 4666 
L 666 4666 
L 1959 2747 
L 3244 4666 
L 3922 4666 
L 2272 2222 
L 2272 0 
L 1638 0 
L 1638 2222 
L -13 4666 
z
" id="DejaVuSans-59" transform="scale(0.015625)"/>
       <path d="M 313 2009 
L 1997 2009 
L 1997 1497 
L 313 1497 
L 313 2009 
z
" id="DejaVuSans-2d" transform="scale(0.015625)"/>
      </defs>
      <use xlink:href="#DejaVuSans-59"/>
      <use x="47.833984" xlink:href="#DejaVuSans-65"/>
      <use x="109.357422" xlink:href="#DejaVuSans-61"/>
      <use x="170.636719" xlink:href="#DejaVuSans-72"/>
      <use x="211.75" xlink:href="#DejaVuSans-73"/>
      <use x="263.849609" xlink:href="#DejaVuSans-20"/>
      <use x="295.636719" xlink:href="#DejaVuSans-32"/>
      <use x="359.259766" xlink:href="#DejaVuSans-30"/>
      <use x="422.882812" xlink:href="#DejaVuSans-31"/>
      <use x="486.505859" xlink:href="#DejaVuSans-32"/>
      <use x="550.128906" xlink:href="#DejaVuSans-2d"/>
      <use x="586.212891" xlink:href="#DejaVuSans-32"/>
      <use x="649.835938" xlink:href="#DejaVuSans-30"/>
      <use x="713.458984" xlink:href="#DejaVuSans-32"/>
      <use x="777.082031" xlink:href="#DejaVuSans-30"/>
     </g>
    </g>
   </g>
   <g id="patch_93">
    <path d="M 66.053125 1109.518125 
L 66.053125 22.318125 
" style="fill:none;stroke:#000000;stroke-linecap:square;stroke-linejoin:miter;stroke-width:0.8;"/>
   </g>
   <g id="patch_94">
    <path d="M 903.053125 1109.518125 
L 903.053125 22.318125 
" style="fill:none;stroke:#000000;stroke-linecap:square;stroke-linejoin:miter;stroke-width:0.8;"/>
   </g>
   <g id="patch_95">
    <path d="M 66.053125 1109.518125 
L 903.053125 1109.518125 
" style="fill:none;stroke:#000000;stroke-linecap:square;stroke-linejoin:miter;stroke-width:0.8;"/>
   </g>
   <g id="patch_96">
    <path d="M 66.053125 22.318125 
L 903.053125 22.318125 
" style="fill:none;stroke:#000000;stroke-linecap:square;stroke-linejoin:miter;stroke-width:0.8;"/>
   </g>
   <g id="text_21">
    <!-- Total of Other Admission Candidates -->
    <g transform="translate(375.581875 16.318125)scale(0.12 -0.12)">
     <use xlink:href="#DejaVuSans-54"/>
     <use x="44.083984" xlink:href="#DejaVuSans-6f"/>
     <use x="105.265625" xlink:href="#DejaVuSans-74"/>
     <use x="144.474609" xlink:href="#DejaVuSans-61"/>
     <use x="205.753906" xlink:href="#DejaVuSans-6c"/>
     <use x="233.537109" xlink:href="#DejaVuSans-20"/>
     <use x="265.324219" xlink:href="#DejaVuSans-6f"/>
     <use x="326.505859" xlink:href="#DejaVuSans-66"/>
     <use x="361.710938" xlink:href="#DejaVuSans-20"/>
     <use x="393.498047" xlink:href="#DejaVuSans-4f"/>
     <use x="472.208984" xlink:href="#DejaVuSans-74"/>
     <use x="511.417969" xlink:href="#DejaVuSans-68"/>
     <use x="574.796875" xlink:href="#DejaVuSans-65"/>
     <use x="636.320312" xlink:href="#DejaVuSans-72"/>
     <use x="677.433594" xlink:href="#DejaVuSans-20"/>
     <use x="709.220703" xlink:href="#DejaVuSans-41"/>
     <use x="775.878906" xlink:href="#DejaVuSans-64"/>
     <use x="839.355469" xlink:href="#DejaVuSans-6d"/>
     <use x="936.767578" xlink:href="#DejaVuSans-69"/>
     <use x="964.550781" xlink:href="#DejaVuSans-73"/>
     <use x="1016.650391" xlink:href="#DejaVuSans-73"/>
     <use x="1068.75" xlink:href="#DejaVuSans-69"/>
     <use x="1096.533203" xlink:href="#DejaVuSans-6f"/>
     <use x="1157.714844" xlink:href="#DejaVuSans-6e"/>
     <use x="1221.09375" xlink:href="#DejaVuSans-20"/>
     <use x="1252.880859" xlink:href="#DejaVuSans-43"/>
     <use x="1322.705078" xlink:href="#DejaVuSans-61"/>
     <use x="1383.984375" xlink:href="#DejaVuSans-6e"/>
     <use x="1447.363281" xlink:href="#DejaVuSans-64"/>
     <use x="1510.839844" xlink:href="#DejaVuSans-69"/>
     <use x="1538.623047" xlink:href="#DejaVuSans-64"/>
     <use x="1602.099609" xlink:href="#DejaVuSans-61"/>
     <use x="1663.378906" xlink:href="#DejaVuSans-74"/>
     <use x="1702.587891" xlink:href="#DejaVuSans-65"/>
     <use x="1764.111328" xlink:href="#DejaVuSans-73"/>
    </g>
   </g>
   <g id="legend_1">
    <g id="patch_97">
     <path d="M 838.603125 177.099375 
L 896.053125 177.099375 
Q 898.053125 177.099375 898.053125 175.099375 
L 898.053125 29.318125 
Q 898.053125 27.318125 896.053125 27.318125 
L 838.603125 27.318125 
Q 836.603125 27.318125 836.603125 29.318125 
L 836.603125 175.099375 
Q 836.603125 177.099375 838.603125 177.099375 
z
" style="fill:#ffffff;opacity:0.8;stroke:#cccccc;stroke-linejoin:miter;"/>
    </g>
    <g id="patch_98">
     <path d="M 840.603125 38.916563 
L 860.603125 38.916563 
L 860.603125 31.916563 
L 840.603125 31.916563 
z
" style="fill:#1f77b4;"/>
    </g>
    <g id="text_22">
     <!-- 2011 -->
     <g transform="translate(868.603125 38.916563)scale(0.1 -0.1)">
      <use xlink:href="#DejaVuSans-32"/>
      <use x="63.623047" xlink:href="#DejaVuSans-30"/>
      <use x="127.246094" xlink:href="#DejaVuSans-31"/>
      <use x="190.869141" xlink:href="#DejaVuSans-31"/>
     </g>
    </g>
    <g id="patch_99">
     <path d="M 840.603125 53.594688 
L 860.603125 53.594688 
L 860.603125 46.594688 
L 840.603125 46.594688 
z
" style="fill:#ff7f0e;"/>
    </g>
    <g id="text_23">
     <!-- 2012 -->
     <g transform="translate(868.603125 53.594688)scale(0.1 -0.1)">
      <use xlink:href="#DejaVuSans-32"/>
      <use x="63.623047" xlink:href="#DejaVuSans-30"/>
      <use x="127.246094" xlink:href="#DejaVuSans-31"/>
      <use x="190.869141" xlink:href="#DejaVuSans-32"/>
     </g>
    </g>
    <g id="patch_100">
     <path d="M 840.603125 68.272813 
L 860.603125 68.272813 
L 860.603125 61.272813 
L 840.603125 61.272813 
z
" style="fill:#2ca02c;"/>
    </g>
    <g id="text_24">
     <!-- 2013 -->
     <g transform="translate(868.603125 68.272813)scale(0.1 -0.1)">
      <defs>
       <path d="M 2597 2516 
Q 3050 2419 3304 2112 
Q 3559 1806 3559 1356 
Q 3559 666 3084 287 
Q 2609 -91 1734 -91 
Q 1441 -91 1130 -33 
Q 819 25 488 141 
L 488 750 
Q 750 597 1062 519 
Q 1375 441 1716 441 
Q 2309 441 2620 675 
Q 2931 909 2931 1356 
Q 2931 1769 2642 2001 
Q 2353 2234 1838 2234 
L 1294 2234 
L 1294 2753 
L 1863 2753 
Q 2328 2753 2575 2939 
Q 2822 3125 2822 3475 
Q 2822 3834 2567 4026 
Q 2313 4219 1838 4219 
Q 1578 4219 1281 4162 
Q 984 4106 628 3988 
L 628 4550 
Q 988 4650 1302 4700 
Q 1616 4750 1894 4750 
Q 2613 4750 3031 4423 
Q 3450 4097 3450 3541 
Q 3450 3153 3228 2886 
Q 3006 2619 2597 2516 
z
" id="DejaVuSans-33" transform="scale(0.015625)"/>
      </defs>
      <use xlink:href="#DejaVuSans-32"/>
      <use x="63.623047" xlink:href="#DejaVuSans-30"/>
      <use x="127.246094" xlink:href="#DejaVuSans-31"/>
      <use x="190.869141" xlink:href="#DejaVuSans-33"/>
     </g>
    </g>
    <g id="patch_101">
     <path d="M 840.603125 82.950938 
L 860.603125 82.950938 
L 860.603125 75.950938 
L 840.603125 75.950938 
z
" style="fill:#d62728;"/>
    </g>
    <g id="text_25">
     <!-- 2014 -->
     <g transform="translate(868.603125 82.950938)scale(0.1 -0.1)">
      <use xlink:href="#DejaVuSans-32"/>
      <use x="63.623047" xlink:href="#DejaVuSans-30"/>
      <use x="127.246094" xlink:href="#DejaVuSans-31"/>
      <use x="190.869141" xlink:href="#DejaVuSans-34"/>
     </g>
    </g>
    <g id="patch_102">
     <path d="M 840.603125 97.629063 
L 860.603125 97.629063 
L 860.603125 90.629063 
L 840.603125 90.629063 
z
" style="fill:#9467bd;"/>
    </g>
    <g id="text_26">
     <!-- 2015 -->
     <g transform="translate(868.603125 97.629063)scale(0.1 -0.1)">
      <defs>
       <path d="M 691 4666 
L 3169 4666 
L 3169 4134 
L 1269 4134 
L 1269 2991 
Q 1406 3038 1543 3061 
Q 1681 3084 1819 3084 
Q 2600 3084 3056 2656 
Q 3513 2228 3513 1497 
Q 3513 744 3044 326 
Q 2575 -91 1722 -91 
Q 1428 -91 1123 -41 
Q 819 9 494 109 
L 494 744 
Q 775 591 1075 516 
Q 1375 441 1709 441 
Q 2250 441 2565 725 
Q 2881 1009 2881 1497 
Q 2881 1984 2565 2268 
Q 2250 2553 1709 2553 
Q 1456 2553 1204 2497 
Q 953 2441 691 2322 
L 691 4666 
z
" id="DejaVuSans-35" transform="scale(0.015625)"/>
      </defs>
      <use xlink:href="#DejaVuSans-32"/>
      <use x="63.623047" xlink:href="#DejaVuSans-30"/>
      <use x="127.246094" xlink:href="#DejaVuSans-31"/>
      <use x="190.869141" xlink:href="#DejaVuSans-35"/>
     </g>
    </g>
    <g id="patch_103">
     <path d="M 840.603125 112.307188 
L 860.603125 112.307188 
L 860.603125 105.307188 
L 840.603125 105.307188 
z
" style="fill:#8c564b;"/>
    </g>
    <g id="text_27">
     <!-- 2016 -->
     <g transform="translate(868.603125 112.307188)scale(0.1 -0.1)">
      <use xlink:href="#DejaVuSans-32"/>
      <use x="63.623047" xlink:href="#DejaVuSans-30"/>
      <use x="127.246094" xlink:href="#DejaVuSans-31"/>
      <use x="190.869141" xlink:href="#DejaVuSans-36"/>
     </g>
    </g>
    <g id="patch_104">
     <path d="M 840.603125 126.985313 
L 860.603125 126.985313 
L 860.603125 119.985313 
L 840.603125 119.985313 
z
" style="fill:#e377c2;"/>
    </g>
    <g id="text_28">
     <!-- 2017 -->
     <g transform="translate(868.603125 126.985313)scale(0.1 -0.1)">
      <defs>
       <path d="M 525 4666 
L 3525 4666 
L 3525 4397 
L 1831 0 
L 1172 0 
L 2766 4134 
L 525 4134 
L 525 4666 
z
" id="DejaVuSans-37" transform="scale(0.015625)"/>
      </defs>
      <use xlink:href="#DejaVuSans-32"/>
      <use x="63.623047" xlink:href="#DejaVuSans-30"/>
      <use x="127.246094" xlink:href="#DejaVuSans-31"/>
      <use x="190.869141" xlink:href="#DejaVuSans-37"/>
     </g>
    </g>
    <g id="patch_105">
     <path d="M 840.603125 141.663438 
L 860.603125 141.663438 
L 860.603125 134.663438 
L 840.603125 134.663438 
z
" style="fill:#7f7f7f;"/>
    </g>
    <g id="text_29">
     <!-- 2018 -->
     <g transform="translate(868.603125 141.663438)scale(0.1 -0.1)">
      <use xlink:href="#DejaVuSans-32"/>
      <use x="63.623047" xlink:href="#DejaVuSans-30"/>
      <use x="127.246094" xlink:href="#DejaVuSans-31"/>
      <use x="190.869141" xlink:href="#DejaVuSans-38"/>
     </g>
    </g>
    <g id="patch_106">
     <path d="M 840.603125 156.341563 
L 860.603125 156.341563 
L 860.603125 149.341563 
L 840.603125 149.341563 
z
" style="fill:#bcbd22;"/>
    </g>
    <g id="text_30">
     <!-- 2019 -->
     <g transform="translate(868.603125 156.341563)scale(0.1 -0.1)">
      <defs>
       <path d="M 703 97 
L 703 672 
Q 941 559 1184 500 
Q 1428 441 1663 441 
Q 2288 441 2617 861 
Q 2947 1281 2994 2138 
Q 2813 1869 2534 1725 
Q 2256 1581 1919 1581 
Q 1219 1581 811 2004 
Q 403 2428 403 3163 
Q 403 3881 828 4315 
Q 1253 4750 1959 4750 
Q 2769 4750 3195 4129 
Q 3622 3509 3622 2328 
Q 3622 1225 3098 567 
Q 2575 -91 1691 -91 
Q 1453 -91 1209 -44 
Q 966 3 703 97 
z
M 1959 2075 
Q 2384 2075 2632 2365 
Q 2881 2656 2881 3163 
Q 2881 3666 2632 3958 
Q 2384 4250 1959 4250 
Q 1534 4250 1286 3958 
Q 1038 3666 1038 3163 
Q 1038 2656 1286 2365 
Q 1534 2075 1959 2075 
z
" id="DejaVuSans-39" transform="scale(0.015625)"/>
      </defs>
      <use xlink:href="#DejaVuSans-32"/>
      <use x="63.623047" xlink:href="#DejaVuSans-30"/>
      <use x="127.246094" xlink:href="#DejaVuSans-31"/>
      <use x="190.869141" xlink:href="#DejaVuSans-39"/>
     </g>
    </g>
    <g id="patch_107">
     <path d="M 840.603125 171.019688 
L 860.603125 171.019688 
L 860.603125 164.019688 
L 840.603125 164.019688 
z
" style="fill:#17becf;"/>
    </g>
    <g id="text_31">
     <!-- 2020 -->
     <g transform="translate(868.603125 171.019688)scale(0.1 -0.1)">
      <use xlink:href="#DejaVuSans-32"/>
      <use x="63.623047" xlink:href="#DejaVuSans-30"/>
      <use x="127.246094" xlink:href="#DejaVuSans-32"/>
      <use x="190.869141" xlink:href="#DejaVuSans-30"/>
     </g>
    </g>
   </g>
  </g>
 </g>
 <defs>
  <clipPath id="peebc65bf1c">
   <rect height="1087.2" width="837" x="66.053125" y="22.318125"/>
  </clipPath>
 </defs>
</svg>
